<svg width="390" height="844" viewBox="0 0 390 844" fill="none" xmlns="http://www.w3.org/2000/svg">
<rect width="390" height="844" fill="#F3F5F8"/>
<rect x="67" y="118" width="256" height="257" fill="#D9D9D9"/>
<line x1="323.354" y1="118.353" x2="67.3543" y2="375.353" stroke="black"/>
<line x1="322.646" y1="375.353" x2="66.6458" y2="118.353" stroke="black"/>
<path d="M135.8 444V437.44H137.8V419.44H135.8V412.88H152.68V419.44H149V437.44H152.6V433.76H160.56V444H135.8ZM173.773 444.56C169.986 444.56 167.026 443.573 164.893 441.6C162.759 439.6 161.693 436.693 161.693 432.88C161.693 429.067 162.759 426.173 164.893 424.2C167.026 422.2 169.986 421.2 173.773 421.2C177.613 421.2 180.586 422.213 182.693 424.24C184.799 426.24 185.853 429.12 185.853 432.88C185.853 436.693 184.786 439.6 182.653 441.6C180.519 443.573 177.559 444.56 173.773 444.56ZM173.773 437.44C174.546 437.44 175.119 437.24 175.493 436.84C175.893 436.413 176.093 435.76 176.093 434.88V430.88C176.093 430 175.893 429.36 175.493 428.96C175.119 428.533 174.546 428.32 173.773 428.32C172.999 428.32 172.413 428.533 172.013 428.96C171.639 429.36 171.453 430 171.453 430.88V434.88C171.453 435.76 171.639 436.413 172.013 436.84C172.413 437.24 172.999 437.44 173.773 437.44ZM198.846 453.44C196.926 453.44 195.086 453.307 193.326 453.04C191.593 452.773 190.246 452.467 189.286 452.12V445.56C192.113 446.067 194.646 446.32 196.886 446.32C198.406 446.32 199.5 446.08 200.166 445.6C200.86 445.147 201.206 444.28 201.206 443V441.28C200.54 442.133 199.673 442.893 198.606 443.56C197.566 444.227 196.366 444.56 195.006 444.56C192.286 444.56 190.233 443.547 188.846 441.52C187.486 439.493 186.806 436.613 186.806 432.88C186.806 429.147 187.486 426.267 188.846 424.24C190.233 422.213 192.286 421.2 195.006 421.2C196.366 421.2 197.566 421.533 198.606 422.2C199.673 422.867 200.54 423.627 201.206 424.48V421.76H212.166V428.32H210.406V442.4C210.406 446.267 209.446 449.067 207.526 450.8C205.606 452.56 202.713 453.44 198.846 453.44ZM198.886 437.44C199.66 437.44 200.233 437.24 200.606 436.84C201.006 436.413 201.206 435.76 201.206 434.88V430.88C201.206 430 201.006 429.36 200.606 428.96C200.233 428.533 199.66 428.32 198.886 428.32C198.113 428.32 197.526 428.533 197.126 428.96C196.753 429.36 196.566 430 196.566 430.88V434.88C196.566 435.76 196.753 436.413 197.126 436.84C197.526 437.24 198.113 437.44 198.886 437.44ZM215.218 419.56V412.88H223.378V419.56H215.218ZM213.298 444V437.44H215.058V428.32H213.298V421.76H224.258V437.44H226.018V444H213.298ZM253.686 437.44V444H241.046V437.44H242.726V430.88C242.726 430 242.54 429.36 242.166 428.96C241.793 428.533 241.233 428.32 240.486 428.32C238.886 428.32 238.086 429.173 238.086 430.88V437.44H239.766V444H227.126V437.44H228.886V428.32H227.126V421.76H238.086V424.88C240.006 422.427 242.406 421.2 245.286 421.2C247.5 421.2 249.153 421.893 250.246 423.28C251.366 424.667 251.926 426.573 251.926 429V437.44H253.686Z" fill="black"/>
<path d="M31.0114 492V480.364H38.8523V482.392H33.4716V485.165H38.4489V487.193H33.4716V489.972H38.875V492H31.0114ZM40.7628 492V483.273H43.0696V484.812H43.1719C43.3537 484.301 43.6567 483.898 44.081 483.602C44.5052 483.307 45.0128 483.159 45.6037 483.159C46.2022 483.159 46.7116 483.309 47.1321 483.608C47.5526 483.903 47.8329 484.305 47.973 484.812H48.0639C48.242 484.312 48.5639 483.913 49.0298 483.614C49.4995 483.311 50.0545 483.159 50.6946 483.159C51.509 483.159 52.17 483.419 52.6776 483.938C53.1889 484.453 53.4446 485.184 53.4446 486.131V492H51.0298V486.608C51.0298 486.123 50.901 485.759 50.6435 485.517C50.3859 485.275 50.0639 485.153 49.6776 485.153C49.2382 485.153 48.8954 485.294 48.6491 485.574C48.4029 485.85 48.2798 486.216 48.2798 486.67V492H45.9332V486.557C45.9332 486.129 45.8101 485.788 45.5639 485.534C45.3215 485.28 45.0014 485.153 44.6037 485.153C44.3348 485.153 44.0923 485.222 43.8764 485.358C43.6643 485.491 43.4957 485.678 43.3707 485.92C43.2457 486.159 43.1832 486.439 43.1832 486.761V492H40.7628ZM57.8452 492.165C57.2884 492.165 56.7921 492.068 56.3565 491.875C55.9209 491.678 55.5762 491.388 55.3224 491.006C55.0724 490.619 54.9474 490.138 54.9474 489.562C54.9474 489.078 55.0365 488.67 55.2145 488.341C55.3925 488.011 55.6349 487.746 55.9418 487.545C56.2486 487.345 56.5971 487.193 56.9872 487.091C57.3812 486.989 57.794 486.917 58.2259 486.875C58.7334 486.822 59.1425 486.773 59.4531 486.727C59.7637 486.678 59.9891 486.606 60.1293 486.511C60.2694 486.417 60.3395 486.277 60.3395 486.091V486.057C60.3395 485.697 60.2259 485.419 59.9986 485.222C59.7751 485.025 59.4569 484.926 59.044 484.926C58.6084 484.926 58.2618 485.023 58.0043 485.216C57.7467 485.405 57.5762 485.644 57.4929 485.932L55.2543 485.75C55.3679 485.22 55.5914 484.761 55.9247 484.375C56.258 483.985 56.688 483.686 57.2145 483.477C57.7448 483.265 58.3584 483.159 59.0554 483.159C59.5402 483.159 60.0043 483.216 60.4474 483.33C60.8944 483.443 61.2902 483.619 61.6349 483.858C61.9834 484.097 62.258 484.403 62.4588 484.778C62.6596 485.15 62.7599 485.595 62.7599 486.114V492H60.4645V490.79H60.3963C60.2562 491.062 60.0687 491.303 59.8338 491.511C59.599 491.716 59.3168 491.877 58.9872 491.994C58.6577 492.108 58.277 492.165 57.8452 492.165ZM58.5384 490.494C58.8944 490.494 59.2088 490.424 59.4815 490.284C59.7543 490.14 59.9683 489.947 60.1236 489.705C60.2789 489.462 60.3565 489.187 60.3565 488.881V487.955C60.2808 488.004 60.1766 488.049 60.044 488.091C59.9152 488.129 59.7694 488.165 59.6065 488.199C59.4437 488.229 59.2808 488.258 59.1179 488.284C58.955 488.307 58.8073 488.328 58.6747 488.347C58.3906 488.388 58.1425 488.455 57.9304 488.545C57.7183 488.636 57.5535 488.759 57.4361 488.915C57.3187 489.066 57.2599 489.256 57.2599 489.483C57.2599 489.812 57.3793 490.064 57.6179 490.239C57.8603 490.409 58.1671 490.494 58.5384 490.494ZM64.6378 492V483.273H67.0582V492H64.6378ZM65.8537 482.148C65.4938 482.148 65.1851 482.028 64.9276 481.79C64.6738 481.547 64.5469 481.258 64.5469 480.92C64.5469 480.587 64.6738 480.301 64.9276 480.062C65.1851 479.82 65.4938 479.699 65.8537 479.699C66.2135 479.699 66.5204 479.82 66.7741 480.062C67.0317 480.301 67.1605 480.587 67.1605 480.92C67.1605 481.258 67.0317 481.547 66.7741 481.79C66.5204 482.028 66.2135 482.148 65.8537 482.148ZM71.4176 480.364V492H68.9972V480.364H71.4176ZM74.7713 492.148C74.3963 492.148 74.0743 492.015 73.8054 491.75C73.5402 491.481 73.4077 491.159 73.4077 490.784C73.4077 490.413 73.5402 490.095 73.8054 489.83C74.0743 489.564 74.3963 489.432 74.7713 489.432C75.1349 489.432 75.4531 489.564 75.7259 489.83C75.9986 490.095 76.1349 490.413 76.1349 490.784C76.1349 491.034 76.0705 491.263 75.9418 491.472C75.8168 491.676 75.652 491.841 75.4474 491.966C75.2429 492.087 75.0175 492.148 74.7713 492.148ZM74.7713 486.034C74.3963 486.034 74.0743 485.902 73.8054 485.636C73.5402 485.371 73.4077 485.049 73.4077 484.67C73.4077 484.299 73.5402 483.983 73.8054 483.722C74.0743 483.456 74.3963 483.324 74.7713 483.324C75.1349 483.324 75.4531 483.456 75.7259 483.722C75.9986 483.983 76.1349 484.299 76.1349 484.67C76.1349 484.924 76.0705 485.155 75.9418 485.364C75.8168 485.568 75.652 485.731 75.4474 485.852C75.2429 485.973 75.0175 486.034 74.7713 486.034Z" fill="black"/>
<rect x="30.5" y="496.5" width="329" height="39" rx="9.5" fill="white"/>
<path d="M41.4091 521V509.364H42.8182V519.75H48.2273V521H41.4091ZM53.7727 521.182C52.9848 521.182 52.2936 520.994 51.6989 520.619C51.108 520.244 50.6458 519.72 50.3125 519.045C49.983 518.371 49.8182 517.583 49.8182 516.682C49.8182 515.773 49.983 514.979 50.3125 514.301C50.6458 513.623 51.108 513.097 51.6989 512.722C52.2936 512.347 52.9848 512.159 53.7727 512.159C54.5606 512.159 55.25 512.347 55.8409 512.722C56.4356 513.097 56.8977 513.623 57.2273 514.301C57.5606 514.979 57.7273 515.773 57.7273 516.682C57.7273 517.583 57.5606 518.371 57.2273 519.045C56.8977 519.72 56.4356 520.244 55.8409 520.619C55.25 520.994 54.5606 521.182 53.7727 521.182ZM53.7727 519.977C54.3712 519.977 54.8636 519.824 55.25 519.517C55.6364 519.21 55.9223 518.807 56.108 518.307C56.2936 517.807 56.3864 517.265 56.3864 516.682C56.3864 516.098 56.2936 515.555 56.108 515.051C55.9223 514.547 55.6364 514.14 55.25 513.83C54.8636 513.519 54.3712 513.364 53.7727 513.364C53.1742 513.364 52.6818 513.519 52.2955 513.83C51.9091 514.14 51.6231 514.547 51.4375 515.051C51.2519 515.555 51.1591 516.098 51.1591 516.682C51.1591 517.265 51.2519 517.807 51.4375 518.307C51.6231 518.807 51.9091 519.21 52.2955 519.517C52.6818 519.824 53.1742 519.977 53.7727 519.977ZM59.7741 521V512.273H61.0696V513.591H61.1605C61.3196 513.159 61.6075 512.809 62.0241 512.54C62.4408 512.271 62.9105 512.136 63.4332 512.136C63.5317 512.136 63.6548 512.138 63.8026 512.142C63.9503 512.146 64.062 512.152 64.1378 512.159V513.523C64.0923 513.511 63.9882 513.494 63.8253 513.472C63.6662 513.445 63.4976 513.432 63.3196 513.432C62.8954 513.432 62.5166 513.521 62.1832 513.699C61.8537 513.873 61.5923 514.116 61.3991 514.426C61.2098 514.733 61.1151 515.083 61.1151 515.477V521H59.7741ZM69.1207 521.182C68.2798 521.182 67.5545 520.996 66.9446 520.625C66.3385 520.25 65.8707 519.727 65.5412 519.057C65.2154 518.383 65.0526 517.598 65.0526 516.705C65.0526 515.811 65.2154 515.023 65.5412 514.341C65.8707 513.655 66.3291 513.121 66.9162 512.739C67.5071 512.352 68.1965 512.159 68.9844 512.159C69.4389 512.159 69.8878 512.235 70.331 512.386C70.7741 512.538 71.1776 512.784 71.5412 513.125C71.9048 513.462 72.1946 513.909 72.4105 514.466C72.6264 515.023 72.7344 515.708 72.7344 516.523V517.091H66.0071V515.932H71.3707C71.3707 515.439 71.2723 515 71.0753 514.614C70.8821 514.227 70.6056 513.922 70.2457 513.699C69.8897 513.475 69.4692 513.364 68.9844 513.364C68.4503 513.364 67.9882 513.496 67.598 513.761C67.2116 514.023 66.9143 514.364 66.706 514.784C66.4976 515.205 66.3935 515.655 66.3935 516.136V516.909C66.3935 517.568 66.5071 518.127 66.7344 518.585C66.9654 519.04 67.2855 519.386 67.6946 519.625C68.1037 519.86 68.5791 519.977 69.1207 519.977C69.473 519.977 69.7912 519.928 70.0753 519.83C70.3632 519.727 70.6113 519.576 70.8196 519.375C71.0279 519.17 71.1889 518.917 71.3026 518.614L72.598 518.977C72.4616 519.417 72.2325 519.803 71.9105 520.136C71.5885 520.466 71.1908 520.723 70.7173 520.909C70.2438 521.091 69.7116 521.182 69.1207 521.182ZM74.7741 521V512.273H76.0696V513.636H76.1832C76.3651 513.17 76.6586 512.809 77.0639 512.551C77.4692 512.29 77.956 512.159 78.5241 512.159C79.0999 512.159 79.5791 512.29 79.9616 512.551C80.348 512.809 80.6491 513.17 80.8651 513.636H80.956C81.1795 513.186 81.5147 512.828 81.9616 512.562C82.4086 512.294 82.9446 512.159 83.5696 512.159C84.3499 512.159 84.9882 512.403 85.4844 512.892C85.9806 513.377 86.2287 514.133 86.2287 515.159V521H84.8878V515.159C84.8878 514.515 84.7116 514.055 84.3594 513.778C84.0071 513.502 83.5923 513.364 83.1151 513.364C82.5014 513.364 82.026 513.549 81.6889 513.92C81.3518 514.288 81.1832 514.754 81.1832 515.318V521H79.8196V515.023C79.8196 514.527 79.6586 514.127 79.3366 513.824C79.0147 513.517 78.5999 513.364 78.0923 513.364C77.7438 513.364 77.4181 513.456 77.1151 513.642C76.8158 513.828 76.5734 514.085 76.3878 514.415C76.206 514.741 76.1151 515.117 76.1151 515.545V521H74.7741ZM93.1804 521V512.273H94.5213V521H93.1804ZM93.8622 510.818C93.6009 510.818 93.3755 510.729 93.1861 510.551C93.0005 510.373 92.9077 510.159 92.9077 509.909C92.9077 509.659 93.0005 509.445 93.1861 509.267C93.3755 509.089 93.6009 509 93.8622 509C94.1236 509 94.3471 509.089 94.5327 509.267C94.7221 509.445 94.8168 509.659 94.8168 509.909C94.8168 510.159 94.7221 510.373 94.5327 510.551C94.3471 510.729 94.1236 510.818 93.8622 510.818ZM96.9773 524.273V512.273H98.2727V513.659H98.4318C98.5303 513.508 98.6667 513.314 98.8409 513.08C99.0189 512.841 99.2727 512.629 99.6023 512.443C99.9356 512.254 100.386 512.159 100.955 512.159C101.689 512.159 102.337 512.343 102.898 512.71C103.458 513.078 103.896 513.598 104.21 514.273C104.525 514.947 104.682 515.742 104.682 516.659C104.682 517.583 104.525 518.384 104.21 519.062C103.896 519.737 103.46 520.259 102.903 520.631C102.347 520.998 101.705 521.182 100.977 521.182C100.417 521.182 99.9678 521.089 99.6307 520.903C99.2936 520.714 99.0341 520.5 98.8523 520.261C98.6705 520.019 98.5303 519.818 98.4318 519.659H98.3182V524.273H96.9773ZM98.2955 516.636C98.2955 517.295 98.392 517.877 98.5852 518.381C98.7784 518.881 99.0606 519.273 99.4318 519.557C99.803 519.837 100.258 519.977 100.795 519.977C101.356 519.977 101.824 519.83 102.199 519.534C102.578 519.235 102.862 518.833 103.051 518.33C103.244 517.822 103.341 517.258 103.341 516.636C103.341 516.023 103.246 515.47 103.057 514.977C102.871 514.481 102.589 514.089 102.21 513.801C101.835 513.509 101.364 513.364 100.795 513.364C100.25 513.364 99.7917 513.502 99.4205 513.778C99.0492 514.051 98.7689 514.434 98.5795 514.926C98.3902 515.415 98.2955 515.985 98.2955 516.636ZM112.909 514.227L111.705 514.568C111.629 514.367 111.517 514.172 111.369 513.983C111.225 513.79 111.028 513.631 110.778 513.506C110.528 513.381 110.208 513.318 109.818 513.318C109.284 513.318 108.839 513.441 108.483 513.688C108.131 513.93 107.955 514.239 107.955 514.614C107.955 514.947 108.076 515.21 108.318 515.403C108.561 515.597 108.939 515.758 109.455 515.886L110.75 516.205C111.53 516.394 112.112 516.684 112.494 517.074C112.877 517.46 113.068 517.958 113.068 518.568C113.068 519.068 112.924 519.515 112.636 519.909C112.352 520.303 111.955 520.614 111.443 520.841C110.932 521.068 110.337 521.182 109.659 521.182C108.769 521.182 108.032 520.989 107.449 520.602C106.866 520.216 106.496 519.652 106.341 518.909L107.614 518.591C107.735 519.061 107.964 519.413 108.301 519.648C108.642 519.883 109.087 520 109.636 520C110.261 520 110.758 519.867 111.125 519.602C111.496 519.333 111.682 519.011 111.682 518.636C111.682 518.333 111.576 518.08 111.364 517.875C111.152 517.667 110.826 517.511 110.386 517.409L108.932 517.068C108.133 516.879 107.545 516.585 107.17 516.188C106.799 515.786 106.614 515.284 106.614 514.682C106.614 514.189 106.752 513.754 107.028 513.375C107.309 512.996 107.689 512.699 108.17 512.483C108.655 512.267 109.205 512.159 109.818 512.159C110.682 512.159 111.36 512.348 111.852 512.727C112.348 513.106 112.701 513.606 112.909 514.227ZM120.587 517.432V512.273H121.928V521H120.587V519.523H120.496C120.291 519.966 119.973 520.343 119.541 520.653C119.109 520.96 118.564 521.114 117.905 521.114C117.359 521.114 116.875 520.994 116.45 520.756C116.026 520.513 115.693 520.15 115.45 519.665C115.208 519.176 115.087 518.561 115.087 517.818V512.273H116.428V517.727C116.428 518.364 116.606 518.871 116.962 519.25C117.321 519.629 117.78 519.818 118.337 519.818C118.67 519.818 119.009 519.733 119.354 519.562C119.702 519.392 119.994 519.131 120.229 518.778C120.467 518.426 120.587 517.977 120.587 517.432ZM124.384 521V512.273H125.679V513.636H125.793C125.974 513.17 126.268 512.809 126.673 512.551C127.079 512.29 127.565 512.159 128.134 512.159C128.709 512.159 129.188 512.29 129.571 512.551C129.957 512.809 130.259 513.17 130.474 513.636H130.565C130.789 513.186 131.124 512.828 131.571 512.562C132.018 512.294 132.554 512.159 133.179 512.159C133.959 512.159 134.598 512.403 135.094 512.892C135.59 513.377 135.838 514.133 135.838 515.159V521H134.497V515.159C134.497 514.515 134.321 514.055 133.969 513.778C133.616 513.502 133.202 513.364 132.724 513.364C132.111 513.364 131.635 513.549 131.298 513.92C130.961 514.288 130.793 514.754 130.793 515.318V521H129.429V515.023C129.429 514.527 129.268 514.127 128.946 513.824C128.624 513.517 128.209 513.364 127.702 513.364C127.353 513.364 127.027 513.456 126.724 513.642C126.425 513.828 126.183 514.085 125.997 514.415C125.815 514.741 125.724 515.117 125.724 515.545V521H124.384Z" fill="black"/>
<rect x="30.5" y="496.5" width="329" height="39" rx="9.5" stroke="#355085"/>
<path d="M31.0114 571V559.364H35.6023C36.4848 559.364 37.2367 559.532 37.858 559.869C38.4792 560.203 38.9527 560.667 39.2784 561.261C39.608 561.852 39.7727 562.534 39.7727 563.307C39.7727 564.08 39.6061 564.761 39.2727 565.352C38.9394 565.943 38.4564 566.403 37.8239 566.733C37.1951 567.062 36.4337 567.227 35.5398 567.227H32.6136V565.256H35.142C35.6155 565.256 36.0057 565.174 36.3125 565.011C36.6231 564.845 36.8542 564.616 37.0057 564.324C37.161 564.028 37.2386 563.689 37.2386 563.307C37.2386 562.92 37.161 562.583 37.0057 562.295C36.8542 562.004 36.6231 561.778 36.3125 561.619C36.0019 561.456 35.608 561.375 35.1307 561.375H33.4716V571H31.0114ZM43.5795 571.165C43.0227 571.165 42.5265 571.068 42.0909 570.875C41.6553 570.678 41.3106 570.388 41.0568 570.006C40.8068 569.619 40.6818 569.138 40.6818 568.562C40.6818 568.078 40.7708 567.67 40.9489 567.341C41.1269 567.011 41.3693 566.746 41.6761 566.545C41.983 566.345 42.3314 566.193 42.7216 566.091C43.1155 565.989 43.5284 565.917 43.9602 565.875C44.4678 565.822 44.8769 565.773 45.1875 565.727C45.4981 565.678 45.7235 565.606 45.8636 565.511C46.0038 565.417 46.0739 565.277 46.0739 565.091V565.057C46.0739 564.697 45.9602 564.419 45.733 564.222C45.5095 564.025 45.1913 563.926 44.7784 563.926C44.3428 563.926 43.9962 564.023 43.7386 564.216C43.4811 564.405 43.3106 564.644 43.2273 564.932L40.9886 564.75C41.1023 564.22 41.3258 563.761 41.6591 563.375C41.9924 562.985 42.4223 562.686 42.9489 562.477C43.4792 562.265 44.0928 562.159 44.7898 562.159C45.2746 562.159 45.7386 562.216 46.1818 562.33C46.6288 562.443 47.0246 562.619 47.3693 562.858C47.7178 563.097 47.9924 563.403 48.1932 563.778C48.3939 564.15 48.4943 564.595 48.4943 565.114V571H46.1989V569.79H46.1307C45.9905 570.062 45.803 570.303 45.5682 570.511C45.3333 570.716 45.0511 570.877 44.7216 570.994C44.392 571.108 44.0114 571.165 43.5795 571.165ZM44.2727 569.494C44.6288 569.494 44.9432 569.424 45.2159 569.284C45.4886 569.14 45.7027 568.947 45.858 568.705C46.0133 568.462 46.0909 568.187 46.0909 567.881V566.955C46.0152 567.004 45.911 567.049 45.7784 567.091C45.6496 567.129 45.5038 567.165 45.3409 567.199C45.178 567.229 45.0152 567.258 44.8523 567.284C44.6894 567.307 44.5417 567.328 44.4091 567.347C44.125 567.388 43.8769 567.455 43.6648 567.545C43.4527 567.636 43.2879 567.759 43.1705 567.915C43.053 568.066 42.9943 568.256 42.9943 568.483C42.9943 568.812 43.1136 569.064 43.3523 569.239C43.5947 569.409 43.9015 569.494 44.2727 569.494ZM57.6335 564.761L55.4176 564.898C55.3797 564.708 55.2983 564.538 55.1733 564.386C55.0483 564.231 54.8835 564.108 54.679 564.017C54.4782 563.922 54.2377 563.875 53.9574 563.875C53.5824 563.875 53.2661 563.955 53.0085 564.114C52.7509 564.269 52.6222 564.477 52.6222 564.739C52.6222 564.947 52.7055 565.123 52.8722 565.267C53.0388 565.411 53.3248 565.527 53.7301 565.614L55.3097 565.932C56.1581 566.106 56.7907 566.386 57.2074 566.773C57.6241 567.159 57.8324 567.667 57.8324 568.295C57.8324 568.867 57.6638 569.369 57.3267 569.801C56.9934 570.233 56.535 570.57 55.9517 570.812C55.3722 571.051 54.7036 571.17 53.946 571.17C52.7907 571.17 51.8703 570.93 51.1847 570.449C50.5028 569.964 50.1032 569.305 49.9858 568.472L52.3665 568.347C52.4384 568.699 52.6127 568.968 52.8892 569.153C53.1657 569.335 53.5199 569.426 53.9517 569.426C54.3759 569.426 54.7169 569.345 54.9744 569.182C55.2358 569.015 55.3684 568.801 55.3722 568.54C55.3684 568.32 55.2756 568.14 55.0938 568C54.9119 567.856 54.6316 567.746 54.2528 567.67L52.7415 567.369C51.8892 567.199 51.2547 566.903 50.8381 566.483C50.4252 566.062 50.2188 565.527 50.2188 564.875C50.2188 564.314 50.3703 563.831 50.6733 563.426C50.9801 563.021 51.41 562.708 51.9631 562.489C52.5199 562.269 53.1714 562.159 53.9176 562.159C55.0199 562.159 55.8873 562.392 56.5199 562.858C57.1563 563.324 57.5275 563.958 57.6335 564.761ZM66.6179 564.761L64.402 564.898C64.3641 564.708 64.2827 564.538 64.1577 564.386C64.0327 564.231 63.8679 564.108 63.6634 564.017C63.4626 563.922 63.2221 563.875 62.9418 563.875C62.5668 563.875 62.2505 563.955 61.9929 564.114C61.7353 564.269 61.6065 564.477 61.6065 564.739C61.6065 564.947 61.6899 565.123 61.8565 565.267C62.0232 565.411 62.3092 565.527 62.7145 565.614L64.294 565.932C65.1425 566.106 65.7751 566.386 66.1918 566.773C66.6084 567.159 66.8168 567.667 66.8168 568.295C66.8168 568.867 66.6482 569.369 66.3111 569.801C65.9777 570.233 65.5194 570.57 64.9361 570.812C64.3565 571.051 63.688 571.17 62.9304 571.17C61.7751 571.17 60.8546 570.93 60.169 570.449C59.4872 569.964 59.0876 569.305 58.9702 568.472L61.3509 568.347C61.4228 568.699 61.5971 568.968 61.8736 569.153C62.1501 569.335 62.5043 569.426 62.9361 569.426C63.3603 569.426 63.7012 569.345 63.9588 569.182C64.2202 569.015 64.3527 568.801 64.3565 568.54C64.3527 568.32 64.2599 568.14 64.0781 568C63.8963 567.856 63.616 567.746 63.2372 567.67L61.7259 567.369C60.8736 567.199 60.2391 566.903 59.8224 566.483C59.4096 566.062 59.2031 565.527 59.2031 564.875C59.2031 564.314 59.3546 563.831 59.6577 563.426C59.9645 563.021 60.3944 562.708 60.9474 562.489C61.5043 562.269 62.1558 562.159 62.902 562.159C64.0043 562.159 64.8717 562.392 65.5043 562.858C66.1406 563.324 66.5118 563.958 66.6179 564.761ZM70.0625 571L67.6875 562.273H70.1364L71.4886 568.136H71.5682L72.9773 562.273H75.3807L76.8125 568.102H76.8864L78.2159 562.273H80.6591L78.2898 571H75.7273L74.2273 565.511H74.1193L72.6193 571H70.0625ZM85.6747 571.17C84.7921 571.17 84.0289 570.983 83.3849 570.608C82.7448 570.229 82.2505 569.703 81.902 569.028C81.5535 568.35 81.3793 567.564 81.3793 566.67C81.3793 565.769 81.5535 564.981 81.902 564.307C82.2505 563.629 82.7448 563.102 83.3849 562.727C84.0289 562.348 84.7921 562.159 85.6747 562.159C86.5573 562.159 87.3187 562.348 87.9588 562.727C88.6027 563.102 89.099 563.629 89.4474 564.307C89.7959 564.981 89.9702 565.769 89.9702 566.67C89.9702 567.564 89.7959 568.35 89.4474 569.028C89.099 569.703 88.6027 570.229 87.9588 570.608C87.3187 570.983 86.5573 571.17 85.6747 571.17ZM85.6861 569.295C86.0876 569.295 86.4228 569.182 86.6918 568.955C86.9607 568.723 87.1634 568.409 87.2997 568.011C87.4399 567.614 87.5099 567.161 87.5099 566.653C87.5099 566.146 87.4399 565.693 87.2997 565.295C87.1634 564.898 86.9607 564.583 86.6918 564.352C86.4228 564.121 86.0876 564.006 85.6861 564.006C85.2808 564.006 84.9399 564.121 84.6634 564.352C84.3906 564.583 84.1842 564.898 84.044 565.295C83.9077 565.693 83.8395 566.146 83.8395 566.653C83.8395 567.161 83.9077 567.614 84.044 568.011C84.1842 568.409 84.3906 568.723 84.6634 568.955C84.9399 569.182 85.2808 569.295 85.6861 569.295ZM91.544 571V562.273H93.8906V563.795H93.9815C94.1406 563.254 94.4077 562.845 94.7827 562.568C95.1577 562.288 95.5895 562.148 96.0781 562.148C96.1993 562.148 96.33 562.155 96.4702 562.17C96.6103 562.186 96.7334 562.206 96.8395 562.233V564.381C96.7259 564.347 96.5687 564.316 96.3679 564.29C96.1671 564.263 95.9834 564.25 95.8168 564.25C95.4607 564.25 95.1425 564.328 94.8622 564.483C94.5857 564.634 94.366 564.847 94.2031 565.119C94.044 565.392 93.9645 565.706 93.9645 566.062V571H91.544ZM100.901 571.142C100.238 571.142 99.6373 570.972 99.0994 570.631C98.5653 570.286 98.1411 569.78 97.8267 569.114C97.5161 568.443 97.3608 567.621 97.3608 566.648C97.3608 565.648 97.5218 564.816 97.8438 564.153C98.1657 563.487 98.5938 562.989 99.1278 562.659C99.6657 562.326 100.255 562.159 100.895 562.159C101.384 562.159 101.791 562.242 102.116 562.409C102.446 562.572 102.711 562.777 102.912 563.023C103.116 563.265 103.272 563.504 103.378 563.739H103.452V559.364H105.866V571H103.48V569.602H103.378C103.264 569.845 103.103 570.085 102.895 570.324C102.69 570.559 102.423 570.754 102.094 570.909C101.768 571.064 101.37 571.142 100.901 571.142ZM101.668 569.216C102.058 569.216 102.387 569.11 102.656 568.898C102.929 568.682 103.137 568.381 103.281 567.994C103.429 567.608 103.503 567.155 103.503 566.636C103.503 566.117 103.431 565.667 103.287 565.284C103.143 564.902 102.935 564.606 102.662 564.398C102.389 564.189 102.058 564.085 101.668 564.085C101.27 564.085 100.935 564.193 100.662 564.409C100.389 564.625 100.183 564.924 100.043 565.307C99.9025 565.689 99.8324 566.133 99.8324 566.636C99.8324 567.144 99.9025 567.593 100.043 567.983C100.187 568.369 100.393 568.672 100.662 568.892C100.935 569.108 101.27 569.216 101.668 569.216ZM109.271 571.148C108.896 571.148 108.574 571.015 108.305 570.75C108.04 570.481 107.908 570.159 107.908 569.784C107.908 569.413 108.04 569.095 108.305 568.83C108.574 568.564 108.896 568.432 109.271 568.432C109.635 568.432 109.953 568.564 110.226 568.83C110.499 569.095 110.635 569.413 110.635 569.784C110.635 570.034 110.571 570.263 110.442 570.472C110.317 570.676 110.152 570.841 109.947 570.966C109.743 571.087 109.518 571.148 109.271 571.148ZM109.271 565.034C108.896 565.034 108.574 564.902 108.305 564.636C108.04 564.371 107.908 564.049 107.908 563.67C107.908 563.299 108.04 562.983 108.305 562.722C108.574 562.456 108.896 562.324 109.271 562.324C109.635 562.324 109.953 562.456 110.226 562.722C110.499 562.983 110.635 563.299 110.635 563.67C110.635 563.924 110.571 564.155 110.442 564.364C110.317 564.568 110.152 564.731 109.947 564.852C109.743 564.973 109.518 565.034 109.271 565.034Z" fill="black"/>
<rect x="30.5" y="575.5" width="329" height="39" rx="9.5" fill="white"/>
<path d="M41.4091 600V588.364H42.8182V598.75H48.2273V600H41.4091ZM53.7727 600.182C52.9848 600.182 52.2936 599.994 51.6989 599.619C51.108 599.244 50.6458 598.72 50.3125 598.045C49.983 597.371 49.8182 596.583 49.8182 595.682C49.8182 594.773 49.983 593.979 50.3125 593.301C50.6458 592.623 51.108 592.097 51.6989 591.722C52.2936 591.347 52.9848 591.159 53.7727 591.159C54.5606 591.159 55.25 591.347 55.8409 591.722C56.4356 592.097 56.8977 592.623 57.2273 593.301C57.5606 593.979 57.7273 594.773 57.7273 595.682C57.7273 596.583 57.5606 597.371 57.2273 598.045C56.8977 598.72 56.4356 599.244 55.8409 599.619C55.25 599.994 54.5606 600.182 53.7727 600.182ZM53.7727 598.977C54.3712 598.977 54.8636 598.824 55.25 598.517C55.6364 598.21 55.9223 597.807 56.108 597.307C56.2936 596.807 56.3864 596.265 56.3864 595.682C56.3864 595.098 56.2936 594.555 56.108 594.051C55.9223 593.547 55.6364 593.14 55.25 592.83C54.8636 592.519 54.3712 592.364 53.7727 592.364C53.1742 592.364 52.6818 592.519 52.2955 592.83C51.9091 593.14 51.6231 593.547 51.4375 594.051C51.2519 594.555 51.1591 595.098 51.1591 595.682C51.1591 596.265 51.2519 596.807 51.4375 597.307C51.6231 597.807 51.9091 598.21 52.2955 598.517C52.6818 598.824 53.1742 598.977 53.7727 598.977ZM59.7741 600V591.273H61.0696V592.591H61.1605C61.3196 592.159 61.6075 591.809 62.0241 591.54C62.4408 591.271 62.9105 591.136 63.4332 591.136C63.5317 591.136 63.6548 591.138 63.8026 591.142C63.9503 591.146 64.062 591.152 64.1378 591.159V592.523C64.0923 592.511 63.9882 592.494 63.8253 592.472C63.6662 592.445 63.4976 592.432 63.3196 592.432C62.8954 592.432 62.5166 592.521 62.1832 592.699C61.8537 592.873 61.5923 593.116 61.3991 593.426C61.2098 593.733 61.1151 594.083 61.1151 594.477V600H59.7741ZM69.1207 600.182C68.2798 600.182 67.5545 599.996 66.9446 599.625C66.3385 599.25 65.8707 598.727 65.5412 598.057C65.2154 597.383 65.0526 596.598 65.0526 595.705C65.0526 594.811 65.2154 594.023 65.5412 593.341C65.8707 592.655 66.3291 592.121 66.9162 591.739C67.5071 591.352 68.1965 591.159 68.9844 591.159C69.4389 591.159 69.8878 591.235 70.331 591.386C70.7741 591.538 71.1776 591.784 71.5412 592.125C71.9048 592.462 72.1946 592.909 72.4105 593.466C72.6264 594.023 72.7344 594.708 72.7344 595.523V596.091H66.0071V594.932H71.3707C71.3707 594.439 71.2723 594 71.0753 593.614C70.8821 593.227 70.6056 592.922 70.2457 592.699C69.8897 592.475 69.4692 592.364 68.9844 592.364C68.4503 592.364 67.9882 592.496 67.598 592.761C67.2116 593.023 66.9143 593.364 66.706 593.784C66.4976 594.205 66.3935 594.655 66.3935 595.136V595.909C66.3935 596.568 66.5071 597.127 66.7344 597.585C66.9654 598.04 67.2855 598.386 67.6946 598.625C68.1037 598.86 68.5791 598.977 69.1207 598.977C69.473 598.977 69.7912 598.928 70.0753 598.83C70.3632 598.727 70.6113 598.576 70.8196 598.375C71.0279 598.17 71.1889 597.917 71.3026 597.614L72.598 597.977C72.4616 598.417 72.2325 598.803 71.9105 599.136C71.5885 599.466 71.1908 599.723 70.7173 599.909C70.2438 600.091 69.7116 600.182 69.1207 600.182ZM74.7741 600V591.273H76.0696V592.636H76.1832C76.3651 592.17 76.6586 591.809 77.0639 591.551C77.4692 591.29 77.956 591.159 78.5241 591.159C79.0999 591.159 79.5791 591.29 79.9616 591.551C80.348 591.809 80.6491 592.17 80.8651 592.636H80.956C81.1795 592.186 81.5147 591.828 81.9616 591.562C82.4086 591.294 82.9446 591.159 83.5696 591.159C84.3499 591.159 84.9882 591.403 85.4844 591.892C85.9806 592.377 86.2287 593.133 86.2287 594.159V600H84.8878V594.159C84.8878 593.515 84.7116 593.055 84.3594 592.778C84.0071 592.502 83.5923 592.364 83.1151 592.364C82.5014 592.364 82.026 592.549 81.6889 592.92C81.3518 593.288 81.1832 593.754 81.1832 594.318V600H79.8196V594.023C79.8196 593.527 79.6586 593.127 79.3366 592.824C79.0147 592.517 78.5999 592.364 78.0923 592.364C77.7438 592.364 77.4181 592.456 77.1151 592.642C76.8158 592.828 76.5734 593.085 76.3878 593.415C76.206 593.741 76.1151 594.117 76.1151 594.545V600H74.7741ZM93.1804 600V591.273H94.5213V600H93.1804ZM93.8622 589.818C93.6009 589.818 93.3755 589.729 93.1861 589.551C93.0005 589.373 92.9077 589.159 92.9077 588.909C92.9077 588.659 93.0005 588.445 93.1861 588.267C93.3755 588.089 93.6009 588 93.8622 588C94.1236 588 94.3471 588.089 94.5327 588.267C94.7221 588.445 94.8168 588.659 94.8168 588.909C94.8168 589.159 94.7221 589.373 94.5327 589.551C94.3471 589.729 94.1236 589.818 93.8622 589.818ZM96.9773 603.273V591.273H98.2727V592.659H98.4318C98.5303 592.508 98.6667 592.314 98.8409 592.08C99.0189 591.841 99.2727 591.629 99.6023 591.443C99.9356 591.254 100.386 591.159 100.955 591.159C101.689 591.159 102.337 591.343 102.898 591.71C103.458 592.078 103.896 592.598 104.21 593.273C104.525 593.947 104.682 594.742 104.682 595.659C104.682 596.583 104.525 597.384 104.21 598.062C103.896 598.737 103.46 599.259 102.903 599.631C102.347 599.998 101.705 600.182 100.977 600.182C100.417 600.182 99.9678 600.089 99.6307 599.903C99.2936 599.714 99.0341 599.5 98.8523 599.261C98.6705 599.019 98.5303 598.818 98.4318 598.659H98.3182V603.273H96.9773ZM98.2955 595.636C98.2955 596.295 98.392 596.877 98.5852 597.381C98.7784 597.881 99.0606 598.273 99.4318 598.557C99.803 598.837 100.258 598.977 100.795 598.977C101.356 598.977 101.824 598.83 102.199 598.534C102.578 598.235 102.862 597.833 103.051 597.33C103.244 596.822 103.341 596.258 103.341 595.636C103.341 595.023 103.246 594.47 103.057 593.977C102.871 593.481 102.589 593.089 102.21 592.801C101.835 592.509 101.364 592.364 100.795 592.364C100.25 592.364 99.7917 592.502 99.4205 592.778C99.0492 593.051 98.7689 593.434 98.5795 593.926C98.3902 594.415 98.2955 594.985 98.2955 595.636ZM112.909 593.227L111.705 593.568C111.629 593.367 111.517 593.172 111.369 592.983C111.225 592.79 111.028 592.631 110.778 592.506C110.528 592.381 110.208 592.318 109.818 592.318C109.284 592.318 108.839 592.441 108.483 592.688C108.131 592.93 107.955 593.239 107.955 593.614C107.955 593.947 108.076 594.21 108.318 594.403C108.561 594.597 108.939 594.758 109.455 594.886L110.75 595.205C111.53 595.394 112.112 595.684 112.494 596.074C112.877 596.46 113.068 596.958 113.068 597.568C113.068 598.068 112.924 598.515 112.636 598.909C112.352 599.303 111.955 599.614 111.443 599.841C110.932 600.068 110.337 600.182 109.659 600.182C108.769 600.182 108.032 599.989 107.449 599.602C106.866 599.216 106.496 598.652 106.341 597.909L107.614 597.591C107.735 598.061 107.964 598.413 108.301 598.648C108.642 598.883 109.087 599 109.636 599C110.261 599 110.758 598.867 111.125 598.602C111.496 598.333 111.682 598.011 111.682 597.636C111.682 597.333 111.576 597.08 111.364 596.875C111.152 596.667 110.826 596.511 110.386 596.409L108.932 596.068C108.133 595.879 107.545 595.585 107.17 595.188C106.799 594.786 106.614 594.284 106.614 593.682C106.614 593.189 106.752 592.754 107.028 592.375C107.309 591.996 107.689 591.699 108.17 591.483C108.655 591.267 109.205 591.159 109.818 591.159C110.682 591.159 111.36 591.348 111.852 591.727C112.348 592.106 112.701 592.606 112.909 593.227ZM120.587 596.432V591.273H121.928V600H120.587V598.523H120.496C120.291 598.966 119.973 599.343 119.541 599.653C119.109 599.96 118.564 600.114 117.905 600.114C117.359 600.114 116.875 599.994 116.45 599.756C116.026 599.513 115.693 599.15 115.45 598.665C115.208 598.176 115.087 597.561 115.087 596.818V591.273H116.428V596.727C116.428 597.364 116.606 597.871 116.962 598.25C117.321 598.629 117.78 598.818 118.337 598.818C118.67 598.818 119.009 598.733 119.354 598.562C119.702 598.392 119.994 598.131 120.229 597.778C120.467 597.426 120.587 596.977 120.587 596.432ZM124.384 600V591.273H125.679V592.636H125.793C125.974 592.17 126.268 591.809 126.673 591.551C127.079 591.29 127.565 591.159 128.134 591.159C128.709 591.159 129.188 591.29 129.571 591.551C129.957 591.809 130.259 592.17 130.474 592.636H130.565C130.789 592.186 131.124 591.828 131.571 591.562C132.018 591.294 132.554 591.159 133.179 591.159C133.959 591.159 134.598 591.403 135.094 591.892C135.59 592.377 135.838 593.133 135.838 594.159V600H134.497V594.159C134.497 593.515 134.321 593.055 133.969 592.778C133.616 592.502 133.202 592.364 132.724 592.364C132.111 592.364 131.635 592.549 131.298 592.92C130.961 593.288 130.793 593.754 130.793 594.318V600H129.429V594.023C129.429 593.527 129.268 593.127 128.946 592.824C128.624 592.517 128.209 592.364 127.702 592.364C127.353 592.364 127.027 592.456 126.724 592.642C126.425 592.828 126.183 593.085 125.997 593.415C125.815 593.741 125.724 594.117 125.724 594.545V600H124.384Z" fill="black"/>
<rect x="30.5" y="575.5" width="329" height="39" rx="9.5" stroke="#355085"/>
<rect x="30" y="635" width="330" height="43" rx="15" fill="#808080"/>
<path d="M175.409 662V650.364H176.818V660.75H182.227V662H175.409ZM187.773 662.182C186.985 662.182 186.294 661.994 185.699 661.619C185.108 661.244 184.646 660.72 184.312 660.045C183.983 659.371 183.818 658.583 183.818 657.682C183.818 656.773 183.983 655.979 184.312 655.301C184.646 654.623 185.108 654.097 185.699 653.722C186.294 653.347 186.985 653.159 187.773 653.159C188.561 653.159 189.25 653.347 189.841 653.722C190.436 654.097 190.898 654.623 191.227 655.301C191.561 655.979 191.727 656.773 191.727 657.682C191.727 658.583 191.561 659.371 191.227 660.045C190.898 660.72 190.436 661.244 189.841 661.619C189.25 661.994 188.561 662.182 187.773 662.182ZM187.773 660.977C188.371 660.977 188.864 660.824 189.25 660.517C189.636 660.21 189.922 659.807 190.108 659.307C190.294 658.807 190.386 658.265 190.386 657.682C190.386 657.098 190.294 656.555 190.108 656.051C189.922 655.547 189.636 655.14 189.25 654.83C188.864 654.519 188.371 654.364 187.773 654.364C187.174 654.364 186.682 654.519 186.295 654.83C185.909 655.14 185.623 655.547 185.438 656.051C185.252 656.555 185.159 657.098 185.159 657.682C185.159 658.265 185.252 658.807 185.438 659.307C185.623 659.807 185.909 660.21 186.295 660.517C186.682 660.824 187.174 660.977 187.773 660.977ZM197.297 665.455C196.649 665.455 196.092 665.371 195.626 665.205C195.161 665.042 194.772 664.826 194.462 664.557C194.155 664.292 193.911 664.008 193.729 663.705L194.797 662.955C194.918 663.114 195.071 663.295 195.257 663.5C195.443 663.708 195.696 663.888 196.018 664.04C196.344 664.195 196.77 664.273 197.297 664.273C198.001 664.273 198.583 664.102 199.041 663.761C199.5 663.42 199.729 662.886 199.729 662.159V660.386H199.615C199.517 660.545 199.376 660.742 199.195 660.977C199.017 661.208 198.759 661.415 198.422 661.597C198.089 661.775 197.638 661.864 197.07 661.864C196.365 661.864 195.732 661.697 195.172 661.364C194.615 661.03 194.174 660.545 193.848 659.909C193.526 659.273 193.365 658.5 193.365 657.591C193.365 656.697 193.522 655.919 193.837 655.256C194.151 654.589 194.589 654.074 195.149 653.71C195.71 653.343 196.357 653.159 197.092 653.159C197.661 653.159 198.111 653.254 198.445 653.443C198.782 653.629 199.039 653.841 199.217 654.08C199.399 654.314 199.539 654.508 199.638 654.659H199.774V653.273H201.07V662.25C201.07 663 200.899 663.61 200.558 664.08C200.221 664.553 199.767 664.9 199.195 665.119C198.626 665.343 197.994 665.455 197.297 665.455ZM197.251 660.659C197.789 660.659 198.244 660.536 198.615 660.29C198.986 660.044 199.268 659.689 199.462 659.227C199.655 658.765 199.751 658.212 199.751 657.568C199.751 656.939 199.657 656.384 199.467 655.903C199.278 655.422 198.998 655.045 198.626 654.773C198.255 654.5 197.797 654.364 197.251 654.364C196.683 654.364 196.21 654.508 195.831 654.795C195.456 655.083 195.174 655.47 194.984 655.955C194.799 656.439 194.706 656.977 194.706 657.568C194.706 658.174 194.801 658.71 194.99 659.176C195.183 659.638 195.467 660.002 195.842 660.267C196.221 660.528 196.691 660.659 197.251 660.659ZM203.524 662V653.273H204.865V662H203.524ZM204.206 651.818C203.945 651.818 203.719 651.729 203.53 651.551C203.344 651.373 203.251 651.159 203.251 650.909C203.251 650.659 203.344 650.445 203.53 650.267C203.719 650.089 203.945 650 204.206 650C204.467 650 204.691 650.089 204.876 650.267C205.066 650.445 205.161 650.659 205.161 650.909C205.161 651.159 205.066 651.373 204.876 651.551C204.691 651.729 204.467 651.818 204.206 651.818ZM208.662 656.75V662H207.321V653.273H208.616V654.636H208.73C208.935 654.193 209.245 653.837 209.662 653.568C210.079 653.295 210.616 653.159 211.276 653.159C211.866 653.159 212.384 653.28 212.827 653.523C213.27 653.761 213.615 654.125 213.861 654.614C214.107 655.098 214.23 655.712 214.23 656.455V662H212.889V656.545C212.889 655.86 212.711 655.326 212.355 654.943C211.999 654.557 211.51 654.364 210.889 654.364C210.461 654.364 210.079 654.456 209.741 654.642C209.408 654.828 209.145 655.098 208.952 655.455C208.759 655.811 208.662 656.242 208.662 656.75Z" fill="white"/>
<path d="M85.6554 723H82.1238V712.091H85.7673C86.8362 712.091 87.7541 712.309 88.5212 712.746C89.2882 713.179 89.8759 713.803 90.2843 714.616C90.6962 715.425 90.9022 716.397 90.9022 717.529C90.9022 718.666 90.6945 719.642 90.279 720.459C89.8671 721.276 89.2705 721.904 88.4892 722.345C87.708 722.782 86.7634 723 85.6554 723ZM83.7698 721.562H85.5649C86.3958 721.562 87.0865 721.406 87.6369 721.093C88.1874 720.777 88.5993 720.321 88.8727 719.724C89.1462 719.124 89.2829 718.392 89.2829 717.529C89.2829 716.674 89.1462 715.947 88.8727 715.351C88.6029 714.754 88.1998 714.301 87.6636 713.993C87.1274 713.684 86.4615 713.529 85.6661 713.529H83.7698V721.562ZM96.2675 723.165C95.5005 723.165 94.8311 722.989 94.2594 722.638C93.6876 722.286 93.2437 721.794 92.9277 721.162C92.6116 720.53 92.4536 719.792 92.4536 718.946C92.4536 718.098 92.6116 717.355 92.9277 716.72C93.2437 716.084 93.6876 715.591 94.2594 715.239C94.8311 714.887 95.5005 714.712 96.2675 714.712C97.0346 714.712 97.704 714.887 98.2757 715.239C98.8474 715.591 99.2913 716.084 99.6074 716.72C99.9234 717.355 100.081 718.098 100.081 718.946C100.081 719.792 99.9234 720.53 99.6074 721.162C99.2913 721.794 98.8474 722.286 98.2757 722.638C97.704 722.989 97.0346 723.165 96.2675 723.165ZM96.2729 721.828C96.77 721.828 97.182 721.697 97.5087 721.434C97.8354 721.171 98.0768 720.821 98.2331 720.385C98.3929 719.948 98.4728 719.467 98.4728 718.941C98.4728 718.419 98.3929 717.94 98.2331 717.503C98.0768 717.062 97.8354 716.709 97.5087 716.443C97.182 716.176 96.77 716.043 96.2729 716.043C95.7722 716.043 95.3567 716.176 95.0264 716.443C94.6997 716.709 94.4565 717.062 94.2967 717.503C94.1404 717.94 94.0623 718.419 94.0623 718.941C94.0623 719.467 94.1404 719.948 94.2967 720.385C94.4565 720.821 94.6997 721.171 95.0264 721.434C95.3567 721.697 95.7722 721.828 96.2729 721.828ZM103.452 718.142V723H101.859V714.818H103.388V716.15H103.489C103.677 715.717 103.972 715.369 104.373 715.106C104.778 714.843 105.288 714.712 105.902 714.712C106.46 714.712 106.948 714.829 107.367 715.063C107.786 715.294 108.111 715.638 108.342 716.097C108.573 716.555 108.688 717.121 108.688 717.796V723H107.095V717.988C107.095 717.395 106.941 716.931 106.632 716.597C106.323 716.26 105.899 716.091 105.359 716.091C104.99 716.091 104.661 716.171 104.373 716.331C104.089 716.491 103.864 716.725 103.697 717.034C103.534 717.339 103.452 717.709 103.452 718.142ZM112.193 712.091V713.114C112.193 713.415 112.136 713.733 112.023 714.067C111.913 714.397 111.756 714.715 111.554 715.021C111.351 715.326 111.114 715.589 110.84 715.809L110.052 715.244C110.261 714.939 110.442 714.614 110.595 714.27C110.751 713.925 110.829 713.545 110.829 713.13V712.091H112.193ZM117.866 714.818V716.097H113.397V714.818H117.866ZM114.595 712.858H116.188V720.598C116.188 720.907 116.234 721.139 116.327 721.295C116.419 721.448 116.538 721.553 116.683 721.61C116.833 721.663 116.994 721.69 117.168 721.69C117.296 721.69 117.408 721.681 117.504 721.663C117.6 721.645 117.674 721.631 117.727 721.62L118.015 722.936C117.923 722.972 117.791 723.007 117.621 723.043C117.451 723.082 117.237 723.103 116.982 723.107C116.563 723.114 116.172 723.039 115.81 722.883C115.448 722.727 115.155 722.485 114.931 722.158C114.707 721.832 114.595 721.422 114.595 720.928V712.858ZM125.19 718.142V723H123.598V712.091H125.169V716.15H125.27C125.462 715.71 125.755 715.36 126.149 715.1C126.543 714.841 127.058 714.712 127.694 714.712C128.255 714.712 128.745 714.827 129.164 715.058C129.587 715.289 129.913 715.633 130.144 716.091C130.378 716.546 130.496 717.114 130.496 717.796V723H128.903V717.988C128.903 717.387 128.748 716.922 128.439 716.592C128.131 716.258 127.701 716.091 127.15 716.091C126.774 716.091 126.437 716.171 126.138 716.331C125.844 716.491 125.611 716.725 125.441 717.034C125.274 717.339 125.19 717.709 125.19 718.142ZM135.002 723.181C134.484 723.181 134.015 723.085 133.596 722.893C133.177 722.698 132.845 722.416 132.6 722.047C132.358 721.677 132.237 721.224 132.237 720.688C132.237 720.227 132.326 719.847 132.504 719.548C132.681 719.25 132.921 719.014 133.223 718.84C133.525 718.666 133.862 718.534 134.235 718.446C134.608 718.357 134.988 718.289 135.375 718.243C135.865 718.186 136.263 718.14 136.568 718.105C136.873 718.066 137.095 718.004 137.234 717.918C137.372 717.833 137.442 717.695 137.442 717.503V717.466C137.442 717 137.31 716.64 137.047 716.384C136.788 716.129 136.401 716.001 135.886 716.001C135.35 716.001 134.927 716.12 134.618 716.358C134.313 716.592 134.102 716.853 133.985 717.141L132.488 716.8C132.665 716.303 132.925 715.901 133.265 715.596C133.61 715.287 134.006 715.063 134.453 714.925C134.901 714.783 135.371 714.712 135.865 714.712C136.192 714.712 136.538 714.751 136.904 714.829C137.273 714.903 137.617 715.042 137.937 715.244C138.26 715.447 138.525 715.736 138.731 716.113C138.937 716.485 139.04 716.97 139.04 717.567V723H137.484V721.881H137.42C137.317 722.087 137.163 722.29 136.957 722.489C136.751 722.687 136.486 722.853 136.163 722.984C135.84 723.115 135.453 723.181 135.002 723.181ZM135.348 721.903C135.789 721.903 136.165 721.816 136.477 721.642C136.794 721.468 137.033 721.24 137.197 720.96C137.364 720.676 137.447 720.372 137.447 720.049V718.994C137.39 719.051 137.28 719.104 137.117 719.154C136.957 719.2 136.774 719.241 136.568 719.277C136.362 719.309 136.161 719.339 135.966 719.367C135.771 719.392 135.607 719.413 135.476 719.431C135.167 719.47 134.885 719.536 134.629 719.628C134.377 719.721 134.175 719.854 134.022 720.028C133.873 720.198 133.798 720.425 133.798 720.71C133.798 721.104 133.944 721.402 134.235 721.604C134.526 721.803 134.897 721.903 135.348 721.903ZM147.867 714.818L144.9 723H143.196L140.223 714.818H141.933L144.005 721.114H144.091L146.157 714.818H147.867ZM152.612 723.165C151.806 723.165 151.112 722.993 150.529 722.648C149.951 722.3 149.503 721.812 149.187 721.184C148.875 720.551 148.718 719.811 148.718 718.962C148.718 718.124 148.875 717.386 149.187 716.746C149.503 716.107 149.943 715.608 150.508 715.25C151.076 714.891 151.74 714.712 152.5 714.712C152.962 714.712 153.409 714.788 153.843 714.941C154.276 715.093 154.665 715.333 155.009 715.66C155.354 715.987 155.625 716.411 155.824 716.933C156.023 717.451 156.122 718.082 156.122 718.824V719.388H149.618V718.195H154.562C154.562 717.776 154.476 717.405 154.306 717.082C154.136 716.755 153.896 716.498 153.587 716.31C153.281 716.121 152.923 716.027 152.511 716.027C152.063 716.027 151.673 716.137 151.339 716.358C151.009 716.574 150.753 716.858 150.572 717.21C150.394 717.558 150.306 717.936 150.306 718.344V719.277C150.306 719.824 150.402 720.289 150.593 720.672C150.789 721.056 151.06 721.349 151.408 721.551C151.756 721.75 152.163 721.849 152.628 721.849C152.93 721.849 153.205 721.807 153.454 721.722C153.702 721.633 153.917 721.501 154.098 721.327C154.279 721.153 154.418 720.939 154.514 720.683L156.021 720.955C155.9 721.398 155.684 721.787 155.371 722.121C155.062 722.451 154.674 722.709 154.205 722.893C153.74 723.075 153.209 723.165 152.612 723.165ZM164.24 723.181C163.722 723.181 163.253 723.085 162.834 722.893C162.415 722.698 162.083 722.416 161.838 722.047C161.596 721.677 161.476 721.224 161.476 720.688C161.476 720.227 161.564 719.847 161.742 719.548C161.92 719.25 162.159 719.014 162.461 718.84C162.763 718.666 163.1 718.534 163.473 718.446C163.846 718.357 164.226 718.289 164.613 718.243C165.103 718.186 165.501 718.14 165.806 718.105C166.112 718.066 166.334 718.004 166.472 717.918C166.611 717.833 166.68 717.695 166.68 717.503V717.466C166.68 717 166.549 716.64 166.286 716.384C166.027 716.129 165.639 716.001 165.125 716.001C164.588 716.001 164.166 716.12 163.857 716.358C163.551 716.592 163.34 716.853 163.223 717.141L161.726 716.8C161.904 716.303 162.163 715.901 162.504 715.596C162.848 715.287 163.244 715.063 163.692 714.925C164.139 714.783 164.61 714.712 165.103 714.712C165.43 714.712 165.776 714.751 166.142 714.829C166.511 714.903 166.856 715.042 167.175 715.244C167.498 715.447 167.763 715.736 167.969 716.113C168.175 716.485 168.278 716.97 168.278 717.567V723H166.723V721.881H166.659C166.556 722.087 166.401 722.29 166.195 722.489C165.989 722.687 165.725 722.853 165.402 722.984C165.078 723.115 164.691 723.181 164.24 723.181ZM164.587 721.903C165.027 721.903 165.403 721.816 165.716 721.642C166.032 721.468 166.272 721.24 166.435 720.96C166.602 720.676 166.685 720.372 166.685 720.049V718.994C166.628 719.051 166.518 719.104 166.355 719.154C166.195 719.2 166.012 719.241 165.806 719.277C165.6 719.309 165.4 719.339 165.204 719.367C165.009 719.392 164.846 719.413 164.714 719.431C164.405 719.47 164.123 719.536 163.867 719.628C163.615 719.721 163.413 719.854 163.26 720.028C163.111 720.198 163.036 720.425 163.036 720.71C163.036 721.104 163.182 721.402 163.473 721.604C163.764 721.803 164.136 721.903 164.587 721.903ZM171.992 718.142V723H170.399V714.818H171.928V716.15H172.029C172.217 715.717 172.512 715.369 172.913 715.106C173.318 714.843 173.828 714.712 174.442 714.712C175 714.712 175.488 714.829 175.907 715.063C176.326 715.294 176.651 715.638 176.882 716.097C177.113 716.555 177.228 717.121 177.228 717.796V723H175.635V717.988C175.635 717.395 175.481 716.931 175.172 716.597C174.863 716.26 174.439 716.091 173.899 716.091C173.53 716.091 173.201 716.171 172.913 716.331C172.629 716.491 172.404 716.725 172.237 717.034C172.074 717.339 171.992 717.709 171.992 718.142ZM185.715 723.181C185.196 723.181 184.728 723.085 184.309 722.893C183.89 722.698 183.558 722.416 183.313 722.047C183.071 721.677 182.95 721.224 182.95 720.688C182.95 720.227 183.039 719.847 183.217 719.548C183.394 719.25 183.634 719.014 183.936 718.84C184.238 718.666 184.575 718.534 184.948 718.446C185.321 718.357 185.701 718.289 186.088 718.243C186.578 718.186 186.976 718.14 187.281 718.105C187.586 718.066 187.808 718.004 187.947 717.918C188.085 717.833 188.155 717.695 188.155 717.503V717.466C188.155 717 188.023 716.64 187.76 716.384C187.501 716.129 187.114 716.001 186.599 716.001C186.063 716.001 185.64 716.12 185.331 716.358C185.026 716.592 184.815 716.853 184.697 717.141L183.201 716.8C183.378 716.303 183.637 715.901 183.978 715.596C184.323 715.287 184.719 715.063 185.166 714.925C185.614 714.783 186.084 714.712 186.578 714.712C186.905 714.712 187.251 714.751 187.617 714.829C187.986 714.903 188.33 715.042 188.65 715.244C188.973 715.447 189.238 715.736 189.444 716.113C189.65 716.485 189.753 716.97 189.753 717.567V723H188.197V721.881H188.133C188.03 722.087 187.876 722.29 187.67 722.489C187.464 722.687 187.199 722.853 186.876 722.984C186.553 723.115 186.166 723.181 185.715 723.181ZM186.061 721.903C186.501 721.903 186.878 721.816 187.19 721.642C187.506 721.468 187.746 721.24 187.909 720.96C188.076 720.676 188.16 720.372 188.16 720.049V718.994C188.103 719.051 187.993 719.104 187.83 719.154C187.67 719.2 187.487 719.241 187.281 719.277C187.075 719.309 186.874 719.339 186.679 719.367C186.484 719.392 186.32 719.413 186.189 719.431C185.88 719.47 185.598 719.536 185.342 719.628C185.09 719.721 184.887 719.854 184.735 720.028C184.586 720.198 184.511 720.425 184.511 720.71C184.511 721.104 184.657 721.402 184.948 721.604C185.239 721.803 185.61 721.903 186.061 721.903ZM195.32 723.165C194.528 723.165 193.847 722.986 193.275 722.627C192.707 722.265 192.27 721.766 191.964 721.13C191.659 720.495 191.506 719.767 191.506 718.946C191.506 718.115 191.663 717.382 191.975 716.746C192.288 716.107 192.728 715.608 193.296 715.25C193.864 714.891 194.534 714.712 195.304 714.712C195.926 714.712 196.48 714.827 196.966 715.058C197.453 715.285 197.845 715.605 198.143 716.017C198.445 716.429 198.625 716.91 198.681 717.46H197.131C197.046 717.077 196.851 716.746 196.545 716.469C196.244 716.192 195.839 716.054 195.331 716.054C194.887 716.054 194.498 716.171 194.164 716.406C193.834 716.636 193.577 716.967 193.392 717.396C193.207 717.822 193.115 718.327 193.115 718.909C193.115 719.506 193.206 720.021 193.387 720.454C193.568 720.887 193.823 721.223 194.154 721.461C194.488 721.699 194.88 721.817 195.331 721.817C195.633 721.817 195.906 721.762 196.151 721.652C196.4 721.539 196.608 721.377 196.774 721.168C196.945 720.958 197.064 720.706 197.131 720.411H198.681C198.625 720.94 198.452 721.413 198.165 721.828C197.877 722.244 197.492 722.57 197.009 722.808C196.529 723.046 195.967 723.165 195.32 723.165ZM203.831 723.165C203.039 723.165 202.357 722.986 201.786 722.627C201.217 722.265 200.781 721.766 200.475 721.13C200.17 720.495 200.017 719.767 200.017 718.946C200.017 718.115 200.173 717.382 200.486 716.746C200.798 716.107 201.239 715.608 201.807 715.25C202.375 714.891 203.044 714.712 203.815 714.712C204.436 714.712 204.99 714.827 205.477 715.058C205.963 715.285 206.356 715.605 206.654 716.017C206.956 716.429 207.135 716.91 207.192 717.46H205.642C205.557 717.077 205.362 716.746 205.056 716.469C204.754 716.192 204.349 716.054 203.842 716.054C203.398 716.054 203.009 716.171 202.675 716.406C202.345 716.636 202.087 716.967 201.903 717.396C201.718 717.822 201.626 718.327 201.626 718.909C201.626 719.506 201.716 720.021 201.897 720.454C202.079 720.887 202.334 721.223 202.664 721.461C202.998 721.699 203.391 721.817 203.842 721.817C204.144 721.817 204.417 721.762 204.662 721.652C204.911 721.539 205.118 721.377 205.285 721.168C205.456 720.958 205.575 720.706 205.642 720.411H207.192C207.135 720.94 206.963 721.413 206.675 721.828C206.388 722.244 206.003 722.57 205.52 722.808C205.04 723.046 204.477 723.165 203.831 723.165ZM212.342 723.165C211.575 723.165 210.905 722.989 210.334 722.638C209.762 722.286 209.318 721.794 209.002 721.162C208.686 720.53 208.528 719.792 208.528 718.946C208.528 718.098 208.686 717.355 209.002 716.72C209.318 716.084 209.762 715.591 210.334 715.239C210.905 714.887 211.575 714.712 212.342 714.712C213.109 714.712 213.778 714.887 214.35 715.239C214.922 715.591 215.366 716.084 215.682 716.72C215.998 717.355 216.156 718.098 216.156 718.946C216.156 719.792 215.998 720.53 215.682 721.162C215.366 721.794 214.922 722.286 214.35 722.638C213.778 722.989 213.109 723.165 212.342 723.165ZM212.347 721.828C212.844 721.828 213.256 721.697 213.583 721.434C213.91 721.171 214.151 720.821 214.307 720.385C214.467 719.948 214.547 719.467 214.547 718.941C214.547 718.419 214.467 717.94 214.307 717.503C214.151 717.062 213.91 716.709 213.583 716.443C213.256 716.176 212.844 716.043 212.347 716.043C211.846 716.043 211.431 716.176 211.101 716.443C210.774 716.709 210.531 717.062 210.371 717.503C210.215 717.94 210.136 718.419 210.136 718.941C210.136 719.467 210.215 719.948 210.371 720.385C210.531 720.821 210.774 721.171 211.101 721.434C211.431 721.697 211.846 721.828 212.347 721.828ZM223.116 719.607V714.818H224.714V723H223.148V721.583H223.063C222.875 722.02 222.573 722.384 222.158 722.675C221.746 722.963 221.232 723.107 220.618 723.107C220.093 723.107 219.627 722.991 219.223 722.76C218.821 722.526 218.505 722.18 218.274 721.722C218.047 721.263 217.933 720.697 217.933 720.022V714.818H219.526V719.831C219.526 720.388 219.681 720.832 219.99 721.162C220.299 721.493 220.7 721.658 221.193 721.658C221.492 721.658 221.788 721.583 222.083 721.434C222.381 721.285 222.628 721.059 222.823 720.757C223.022 720.456 223.12 720.072 223.116 719.607ZM228.447 718.142V723H226.854V714.818H228.383V716.15H228.484C228.673 715.717 228.967 715.369 229.369 715.106C229.773 714.843 230.283 714.712 230.897 714.712C231.455 714.712 231.943 714.829 232.362 715.063C232.781 715.294 233.106 715.638 233.337 716.097C233.568 716.555 233.683 717.121 233.683 717.796V723H232.091V717.988C232.091 717.395 231.936 716.931 231.627 716.597C231.318 716.26 230.894 716.091 230.354 716.091C229.985 716.091 229.656 716.171 229.369 716.331C229.084 716.491 228.859 716.725 228.692 717.034C228.529 717.339 228.447 717.709 228.447 718.142ZM239.638 714.818V716.097H235.169V714.818H239.638ZM236.368 712.858H237.961V720.598C237.961 720.907 238.007 721.139 238.099 721.295C238.191 721.448 238.31 721.553 238.456 721.61C238.605 721.663 238.767 721.69 238.941 721.69C239.068 721.69 239.18 721.681 239.276 721.663C239.372 721.645 239.447 721.631 239.5 721.62L239.788 722.936C239.695 722.972 239.564 723.007 239.393 723.043C239.223 723.082 239.01 723.103 238.754 723.107C238.335 723.114 237.945 723.039 237.582 722.883C237.22 722.727 236.927 722.485 236.703 722.158C236.48 721.832 236.368 721.422 236.368 720.928V712.858ZM243.142 719.863V719.761C243.149 719.101 243.215 718.575 243.339 718.185C243.467 717.794 243.648 717.478 243.883 717.237C244.117 716.995 244.399 716.775 244.729 716.576C244.943 716.441 245.134 716.29 245.305 716.123C245.475 715.956 245.61 715.765 245.71 715.548C245.809 715.331 245.859 715.092 245.859 714.829C245.859 714.513 245.784 714.239 245.635 714.009C245.486 713.778 245.287 713.6 245.038 713.476C244.793 713.348 244.52 713.284 244.218 713.284C243.945 713.284 243.684 713.341 243.435 713.455C243.186 713.568 242.981 713.746 242.817 713.987C242.654 714.225 242.56 714.532 242.535 714.909H240.916C240.94 714.27 241.102 713.73 241.4 713.289C241.699 712.846 242.093 712.51 242.583 712.283C243.076 712.055 243.621 711.942 244.218 711.942C244.871 711.942 245.443 712.064 245.933 712.309C246.423 712.551 246.803 712.89 247.073 713.327C247.347 713.76 247.483 714.266 247.483 714.845C247.483 715.243 247.421 715.601 247.297 715.921C247.173 716.237 246.995 716.519 246.764 716.768C246.537 717.016 246.264 717.237 245.944 717.428C245.642 717.616 245.397 717.812 245.209 718.014C245.024 718.217 244.889 718.456 244.804 718.733C244.719 719.01 244.673 719.353 244.666 719.761V719.863H243.142ZM243.946 723.101C243.655 723.101 243.405 722.998 243.195 722.792C242.986 722.583 242.881 722.331 242.881 722.036C242.881 721.745 242.986 721.496 243.195 721.29C243.405 721.081 243.655 720.976 243.946 720.976C244.234 720.976 244.483 721.081 244.692 721.29C244.905 721.496 245.012 721.745 245.012 722.036C245.012 722.231 244.962 722.411 244.863 722.574C244.767 722.734 244.639 722.862 244.479 722.957C244.319 723.053 244.142 723.101 243.946 723.101ZM259.295 715.228C259.253 714.799 259.07 714.465 258.747 714.227C258.424 713.989 257.985 713.87 257.431 713.87C257.055 713.87 256.737 713.923 256.477 714.03C256.218 714.133 256.019 714.277 255.881 714.461C255.746 714.646 255.678 714.855 255.678 715.09C255.671 715.285 255.712 715.456 255.801 715.601C255.893 715.747 256.019 715.873 256.179 715.979C256.339 716.082 256.524 716.173 256.733 716.251C256.943 716.326 257.166 716.39 257.404 716.443L258.384 716.677C258.86 716.784 259.297 716.926 259.695 717.103C260.093 717.281 260.437 717.499 260.728 717.759C261.019 718.018 261.245 718.323 261.405 718.675C261.568 719.026 261.652 719.429 261.655 719.884C261.652 720.551 261.481 721.13 261.144 721.62C260.81 722.107 260.327 722.485 259.695 722.755C259.066 723.021 258.308 723.154 257.42 723.154C256.54 723.154 255.773 723.02 255.119 722.75C254.469 722.48 253.962 722.08 253.596 721.551C253.234 721.018 253.044 720.36 253.026 719.575H255.258C255.283 719.941 255.387 720.246 255.572 720.491C255.76 720.733 256.011 720.915 256.323 721.04C256.639 721.161 256.996 721.221 257.394 721.221C257.784 721.221 258.123 721.164 258.411 721.05C258.702 720.937 258.928 720.779 259.088 720.576C259.247 720.374 259.327 720.141 259.327 719.879C259.327 719.634 259.254 719.428 259.109 719.261C258.967 719.094 258.757 718.952 258.48 718.835C258.207 718.717 257.871 718.611 257.474 718.515L256.286 718.217C255.366 717.993 254.64 717.643 254.107 717.167C253.574 716.691 253.31 716.05 253.313 715.244C253.31 714.584 253.486 714.007 253.841 713.513C254.199 713.02 254.691 712.634 255.316 712.357C255.941 712.08 256.652 711.942 257.447 711.942C258.257 711.942 258.963 712.08 259.567 712.357C260.174 712.634 260.647 713.02 260.984 713.513C261.321 714.007 261.495 714.578 261.506 715.228H259.295ZM263.164 723V714.818H265.433V723H263.164ZM264.304 713.763C263.966 713.763 263.677 713.652 263.436 713.428C263.198 713.201 263.079 712.929 263.079 712.613C263.079 712.3 263.198 712.032 263.436 711.809C263.677 711.581 263.966 711.468 264.304 711.468C264.641 711.468 264.929 711.581 265.167 711.809C265.408 712.032 265.529 712.3 265.529 712.613C265.529 712.929 265.408 713.201 265.167 713.428C264.929 713.652 264.641 713.763 264.304 713.763ZM270.937 726.239C270.202 726.239 269.571 726.137 269.046 725.935C268.524 725.736 268.108 725.464 267.799 725.12C267.49 724.776 267.29 724.388 267.197 723.959L269.296 723.676C269.36 723.84 269.461 723.993 269.6 724.135C269.738 724.277 269.921 724.39 270.148 724.475C270.379 724.564 270.66 724.609 270.99 724.609C271.484 724.609 271.89 724.488 272.21 724.246C272.533 724.009 272.695 723.609 272.695 723.048V721.551H272.599C272.499 721.778 272.35 721.993 272.151 722.196C271.952 722.398 271.697 722.563 271.384 722.691C271.072 722.819 270.699 722.883 270.266 722.883C269.651 722.883 269.092 722.741 268.588 722.457C268.087 722.169 267.688 721.73 267.389 721.141C267.095 720.548 266.947 719.799 266.947 718.893C266.947 717.966 267.098 717.192 267.4 716.571C267.702 715.949 268.103 715.484 268.604 715.175C269.108 714.866 269.66 714.712 270.26 714.712C270.718 714.712 271.102 714.79 271.411 714.946C271.72 715.099 271.968 715.29 272.157 715.521C272.348 715.749 272.496 715.972 272.599 716.192H272.684V714.818H274.937V723.08C274.937 723.776 274.767 724.358 274.426 724.827C274.085 725.296 273.613 725.647 273.009 725.882C272.409 726.12 271.718 726.239 270.937 726.239ZM270.985 721.178C271.351 721.178 271.659 721.088 271.912 720.907C272.167 720.722 272.363 720.459 272.498 720.118C272.636 719.774 272.705 719.362 272.705 718.882C272.705 718.403 272.638 717.988 272.503 717.636C272.368 717.281 272.173 717.006 271.917 716.81C271.661 716.615 271.351 716.517 270.985 716.517C270.612 716.517 270.298 716.619 270.042 716.821C269.786 717.02 269.593 717.297 269.461 717.652C269.33 718.007 269.264 718.417 269.264 718.882C269.264 719.355 269.33 719.763 269.461 720.108C269.596 720.449 269.79 720.713 270.042 720.901C270.298 721.086 270.612 721.178 270.985 721.178ZM279.012 718.27V723H276.743V714.818H278.906V716.262H279.001C279.183 715.786 279.486 715.409 279.912 715.132C280.338 714.852 280.855 714.712 281.462 714.712C282.031 714.712 282.526 714.836 282.949 715.085C283.371 715.333 283.7 715.688 283.934 716.15C284.168 716.608 284.286 717.155 284.286 717.79V723H282.016V718.195C282.02 717.695 281.892 717.304 281.633 717.023C281.374 716.739 281.017 716.597 280.562 716.597C280.257 716.597 279.987 716.663 279.753 716.794C279.522 716.926 279.341 717.118 279.209 717.37C279.081 717.618 279.016 717.918 279.012 718.27ZM296.327 712.091H298.633V719.175C298.633 719.971 298.443 720.667 298.063 721.263C297.687 721.86 297.159 722.325 296.481 722.659C295.803 722.989 295.013 723.154 294.111 723.154C293.205 723.154 292.413 722.989 291.735 722.659C291.057 722.325 290.529 721.86 290.153 721.263C289.777 720.667 289.588 719.971 289.588 719.175V712.091H291.895V718.978C291.895 719.394 291.985 719.763 292.166 720.086C292.351 720.409 292.61 720.663 292.944 720.848C293.278 721.033 293.667 721.125 294.111 721.125C294.558 721.125 294.947 721.033 295.277 720.848C295.611 720.663 295.868 720.409 296.05 720.086C296.234 719.763 296.327 719.394 296.327 718.978V712.091ZM300.488 726.068V714.818H302.725V716.192H302.826C302.926 715.972 303.07 715.749 303.258 715.521C303.45 715.29 303.698 715.099 304.004 714.946C304.313 714.79 304.696 714.712 305.154 714.712C305.751 714.712 306.301 714.868 306.806 715.18C307.31 715.489 307.713 715.956 308.015 716.581C308.317 717.203 308.467 717.982 308.467 718.92C308.467 719.832 308.32 720.603 308.025 721.232C307.734 721.857 307.336 722.331 306.832 722.654C306.331 722.973 305.77 723.133 305.149 723.133C304.709 723.133 304.334 723.06 304.025 722.915C303.72 722.769 303.469 722.586 303.274 722.366C303.079 722.142 302.929 721.917 302.826 721.69H302.757V726.068H300.488ZM302.709 718.909C302.709 719.396 302.777 719.82 302.912 720.182C303.047 720.544 303.242 720.827 303.498 721.029C303.753 721.228 304.064 721.327 304.43 721.327C304.799 721.327 305.112 721.226 305.367 721.024C305.623 720.818 305.817 720.534 305.948 720.172C306.083 719.806 306.15 719.385 306.15 718.909C306.15 718.437 306.085 718.021 305.953 717.663C305.822 717.304 305.628 717.023 305.373 716.821C305.117 716.619 304.803 716.517 304.43 716.517C304.061 716.517 303.748 716.615 303.492 716.81C303.24 717.006 303.047 717.283 302.912 717.641C302.777 718 302.709 718.423 302.709 718.909Z" fill="black"/>
</svg>
