<svg width="1363" height="167" viewBox="0 0 1363 167" fill="none" xmlns="http://www.w3.org/2000/svg">
<rect width="1363" height="167" rx="15" fill="#F0F0F0"/>
<path d="M0 15C0 6.71573 6.71573 0 15 0H37V167H15C6.71573 167 0 160.284 0 152V15Z" fill="#424241"/>
<path d="M100.906 54.9219L93.3945 52.2383V49.0859L103.602 53.375V55.6367L100.906 54.9219ZM93.3945 57.1719L100.918 54.4297L103.602 53.7852V56.0352L93.3945 60.3242V57.1719ZM120.781 57.5352C120.781 57.2305 120.734 56.957 120.641 56.7148C120.555 56.4648 120.391 56.2383 120.148 56.0352C119.906 55.8242 119.566 55.6172 119.129 55.4141C118.691 55.2109 118.125 55 117.43 54.7812C116.656 54.5312 115.922 54.25 115.227 53.9375C114.539 53.625 113.93 53.2617 113.398 52.8477C112.875 52.4258 112.461 51.9375 112.156 51.3828C111.859 50.8281 111.711 50.1836 111.711 49.4492C111.711 48.7383 111.867 48.0938 112.18 47.5156C112.492 46.9297 112.93 46.4297 113.492 46.0156C114.055 45.5938 114.719 45.2695 115.484 45.043C116.258 44.8164 117.105 44.7031 118.027 44.7031C119.285 44.7031 120.383 44.9297 121.32 45.3828C122.258 45.8359 122.984 46.457 123.5 47.2461C124.023 48.0352 124.285 48.9375 124.285 49.9531H120.793C120.793 49.4531 120.688 49.0156 120.477 48.6406C120.273 48.2578 119.961 47.957 119.539 47.7383C119.125 47.5195 118.602 47.4102 117.969 47.4102C117.359 47.4102 116.852 47.5039 116.445 47.6914C116.039 47.8711 115.734 48.1172 115.531 48.4297C115.328 48.7344 115.227 49.0781 115.227 49.4609C115.227 49.75 115.297 50.0117 115.438 50.2461C115.586 50.4805 115.805 50.6992 116.094 50.9023C116.383 51.1055 116.738 51.2969 117.16 51.4766C117.582 51.6562 118.07 51.832 118.625 52.0039C119.555 52.2852 120.371 52.6016 121.074 52.9531C121.785 53.3047 122.379 53.6992 122.855 54.1367C123.332 54.5742 123.691 55.0703 123.934 55.625C124.176 56.1797 124.297 56.8086 124.297 57.5117C124.297 58.2539 124.152 58.918 123.863 59.5039C123.574 60.0898 123.156 60.5859 122.609 60.9922C122.062 61.3984 121.41 61.707 120.652 61.918C119.895 62.1289 119.047 62.2344 118.109 62.2344C117.266 62.2344 116.434 62.125 115.613 61.9062C114.793 61.6797 114.047 61.3398 113.375 60.8867C112.711 60.4336 112.18 59.8555 111.781 59.1523C111.383 58.4492 111.184 57.6172 111.184 56.6562H114.711C114.711 57.1875 114.793 57.6367 114.957 58.0039C115.121 58.3711 115.352 58.668 115.648 58.8945C115.953 59.1211 116.312 59.2852 116.727 59.3867C117.148 59.4883 117.609 59.5391 118.109 59.5391C118.719 59.5391 119.219 59.4531 119.609 59.2812C120.008 59.1094 120.301 58.8711 120.488 58.5664C120.684 58.2617 120.781 57.918 120.781 57.5352ZM129.77 44V62H126.395V44H129.77ZM129.289 55.2148H128.363C128.371 54.332 128.488 53.5195 128.715 52.7773C128.941 52.0273 129.266 51.3789 129.688 50.832C130.109 50.2773 130.613 49.8477 131.199 49.543C131.793 49.2383 132.449 49.0859 133.168 49.0859C133.793 49.0859 134.359 49.1758 134.867 49.3555C135.383 49.5273 135.824 49.8086 136.191 50.1992C136.566 50.582 136.855 51.0859 137.059 51.7109C137.262 52.3359 137.363 53.0938 137.363 53.9844V62H133.965V53.9609C133.965 53.3984 133.883 52.957 133.719 52.6367C133.562 52.3086 133.332 52.0781 133.027 51.9453C132.73 51.8047 132.363 51.7344 131.926 51.7344C131.441 51.7344 131.027 51.8242 130.684 52.0039C130.348 52.1836 130.078 52.4336 129.875 52.7539C129.672 53.0664 129.523 53.4336 129.43 53.8555C129.336 54.2773 129.289 54.7305 129.289 55.2148ZM146.773 59.1406V53.4922C146.773 53.0859 146.707 52.7383 146.574 52.4492C146.441 52.1523 146.234 51.9219 145.953 51.7578C145.68 51.5938 145.324 51.5117 144.887 51.5117C144.512 51.5117 144.188 51.5781 143.914 51.7109C143.641 51.8359 143.43 52.0195 143.281 52.2617C143.133 52.4961 143.059 52.7734 143.059 53.0938H139.684C139.684 52.5547 139.809 52.043 140.059 51.5586C140.309 51.0742 140.672 50.6484 141.148 50.2812C141.625 49.9062 142.191 49.6133 142.848 49.4023C143.512 49.1914 144.254 49.0859 145.074 49.0859C146.059 49.0859 146.934 49.25 147.699 49.5781C148.465 49.9062 149.066 50.3984 149.504 51.0547C149.949 51.7109 150.172 52.5312 150.172 53.5156V58.9414C150.172 59.6367 150.215 60.207 150.301 60.6523C150.387 61.0898 150.512 61.4727 150.676 61.8008V62H147.266C147.102 61.6562 146.977 61.2266 146.891 60.7109C146.812 60.1875 146.773 59.6641 146.773 59.1406ZM147.219 54.2773L147.242 56.1875H145.355C144.91 56.1875 144.523 56.2383 144.195 56.3398C143.867 56.4414 143.598 56.5859 143.387 56.7734C143.176 56.9531 143.02 57.1641 142.918 57.4062C142.824 57.6484 142.777 57.9141 142.777 58.2031C142.777 58.4922 142.844 58.7539 142.977 58.9883C143.109 59.2148 143.301 59.3945 143.551 59.5273C143.801 59.6523 144.094 59.7148 144.43 59.7148C144.938 59.7148 145.379 59.6133 145.754 59.4102C146.129 59.207 146.418 58.957 146.621 58.6602C146.832 58.3633 146.941 58.082 146.949 57.8164L147.84 59.2461C147.715 59.5664 147.543 59.8984 147.324 60.2422C147.113 60.5859 146.844 60.9102 146.516 61.2148C146.188 61.5117 145.793 61.7578 145.332 61.9531C144.871 62.1406 144.324 62.2344 143.691 62.2344C142.887 62.2344 142.156 62.0742 141.5 61.7539C140.852 61.4258 140.336 60.9766 139.953 60.4062C139.578 59.8281 139.391 59.1719 139.391 58.4375C139.391 57.7734 139.516 57.1836 139.766 56.668C140.016 56.1523 140.383 55.7188 140.867 55.3672C141.359 55.0078 141.973 54.7383 142.707 54.5586C143.441 54.3711 144.293 54.2773 145.262 54.2773H147.219ZM156.148 51.7578V66.875H152.773V49.3203H155.902L156.148 51.7578ZM164.176 55.5195V55.7656C164.176 56.6875 164.066 57.543 163.848 58.332C163.637 59.1211 163.324 59.8086 162.91 60.3945C162.496 60.9727 161.98 61.4258 161.363 61.7539C160.754 62.0742 160.051 62.2344 159.254 62.2344C158.48 62.2344 157.809 62.0781 157.238 61.7656C156.668 61.4531 156.188 61.0156 155.797 60.4531C155.414 59.8828 155.105 59.2227 154.871 58.4727C154.637 57.7227 154.457 56.918 154.332 56.0586V55.4141C154.457 54.4922 154.637 53.6484 154.871 52.8828C155.105 52.1094 155.414 51.4414 155.797 50.8789C156.188 50.3086 156.664 49.8672 157.227 49.5547C157.797 49.2422 158.465 49.0859 159.23 49.0859C160.035 49.0859 160.742 49.2383 161.352 49.543C161.969 49.8477 162.484 50.2852 162.898 50.8555C163.32 51.4258 163.637 52.1055 163.848 52.8945C164.066 53.6836 164.176 54.5586 164.176 55.5195ZM160.789 55.7656V55.5195C160.789 54.9805 160.742 54.4844 160.648 54.0312C160.562 53.5703 160.422 53.168 160.227 52.8242C160.039 52.4805 159.789 52.2148 159.477 52.0273C159.172 51.832 158.801 51.7344 158.363 51.7344C157.902 51.7344 157.508 51.8086 157.18 51.957C156.859 52.1055 156.598 52.3203 156.395 52.6016C156.191 52.8828 156.039 53.2188 155.938 53.6094C155.836 54 155.773 54.4414 155.75 54.9336V56.5625C155.789 57.1406 155.898 57.6602 156.078 58.1211C156.258 58.5742 156.535 58.9336 156.91 59.1992C157.285 59.4648 157.777 59.5977 158.387 59.5977C158.832 59.5977 159.207 59.5 159.512 59.3047C159.816 59.1016 160.062 58.8242 160.25 58.4727C160.445 58.1211 160.582 57.7148 160.66 57.2539C160.746 56.793 160.789 56.2969 160.789 55.7656ZM172.109 62.2344C171.125 62.2344 170.242 62.0781 169.461 61.7656C168.68 61.4453 168.016 61.0039 167.469 60.4414C166.93 59.8789 166.516 59.2266 166.227 58.4844C165.938 57.7344 165.793 56.9375 165.793 56.0938V55.625C165.793 54.6641 165.93 53.7852 166.203 52.9883C166.477 52.1914 166.867 51.5 167.375 50.9141C167.891 50.3281 168.516 49.8789 169.25 49.5664C169.984 49.2461 170.812 49.0859 171.734 49.0859C172.633 49.0859 173.43 49.2344 174.125 49.5312C174.82 49.8281 175.402 50.25 175.871 50.7969C176.348 51.3438 176.707 52 176.949 52.7656C177.191 53.5234 177.312 54.3672 177.312 55.2969V56.7031H167.234V54.4531H173.996V54.1953C173.996 53.7266 173.91 53.3086 173.738 52.9414C173.574 52.5664 173.324 52.2695 172.988 52.0508C172.652 51.832 172.223 51.7227 171.699 51.7227C171.254 51.7227 170.871 51.8203 170.551 52.0156C170.23 52.2109 169.969 52.4844 169.766 52.8359C169.57 53.1875 169.422 53.6016 169.32 54.0781C169.227 54.5469 169.18 55.0625 169.18 55.625V56.0938C169.18 56.6016 169.25 57.0703 169.391 57.5C169.539 57.9297 169.746 58.3008 170.012 58.6133C170.285 58.9258 170.613 59.168 170.996 59.3398C171.387 59.5117 171.828 59.5977 172.32 59.5977C172.93 59.5977 173.496 59.4805 174.02 59.2461C174.551 59.0039 175.008 58.6406 175.391 58.1562L177.031 59.9375C176.766 60.3203 176.402 60.6875 175.941 61.0391C175.488 61.3906 174.941 61.6797 174.301 61.9062C173.66 62.125 172.93 62.2344 172.109 62.2344ZM186.09 58.4961C186.09 58.2539 186.02 58.0352 185.879 57.8398C185.738 57.6445 185.477 57.4648 185.094 57.3008C184.719 57.1289 184.176 56.9727 183.465 56.832C182.824 56.6914 182.227 56.5156 181.672 56.3047C181.125 56.0859 180.648 55.8242 180.242 55.5195C179.844 55.2148 179.531 54.8555 179.305 54.4414C179.078 54.0195 178.965 53.5391 178.965 53C178.965 52.4688 179.078 51.9688 179.305 51.5C179.539 51.0312 179.871 50.6172 180.301 50.2578C180.738 49.8906 181.27 49.6055 181.895 49.4023C182.527 49.1914 183.238 49.0859 184.027 49.0859C185.129 49.0859 186.074 49.2617 186.863 49.6133C187.66 49.9648 188.27 50.4492 188.691 51.0664C189.121 51.6758 189.336 52.3711 189.336 53.1523H185.961C185.961 52.8242 185.891 52.5312 185.75 52.2734C185.617 52.0078 185.406 51.8008 185.117 51.6523C184.836 51.4961 184.469 51.418 184.016 51.418C183.641 51.418 183.316 51.4844 183.043 51.6172C182.77 51.7422 182.559 51.9141 182.41 52.1328C182.27 52.3438 182.199 52.5781 182.199 52.8359C182.199 53.0312 182.238 53.207 182.316 53.3633C182.402 53.5117 182.539 53.6484 182.727 53.7734C182.914 53.8984 183.156 54.0156 183.453 54.125C183.758 54.2266 184.133 54.3203 184.578 54.4062C185.492 54.5938 186.309 54.8398 187.027 55.1445C187.746 55.4414 188.316 55.8477 188.738 56.3633C189.16 56.8711 189.371 57.5391 189.371 58.3672C189.371 58.9297 189.246 59.4453 188.996 59.9141C188.746 60.3828 188.387 60.793 187.918 61.1445C187.449 61.4883 186.887 61.7578 186.23 61.9531C185.582 62.1406 184.852 62.2344 184.039 62.2344C182.859 62.2344 181.859 62.0234 181.039 61.6016C180.227 61.1797 179.609 60.6445 179.188 59.9961C178.773 59.3398 178.566 58.668 178.566 57.9805H181.766C181.781 58.4414 181.898 58.8125 182.117 59.0938C182.344 59.375 182.629 59.5781 182.973 59.7031C183.324 59.8281 183.703 59.8906 184.109 59.8906C184.547 59.8906 184.91 59.832 185.199 59.7148C185.488 59.5898 185.707 59.4258 185.855 59.2227C186.012 59.0117 186.09 58.7695 186.09 58.4961ZM211.766 53.0703V53.8789C211.766 55.1758 211.59 56.3398 211.238 57.3711C210.887 58.4023 210.391 59.2812 209.75 60.0078C209.109 60.7266 208.344 61.2773 207.453 61.6602C206.57 62.043 205.59 62.2344 204.512 62.2344C203.441 62.2344 202.461 62.043 201.57 61.6602C200.688 61.2773 199.922 60.7266 199.273 60.0078C198.625 59.2812 198.121 58.4023 197.762 57.3711C197.41 56.3398 197.234 55.1758 197.234 53.8789V53.0703C197.234 51.7656 197.41 50.6016 197.762 49.5781C198.113 48.5469 198.609 47.668 199.25 46.9414C199.898 46.2148 200.664 45.6602 201.547 45.2773C202.438 44.8945 203.418 44.7031 204.488 44.7031C205.566 44.7031 206.547 44.8945 207.43 45.2773C208.32 45.6602 209.086 46.2148 209.727 46.9414C210.375 47.668 210.875 48.5469 211.227 49.5781C211.586 50.6016 211.766 51.7656 211.766 53.0703ZM208.215 53.8789V53.0469C208.215 52.1406 208.133 51.3438 207.969 50.6562C207.805 49.9688 207.562 49.3906 207.242 48.9219C206.922 48.4531 206.531 48.1016 206.07 47.8672C205.609 47.625 205.082 47.5039 204.488 47.5039C203.895 47.5039 203.367 47.625 202.906 47.8672C202.453 48.1016 202.066 48.4531 201.746 48.9219C201.434 49.3906 201.195 49.9688 201.031 50.6562C200.867 51.3438 200.785 52.1406 200.785 53.0469V53.8789C200.785 54.7773 200.867 55.5742 201.031 56.2695C201.195 56.957 201.438 57.5391 201.758 58.0156C202.078 58.4844 202.469 58.8398 202.93 59.082C203.391 59.3242 203.918 59.4453 204.512 59.4453C205.105 59.4453 205.633 59.3242 206.094 59.082C206.555 58.8398 206.941 58.4844 207.254 58.0156C207.566 57.5391 207.805 56.957 207.969 56.2695C208.133 55.5742 208.215 54.7773 208.215 53.8789ZM218.387 62H214.988V48.1953C214.988 47.2344 215.176 46.4258 215.551 45.7695C215.934 45.1055 216.469 44.6055 217.156 44.2695C217.852 43.9258 218.676 43.7539 219.629 43.7539C219.941 43.7539 220.242 43.7773 220.531 43.8242C220.82 43.8633 221.102 43.9141 221.375 43.9766L221.34 46.5195C221.191 46.4805 221.035 46.4531 220.871 46.4375C220.707 46.4219 220.516 46.4141 220.297 46.4141C219.891 46.4141 219.543 46.4844 219.254 46.625C218.973 46.7578 218.758 46.957 218.609 47.2227C218.461 47.4883 218.387 47.8125 218.387 48.1953V62ZM220.918 49.3203V51.7109H213.102V49.3203H220.918ZM237.758 57.5352C237.758 57.2305 237.711 56.957 237.617 56.7148C237.531 56.4648 237.367 56.2383 237.125 56.0352C236.883 55.8242 236.543 55.6172 236.105 55.4141C235.668 55.2109 235.102 55 234.406 54.7812C233.633 54.5312 232.898 54.25 232.203 53.9375C231.516 53.625 230.906 53.2617 230.375 52.8477C229.852 52.4258 229.438 51.9375 229.133 51.3828C228.836 50.8281 228.688 50.1836 228.688 49.4492C228.688 48.7383 228.844 48.0938 229.156 47.5156C229.469 46.9297 229.906 46.4297 230.469 46.0156C231.031 45.5938 231.695 45.2695 232.461 45.043C233.234 44.8164 234.082 44.7031 235.004 44.7031C236.262 44.7031 237.359 44.9297 238.297 45.3828C239.234 45.8359 239.961 46.457 240.477 47.2461C241 48.0352 241.262 48.9375 241.262 49.9531H237.77C237.77 49.4531 237.664 49.0156 237.453 48.6406C237.25 48.2578 236.938 47.957 236.516 47.7383C236.102 47.5195 235.578 47.4102 234.945 47.4102C234.336 47.4102 233.828 47.5039 233.422 47.6914C233.016 47.8711 232.711 48.1172 232.508 48.4297C232.305 48.7344 232.203 49.0781 232.203 49.4609C232.203 49.75 232.273 50.0117 232.414 50.2461C232.562 50.4805 232.781 50.6992 233.07 50.9023C233.359 51.1055 233.715 51.2969 234.137 51.4766C234.559 51.6562 235.047 51.832 235.602 52.0039C236.531 52.2852 237.348 52.6016 238.051 52.9531C238.762 53.3047 239.355 53.6992 239.832 54.1367C240.309 54.5742 240.668 55.0703 240.91 55.625C241.152 56.1797 241.273 56.8086 241.273 57.5117C241.273 58.2539 241.129 58.918 240.84 59.5039C240.551 60.0898 240.133 60.5859 239.586 60.9922C239.039 61.3984 238.387 61.707 237.629 61.918C236.871 62.1289 236.023 62.2344 235.086 62.2344C234.242 62.2344 233.41 62.125 232.59 61.9062C231.77 61.6797 231.023 61.3398 230.352 60.8867C229.688 60.4336 229.156 59.8555 228.758 59.1523C228.359 58.4492 228.16 57.6172 228.16 56.6562H231.688C231.688 57.1875 231.77 57.6367 231.934 58.0039C232.098 58.3711 232.328 58.668 232.625 58.8945C232.93 59.1211 233.289 59.2852 233.703 59.3867C234.125 59.4883 234.586 59.5391 235.086 59.5391C235.695 59.5391 236.195 59.4531 236.586 59.2812C236.984 59.1094 237.277 58.8711 237.465 58.5664C237.66 58.2617 237.758 57.918 237.758 57.5352ZM242.914 55.7891V55.543C242.914 54.6133 243.047 53.7578 243.312 52.9766C243.578 52.1875 243.965 51.5039 244.473 50.9258C244.98 50.3477 245.605 49.8984 246.348 49.5781C247.09 49.25 247.941 49.0859 248.902 49.0859C249.863 49.0859 250.719 49.25 251.469 49.5781C252.219 49.8984 252.848 50.3477 253.355 50.9258C253.871 51.5039 254.262 52.1875 254.527 52.9766C254.793 53.7578 254.926 54.6133 254.926 55.543V55.7891C254.926 56.7109 254.793 57.5664 254.527 58.3555C254.262 59.1367 253.871 59.8203 253.355 60.4062C252.848 60.9844 252.223 61.4336 251.48 61.7539C250.738 62.0742 249.887 62.2344 248.926 62.2344C247.965 62.2344 247.109 62.0742 246.359 61.7539C245.617 61.4336 244.988 60.9844 244.473 60.4062C243.965 59.8203 243.578 59.1367 243.312 58.3555C243.047 57.5664 242.914 56.7109 242.914 55.7891ZM246.289 55.543V55.7891C246.289 56.3203 246.336 56.8164 246.43 57.2773C246.523 57.7383 246.672 58.1445 246.875 58.4961C247.086 58.8398 247.359 59.1094 247.695 59.3047C248.031 59.5 248.441 59.5977 248.926 59.5977C249.395 59.5977 249.797 59.5 250.133 59.3047C250.469 59.1094 250.738 58.8398 250.941 58.4961C251.145 58.1445 251.293 57.7383 251.387 57.2773C251.488 56.8164 251.539 56.3203 251.539 55.7891V55.543C251.539 55.0273 251.488 54.543 251.387 54.0898C251.293 53.6289 251.141 53.2227 250.93 52.8711C250.727 52.5117 250.457 52.2305 250.121 52.0273C249.785 51.8242 249.379 51.7227 248.902 51.7227C248.426 51.7227 248.02 51.8242 247.684 52.0273C247.355 52.2305 247.086 52.5117 246.875 52.8711C246.672 53.2227 246.523 53.6289 246.43 54.0898C246.336 54.543 246.289 55.0273 246.289 55.543ZM264.5 58.9648V49.3203H267.875V62H264.699L264.5 58.9648ZM264.875 56.3633L265.871 56.3398C265.871 57.1836 265.773 57.9688 265.578 58.6953C265.383 59.4141 265.09 60.0391 264.699 60.5703C264.309 61.0938 263.816 61.5039 263.223 61.8008C262.629 62.0898 261.93 62.2344 261.125 62.2344C260.508 62.2344 259.938 62.1484 259.414 61.9766C258.898 61.7969 258.453 61.5195 258.078 61.1445C257.711 60.7617 257.422 60.2734 257.211 59.6797C257.008 59.0781 256.906 58.3555 256.906 57.5117V49.3203H260.281V57.5352C260.281 57.9102 260.324 58.2266 260.41 58.4844C260.504 58.7422 260.633 58.9531 260.797 59.1172C260.961 59.2812 261.152 59.3984 261.371 59.4688C261.598 59.5391 261.848 59.5742 262.121 59.5742C262.816 59.5742 263.363 59.4336 263.762 59.1523C264.168 58.8711 264.453 58.4883 264.617 58.0039C264.789 57.5117 264.875 56.9648 264.875 56.3633ZM273.758 52.0273V62H270.383V49.3203H273.547L273.758 52.0273ZM273.266 55.2148H272.352C272.352 54.2773 272.473 53.4336 272.715 52.6836C272.957 51.9258 273.297 51.2812 273.734 50.75C274.172 50.2109 274.691 49.8008 275.293 49.5195C275.902 49.2305 276.582 49.0859 277.332 49.0859C277.926 49.0859 278.469 49.1719 278.961 49.3438C279.453 49.5156 279.875 49.7891 280.227 50.1641C280.586 50.5391 280.859 51.0352 281.047 51.6523C281.242 52.2695 281.34 53.0234 281.34 53.9141V62H277.941V53.9023C277.941 53.3398 277.863 52.9023 277.707 52.5898C277.551 52.2773 277.32 52.0586 277.016 51.9336C276.719 51.8008 276.352 51.7344 275.914 51.7344C275.461 51.7344 275.066 51.8242 274.73 52.0039C274.402 52.1836 274.129 52.4336 273.91 52.7539C273.699 53.0664 273.539 53.4336 273.43 53.8555C273.32 54.2773 273.266 54.7305 273.266 55.2148ZM291.395 59.2344V44H294.793V62H291.734L291.395 59.2344ZM283.379 55.8125V55.5664C283.379 54.5977 283.488 53.7188 283.707 52.9297C283.926 52.1328 284.246 51.4492 284.668 50.8789C285.09 50.3086 285.609 49.8672 286.227 49.5547C286.844 49.2422 287.547 49.0859 288.336 49.0859C289.078 49.0859 289.727 49.2422 290.281 49.5547C290.844 49.8672 291.32 50.3125 291.711 50.8906C292.109 51.4609 292.43 52.1367 292.672 52.918C292.914 53.6914 293.09 54.5391 293.199 55.4609V56C293.09 56.8828 292.914 57.7031 292.672 58.4609C292.43 59.2188 292.109 59.8828 291.711 60.4531C291.32 61.0156 290.844 61.4531 290.281 61.7656C289.719 62.0781 289.062 62.2344 288.312 62.2344C287.523 62.2344 286.82 62.0742 286.203 61.7539C285.594 61.4336 285.078 60.9844 284.656 60.4062C284.242 59.8281 283.926 59.1484 283.707 58.3672C283.488 57.5859 283.379 56.7344 283.379 55.8125ZM286.754 55.5664V55.8125C286.754 56.3359 286.793 56.8242 286.871 57.2773C286.957 57.7305 287.094 58.1328 287.281 58.4844C287.477 58.8281 287.727 59.0977 288.031 59.293C288.344 59.4805 288.723 59.5742 289.168 59.5742C289.746 59.5742 290.223 59.4453 290.598 59.1875C290.973 58.9219 291.258 58.5586 291.453 58.0977C291.656 57.6367 291.773 57.1055 291.805 56.5039V54.9688C291.781 54.4766 291.711 54.0352 291.594 53.6445C291.484 53.2461 291.32 52.9062 291.102 52.625C290.891 52.3438 290.625 52.125 290.305 51.9688C289.992 51.8125 289.621 51.7344 289.191 51.7344C288.754 51.7344 288.379 51.8359 288.066 52.0391C287.754 52.2344 287.5 52.5039 287.305 52.8477C287.117 53.1914 286.977 53.5977 286.883 54.0664C286.797 54.5273 286.754 55.0273 286.754 55.5664Z" fill="#888888"/>
<path d="M107.205 107.146H99.251V101.191H107.205C108.289 101.191 109.168 101.008 109.842 100.642C110.516 100.275 111.006 99.77 111.314 99.1255C111.636 98.4663 111.797 97.7266 111.797 96.9062C111.797 96.0273 111.636 95.2144 111.314 94.4673C111.006 93.7202 110.516 93.1196 109.842 92.6655C109.168 92.1968 108.289 91.9624 107.205 91.9624H102.151V118H94.439V86.0078H107.205C109.769 86.0078 111.973 86.4766 113.819 87.4141C115.679 88.3516 117.107 89.6406 118.104 91.2812C119.1 92.9072 119.598 94.7676 119.598 96.8623C119.598 98.9277 119.1 100.729 118.104 102.268C117.107 103.806 115.679 105.007 113.819 105.871C111.973 106.721 109.769 107.146 107.205 107.146ZM130.87 100.114V118H123.465V94.2256H130.386L130.87 100.114ZM137.901 94.0498L137.769 100.927C137.476 100.898 137.081 100.861 136.583 100.817C136.084 100.773 135.667 100.751 135.33 100.751C134.466 100.751 133.719 100.854 133.089 101.059C132.474 101.25 131.961 101.542 131.551 101.938C131.155 102.319 130.862 102.802 130.672 103.388C130.496 103.974 130.416 104.655 130.43 105.432L129.09 104.553C129.09 102.956 129.244 101.506 129.551 100.202C129.874 98.8838 130.328 97.7485 130.914 96.7964C131.5 95.8296 132.21 95.0898 133.045 94.5771C133.88 94.0498 134.817 93.7861 135.857 93.7861C136.224 93.7861 136.583 93.8081 136.934 93.8521C137.3 93.896 137.623 93.9619 137.901 94.0498ZM138.736 106.354V105.893C138.736 104.15 138.985 102.546 139.483 101.081C139.981 99.6016 140.713 98.3198 141.68 97.2358C142.647 96.1519 143.841 95.3096 145.262 94.709C146.683 94.0938 148.323 93.7861 150.184 93.7861C152.059 93.7861 153.707 94.0938 155.127 94.709C156.563 95.3096 157.764 96.1519 158.731 97.2358C159.698 98.3198 160.43 99.6016 160.928 101.081C161.426 102.546 161.675 104.15 161.675 105.893V106.354C161.675 108.083 161.426 109.687 160.928 111.167C160.43 112.631 159.698 113.913 158.731 115.012C157.764 116.096 156.57 116.938 155.149 117.539C153.729 118.139 152.088 118.439 150.228 118.439C148.367 118.439 146.719 118.139 145.284 117.539C143.848 116.938 142.647 116.096 141.68 115.012C140.713 113.913 139.981 112.631 139.483 111.167C138.985 109.687 138.736 108.083 138.736 106.354ZM146.141 105.893V106.354C146.141 107.248 146.207 108.083 146.338 108.859C146.47 109.636 146.69 110.317 146.998 110.903C147.305 111.474 147.723 111.921 148.25 112.243C148.777 112.565 149.437 112.727 150.228 112.727C151.004 112.727 151.648 112.565 152.161 112.243C152.688 111.921 153.106 111.474 153.414 110.903C153.721 110.317 153.941 109.636 154.073 108.859C154.205 108.083 154.271 107.248 154.271 106.354V105.893C154.271 105.029 154.205 104.216 154.073 103.454C153.941 102.678 153.721 101.997 153.414 101.411C153.106 100.81 152.688 100.341 152.161 100.004C151.634 99.6675 150.975 99.499 150.184 99.499C149.407 99.499 148.755 99.6675 148.228 100.004C147.715 100.341 147.305 100.81 146.998 101.411C146.69 101.997 146.47 102.678 146.338 103.454C146.207 104.216 146.141 105.029 146.141 105.893ZM177.496 94.2256V99.3672H163.169V94.2256H177.496ZM166.18 88.3149H173.584V110.244C173.584 110.874 173.658 111.364 173.804 111.716C173.951 112.053 174.2 112.294 174.551 112.441C174.917 112.573 175.401 112.639 176.001 112.639C176.426 112.639 176.778 112.631 177.056 112.617C177.334 112.587 177.598 112.551 177.847 112.507V117.802C177.217 118.007 176.558 118.161 175.87 118.264C175.181 118.381 174.449 118.439 173.672 118.439C172.09 118.439 170.735 118.19 169.607 117.692C168.494 117.194 167.645 116.411 167.059 115.341C166.473 114.272 166.18 112.88 166.18 111.167V88.3149ZM178.858 106.354V105.893C178.858 104.15 179.107 102.546 179.605 101.081C180.103 99.6016 180.835 98.3198 181.802 97.2358C182.769 96.1519 183.963 95.3096 185.384 94.709C186.805 94.0938 188.445 93.7861 190.306 93.7861C192.181 93.7861 193.829 94.0938 195.25 94.709C196.685 95.3096 197.886 96.1519 198.853 97.2358C199.82 98.3198 200.552 99.6016 201.05 101.081C201.548 102.546 201.797 104.15 201.797 105.893V106.354C201.797 108.083 201.548 109.687 201.05 111.167C200.552 112.631 199.82 113.913 198.853 115.012C197.886 116.096 196.692 116.938 195.271 117.539C193.851 118.139 192.21 118.439 190.35 118.439C188.489 118.439 186.841 118.139 185.406 117.539C183.97 116.938 182.769 116.096 181.802 115.012C180.835 113.913 180.103 112.631 179.605 111.167C179.107 109.687 178.858 108.083 178.858 106.354ZM186.263 105.893V106.354C186.263 107.248 186.329 108.083 186.46 108.859C186.592 109.636 186.812 110.317 187.12 110.903C187.427 111.474 187.845 111.921 188.372 112.243C188.899 112.565 189.559 112.727 190.35 112.727C191.126 112.727 191.771 112.565 192.283 112.243C192.811 111.921 193.228 111.474 193.536 110.903C193.843 110.317 194.063 109.636 194.195 108.859C194.327 108.083 194.393 107.248 194.393 106.354V105.893C194.393 105.029 194.327 104.216 194.195 103.454C194.063 102.678 193.843 101.997 193.536 101.411C193.228 100.81 192.811 100.341 192.283 100.004C191.756 99.6675 191.097 99.499 190.306 99.499C189.529 99.499 188.877 99.6675 188.35 100.004C187.837 100.341 187.427 100.81 187.12 101.411C186.812 101.997 186.592 102.678 186.46 103.454C186.329 104.216 186.263 105.029 186.263 105.893ZM217.618 94.2256V99.3672H203.292V94.2256H217.618ZM206.302 88.3149H213.707V110.244C213.707 110.874 213.78 111.364 213.926 111.716C214.073 112.053 214.322 112.294 214.673 112.441C215.04 112.573 215.523 112.639 216.124 112.639C216.548 112.639 216.9 112.631 217.178 112.617C217.457 112.587 217.72 112.551 217.969 112.507V117.802C217.339 118.007 216.68 118.161 215.992 118.264C215.303 118.381 214.571 118.439 213.794 118.439C212.212 118.439 210.857 118.19 209.729 117.692C208.616 117.194 207.767 116.411 207.181 115.341C206.595 114.272 206.302 112.88 206.302 111.167V88.3149ZM227.857 115.209L234.009 94.2256H241.963L232.405 121.538C232.2 122.138 231.929 122.783 231.592 123.471C231.255 124.174 230.794 124.841 230.208 125.471C229.622 126.101 228.868 126.613 227.945 127.009C227.037 127.404 225.909 127.602 224.561 127.602C223.843 127.602 223.316 127.565 222.979 127.492C222.657 127.434 222.159 127.324 221.485 127.163V121.867C221.675 121.867 221.836 121.867 221.968 121.867C222.115 121.867 222.276 121.867 222.452 121.867C223.243 121.867 223.873 121.787 224.341 121.625C224.825 121.464 225.191 121.23 225.44 120.922C225.704 120.615 225.909 120.241 226.055 119.802L227.857 115.209ZM226.297 94.2256L230.977 110.859L231.79 118.703H226.824L218.365 94.2256H226.297ZM251.368 98.7959V127.141H243.963V94.2256H250.862L251.368 98.7959ZM265.958 105.827V106.289C265.958 108.017 265.76 109.621 265.364 111.101C264.969 112.58 264.383 113.869 263.606 114.968C262.83 116.066 261.863 116.923 260.706 117.539C259.563 118.139 258.238 118.439 256.729 118.439C255.308 118.439 254.085 118.125 253.06 117.495C252.034 116.865 251.177 115.993 250.489 114.88C249.8 113.767 249.244 112.492 248.819 111.057C248.394 109.621 248.057 108.105 247.808 106.508V105.915C248.057 104.201 248.394 102.612 248.819 101.147C249.244 99.6675 249.8 98.3784 250.489 97.2798C251.177 96.1812 252.027 95.3242 253.038 94.709C254.063 94.0938 255.286 93.7861 256.707 93.7861C258.216 93.7861 259.542 94.0718 260.684 94.6431C261.841 95.2144 262.808 96.0347 263.584 97.104C264.375 98.1587 264.969 99.4258 265.364 100.905C265.76 102.385 265.958 104.025 265.958 105.827ZM258.553 106.289V105.827C258.553 104.904 258.487 104.062 258.355 103.3C258.223 102.524 258.011 101.85 257.718 101.279C257.439 100.708 257.066 100.268 256.597 99.9604C256.128 99.6528 255.55 99.499 254.861 99.499C254.07 99.499 253.404 99.6235 252.862 99.8726C252.334 100.107 251.91 100.473 251.587 100.971C251.28 101.455 251.06 102.062 250.928 102.795C250.811 103.513 250.76 104.355 250.774 105.322V107.124C250.745 108.237 250.855 109.218 251.104 110.068C251.353 110.903 251.785 111.555 252.4 112.023C253.016 112.492 253.851 112.727 254.905 112.727C255.608 112.727 256.194 112.565 256.663 112.243C257.132 111.906 257.505 111.445 257.784 110.859C258.062 110.258 258.26 109.57 258.377 108.793C258.494 108.017 258.553 107.182 258.553 106.289ZM277.076 94.2256V118H269.649V94.2256H277.076ZM269.209 88.0952C269.209 87.0405 269.59 86.1763 270.352 85.5024C271.114 84.8286 272.103 84.4917 273.318 84.4917C274.534 84.4917 275.523 84.8286 276.285 85.5024C277.046 86.1763 277.427 87.0405 277.427 88.0952C277.427 89.1499 277.046 90.0142 276.285 90.688C275.523 91.3618 274.534 91.6987 273.318 91.6987C272.103 91.6987 271.114 91.3618 270.352 90.688C269.59 90.0142 269.209 89.1499 269.209 88.0952ZM288.919 99.3013V118H281.514V94.2256H288.458L288.919 99.3013ZM288.04 105.3L286.304 105.344C286.304 103.527 286.524 101.909 286.963 100.488C287.403 99.0522 288.025 97.8364 288.831 96.8403C289.637 95.8442 290.596 95.0898 291.709 94.5771C292.837 94.0498 294.09 93.7861 295.467 93.7861C296.565 93.7861 297.569 93.9473 298.477 94.2695C299.4 94.5918 300.191 95.1118 300.85 95.8296C301.524 96.5474 302.037 97.4995 302.388 98.686C302.754 99.8579 302.938 101.308 302.938 103.037V118H295.489V103.015C295.489 102.062 295.357 101.337 295.093 100.839C294.83 100.327 294.449 99.9751 293.951 99.7847C293.453 99.5942 292.845 99.499 292.127 99.499C291.365 99.499 290.721 99.6455 290.193 99.9385C289.666 100.231 289.241 100.642 288.919 101.169C288.611 101.682 288.384 102.29 288.238 102.993C288.106 103.696 288.04 104.465 288.04 105.3ZM321.988 94.2256H328.711V117.077C328.711 119.274 328.206 121.135 327.195 122.658C326.185 124.196 324.771 125.361 322.955 126.152C321.153 126.958 319.043 127.36 316.626 127.36C315.557 127.36 314.466 127.221 313.353 126.943C312.239 126.679 311.199 126.284 310.232 125.756C309.266 125.229 308.453 124.577 307.793 123.801L310.892 119.45C311.492 120.124 312.247 120.695 313.155 121.164C314.063 121.647 315.132 121.889 316.363 121.889C317.432 121.889 318.326 121.699 319.043 121.318C319.776 120.937 320.333 120.38 320.713 119.648C321.094 118.93 321.285 118.059 321.285 117.033V99.8506L321.988 94.2256ZM306.189 106.398V105.937C306.189 104.135 306.409 102.495 306.849 101.015C307.303 99.521 307.947 98.2393 308.782 97.1699C309.632 96.0859 310.657 95.251 311.858 94.665C313.06 94.0791 314.415 93.7861 315.923 93.7861C317.549 93.7861 318.882 94.1011 319.922 94.731C320.977 95.3462 321.819 96.2104 322.449 97.3237C323.094 98.437 323.592 99.7407 323.943 101.235C324.31 102.714 324.617 104.311 324.866 106.025V106.574C324.617 108.186 324.273 109.709 323.833 111.145C323.409 112.565 322.852 113.825 322.164 114.924C321.475 116.022 320.611 116.887 319.571 117.517C318.545 118.132 317.315 118.439 315.879 118.439C314.385 118.439 313.038 118.139 311.836 117.539C310.65 116.938 309.632 116.096 308.782 115.012C307.947 113.928 307.303 112.653 306.849 111.188C306.409 109.724 306.189 108.127 306.189 106.398ZM313.594 105.937V106.398C313.594 107.292 313.675 108.12 313.836 108.881C314.012 109.643 314.275 110.317 314.627 110.903C314.979 111.474 315.411 111.921 315.923 112.243C316.451 112.565 317.066 112.727 317.769 112.727C318.838 112.727 319.703 112.5 320.362 112.045C321.021 111.591 321.497 110.947 321.79 110.112C322.083 109.277 322.208 108.295 322.164 107.167V105.432C322.193 104.465 322.127 103.615 321.966 102.883C321.805 102.136 321.548 101.513 321.197 101.015C320.86 100.517 320.406 100.144 319.834 99.8945C319.278 99.6309 318.604 99.499 317.813 99.499C317.125 99.499 316.517 99.6602 315.989 99.9824C315.462 100.305 315.022 100.759 314.671 101.345C314.319 101.916 314.048 102.597 313.858 103.388C313.682 104.165 313.594 105.014 313.594 105.937Z" fill="#424241"/>
<path d="M1363 15C1363 6.71573 1356.28 0 1348 0H1134V167H1348C1356.28 167 1363 160.284 1363 152V15Z" fill="#355085"/>
<path fill-rule="evenodd" clip-rule="evenodd" d="M1203 49C1203 47.8954 1203.9 47 1205 47H1292.5C1293.6 47 1294.5 47.8954 1294.5 49V118.996C1294.5 120.101 1293.6 120.996 1292.5 120.996H1205C1203.9 120.996 1203 120.101 1203 118.996V49ZM1207 51V55.4945H1290.5V51H1207ZM1290.5 59.4945H1235.44V116.996H1290.5V59.4945ZM1231.44 116.996V59.4945H1207V116.996H1231.44Z" fill="white"/>
<path fill-rule="evenodd" clip-rule="evenodd" d="M1209.97 64.8004C1209.97 63.6958 1210.87 62.8004 1211.97 62.8004H1225.97C1227.08 62.8004 1227.97 63.6958 1227.97 64.8004V84.1956C1227.97 85.3001 1227.08 86.1956 1225.97 86.1956H1211.97C1210.87 86.1956 1209.97 85.3001 1209.97 84.1956V64.8004ZM1213.97 66.8004V82.1956H1223.97V66.8004H1213.97ZM1239.58 65.6964C1239.58 64.5918 1240.47 63.6964 1241.58 63.6964H1284.5C1285.61 63.6964 1286.5 64.5918 1286.5 65.6964V111.905C1286.5 113.01 1285.61 113.905 1284.5 113.905H1241.58C1240.47 113.905 1239.58 113.01 1239.58 111.905V65.6964ZM1243.58 67.6964V109.905H1282.5V67.6964H1243.58ZM1209.81 95.9363C1209.81 94.8317 1210.71 93.9363 1211.81 93.9363H1220.73C1221.84 93.9363 1222.73 94.8317 1222.73 95.9363C1222.73 97.0409 1221.84 97.9363 1220.73 97.9363H1211.81C1210.71 97.9363 1209.81 97.0409 1209.81 95.9363ZM1209.81 102.936C1209.81 101.832 1210.71 100.936 1211.81 100.936H1226.35C1227.46 100.936 1228.35 101.832 1228.35 102.936C1228.35 104.041 1227.46 104.936 1226.35 104.936H1211.81C1210.71 104.936 1209.81 104.041 1209.81 102.936ZM1209.81 109.936C1209.81 108.832 1210.71 107.936 1211.81 107.936H1220.73C1221.84 107.936 1222.73 108.832 1222.73 109.936C1222.73 111.041 1221.84 111.936 1220.73 111.936H1211.81C1210.71 111.936 1209.81 111.041 1209.81 109.936Z" fill="white"/>
</svg>
