<svg width="1363" height="167" viewBox="0 0 1363 167" fill="none" xmlns="http://www.w3.org/2000/svg">
<rect width="1363" height="167" rx="15" fill="#F0F0F0"/>
<path d="M0 15C0 6.71573 6.71573 0 15 0H37V167H15C6.71573 167 0 160.284 0 152V15Z" fill="#424241"/>
<path d="M100.906 54.9219L93.3945 52.2383V49.0859L103.602 53.375V55.6367L100.906 54.9219ZM93.3945 57.1719L100.918 54.4297L103.602 53.7852V56.0352L93.3945 60.3242V57.1719ZM120.781 57.5352C120.781 57.2305 120.734 56.957 120.641 56.7148C120.555 56.4648 120.391 56.2383 120.148 56.0352C119.906 55.8242 119.566 55.6172 119.129 55.4141C118.691 55.2109 118.125 55 117.43 54.7812C116.656 54.5312 115.922 54.25 115.227 53.9375C114.539 53.625 113.93 53.2617 113.398 52.8477C112.875 52.4258 112.461 51.9375 112.156 51.3828C111.859 50.8281 111.711 50.1836 111.711 49.4492C111.711 48.7383 111.867 48.0938 112.18 47.5156C112.492 46.9297 112.93 46.4297 113.492 46.0156C114.055 45.5938 114.719 45.2695 115.484 45.043C116.258 44.8164 117.105 44.7031 118.027 44.7031C119.285 44.7031 120.383 44.9297 121.32 45.3828C122.258 45.8359 122.984 46.457 123.5 47.2461C124.023 48.0352 124.285 48.9375 124.285 49.9531H120.793C120.793 49.4531 120.688 49.0156 120.477 48.6406C120.273 48.2578 119.961 47.957 119.539 47.7383C119.125 47.5195 118.602 47.4102 117.969 47.4102C117.359 47.4102 116.852 47.5039 116.445 47.6914C116.039 47.8711 115.734 48.1172 115.531 48.4297C115.328 48.7344 115.227 49.0781 115.227 49.4609C115.227 49.75 115.297 50.0117 115.438 50.2461C115.586 50.4805 115.805 50.6992 116.094 50.9023C116.383 51.1055 116.738 51.2969 117.16 51.4766C117.582 51.6562 118.07 51.832 118.625 52.0039C119.555 52.2852 120.371 52.6016 121.074 52.9531C121.785 53.3047 122.379 53.6992 122.855 54.1367C123.332 54.5742 123.691 55.0703 123.934 55.625C124.176 56.1797 124.297 56.8086 124.297 57.5117C124.297 58.2539 124.152 58.918 123.863 59.5039C123.574 60.0898 123.156 60.5859 122.609 60.9922C122.062 61.3984 121.41 61.707 120.652 61.918C119.895 62.1289 119.047 62.2344 118.109 62.2344C117.266 62.2344 116.434 62.125 115.613 61.9062C114.793 61.6797 114.047 61.3398 113.375 60.8867C112.711 60.4336 112.18 59.8555 111.781 59.1523C111.383 58.4492 111.184 57.6172 111.184 56.6562H114.711C114.711 57.1875 114.793 57.6367 114.957 58.0039C115.121 58.3711 115.352 58.668 115.648 58.8945C115.953 59.1211 116.312 59.2852 116.727 59.3867C117.148 59.4883 117.609 59.5391 118.109 59.5391C118.719 59.5391 119.219 59.4531 119.609 59.2812C120.008 59.1094 120.301 58.8711 120.488 58.5664C120.684 58.2617 120.781 57.918 120.781 57.5352ZM129.77 44V62H126.395V44H129.77ZM129.289 55.2148H128.363C128.371 54.332 128.488 53.5195 128.715 52.7773C128.941 52.0273 129.266 51.3789 129.688 50.832C130.109 50.2773 130.613 49.8477 131.199 49.543C131.793 49.2383 132.449 49.0859 133.168 49.0859C133.793 49.0859 134.359 49.1758 134.867 49.3555C135.383 49.5273 135.824 49.8086 136.191 50.1992C136.566 50.582 136.855 51.0859 137.059 51.7109C137.262 52.3359 137.363 53.0938 137.363 53.9844V62H133.965V53.9609C133.965 53.3984 133.883 52.957 133.719 52.6367C133.562 52.3086 133.332 52.0781 133.027 51.9453C132.73 51.8047 132.363 51.7344 131.926 51.7344C131.441 51.7344 131.027 51.8242 130.684 52.0039C130.348 52.1836 130.078 52.4336 129.875 52.7539C129.672 53.0664 129.523 53.4336 129.43 53.8555C129.336 54.2773 129.289 54.7305 129.289 55.2148ZM146.773 59.1406V53.4922C146.773 53.0859 146.707 52.7383 146.574 52.4492C146.441 52.1523 146.234 51.9219 145.953 51.7578C145.68 51.5938 145.324 51.5117 144.887 51.5117C144.512 51.5117 144.188 51.5781 143.914 51.7109C143.641 51.8359 143.43 52.0195 143.281 52.2617C143.133 52.4961 143.059 52.7734 143.059 53.0938H139.684C139.684 52.5547 139.809 52.043 140.059 51.5586C140.309 51.0742 140.672 50.6484 141.148 50.2812C141.625 49.9062 142.191 49.6133 142.848 49.4023C143.512 49.1914 144.254 49.0859 145.074 49.0859C146.059 49.0859 146.934 49.25 147.699 49.5781C148.465 49.9062 149.066 50.3984 149.504 51.0547C149.949 51.7109 150.172 52.5312 150.172 53.5156V58.9414C150.172 59.6367 150.215 60.207 150.301 60.6523C150.387 61.0898 150.512 61.4727 150.676 61.8008V62H147.266C147.102 61.6562 146.977 61.2266 146.891 60.7109C146.812 60.1875 146.773 59.6641 146.773 59.1406ZM147.219 54.2773L147.242 56.1875H145.355C144.91 56.1875 144.523 56.2383 144.195 56.3398C143.867 56.4414 143.598 56.5859 143.387 56.7734C143.176 56.9531 143.02 57.1641 142.918 57.4062C142.824 57.6484 142.777 57.9141 142.777 58.2031C142.777 58.4922 142.844 58.7539 142.977 58.9883C143.109 59.2148 143.301 59.3945 143.551 59.5273C143.801 59.6523 144.094 59.7148 144.43 59.7148C144.938 59.7148 145.379 59.6133 145.754 59.4102C146.129 59.207 146.418 58.957 146.621 58.6602C146.832 58.3633 146.941 58.082 146.949 57.8164L147.84 59.2461C147.715 59.5664 147.543 59.8984 147.324 60.2422C147.113 60.5859 146.844 60.9102 146.516 61.2148C146.188 61.5117 145.793 61.7578 145.332 61.9531C144.871 62.1406 144.324 62.2344 143.691 62.2344C142.887 62.2344 142.156 62.0742 141.5 61.7539C140.852 61.4258 140.336 60.9766 139.953 60.4062C139.578 59.8281 139.391 59.1719 139.391 58.4375C139.391 57.7734 139.516 57.1836 139.766 56.668C140.016 56.1523 140.383 55.7188 140.867 55.3672C141.359 55.0078 141.973 54.7383 142.707 54.5586C143.441 54.3711 144.293 54.2773 145.262 54.2773H147.219ZM156.148 51.7578V66.875H152.773V49.3203H155.902L156.148 51.7578ZM164.176 55.5195V55.7656C164.176 56.6875 164.066 57.543 163.848 58.332C163.637 59.1211 163.324 59.8086 162.91 60.3945C162.496 60.9727 161.98 61.4258 161.363 61.7539C160.754 62.0742 160.051 62.2344 159.254 62.2344C158.48 62.2344 157.809 62.0781 157.238 61.7656C156.668 61.4531 156.188 61.0156 155.797 60.4531C155.414 59.8828 155.105 59.2227 154.871 58.4727C154.637 57.7227 154.457 56.918 154.332 56.0586V55.4141C154.457 54.4922 154.637 53.6484 154.871 52.8828C155.105 52.1094 155.414 51.4414 155.797 50.8789C156.188 50.3086 156.664 49.8672 157.227 49.5547C157.797 49.2422 158.465 49.0859 159.23 49.0859C160.035 49.0859 160.742 49.2383 161.352 49.543C161.969 49.8477 162.484 50.2852 162.898 50.8555C163.32 51.4258 163.637 52.1055 163.848 52.8945C164.066 53.6836 164.176 54.5586 164.176 55.5195ZM160.789 55.7656V55.5195C160.789 54.9805 160.742 54.4844 160.648 54.0312C160.562 53.5703 160.422 53.168 160.227 52.8242C160.039 52.4805 159.789 52.2148 159.477 52.0273C159.172 51.832 158.801 51.7344 158.363 51.7344C157.902 51.7344 157.508 51.8086 157.18 51.957C156.859 52.1055 156.598 52.3203 156.395 52.6016C156.191 52.8828 156.039 53.2188 155.938 53.6094C155.836 54 155.773 54.4414 155.75 54.9336V56.5625C155.789 57.1406 155.898 57.6602 156.078 58.1211C156.258 58.5742 156.535 58.9336 156.91 59.1992C157.285 59.4648 157.777 59.5977 158.387 59.5977C158.832 59.5977 159.207 59.5 159.512 59.3047C159.816 59.1016 160.062 58.8242 160.25 58.4727C160.445 58.1211 160.582 57.7148 160.66 57.2539C160.746 56.793 160.789 56.2969 160.789 55.7656ZM172.109 62.2344C171.125 62.2344 170.242 62.0781 169.461 61.7656C168.68 61.4453 168.016 61.0039 167.469 60.4414C166.93 59.8789 166.516 59.2266 166.227 58.4844C165.938 57.7344 165.793 56.9375 165.793 56.0938V55.625C165.793 54.6641 165.93 53.7852 166.203 52.9883C166.477 52.1914 166.867 51.5 167.375 50.9141C167.891 50.3281 168.516 49.8789 169.25 49.5664C169.984 49.2461 170.812 49.0859 171.734 49.0859C172.633 49.0859 173.43 49.2344 174.125 49.5312C174.82 49.8281 175.402 50.25 175.871 50.7969C176.348 51.3438 176.707 52 176.949 52.7656C177.191 53.5234 177.312 54.3672 177.312 55.2969V56.7031H167.234V54.4531H173.996V54.1953C173.996 53.7266 173.91 53.3086 173.738 52.9414C173.574 52.5664 173.324 52.2695 172.988 52.0508C172.652 51.832 172.223 51.7227 171.699 51.7227C171.254 51.7227 170.871 51.8203 170.551 52.0156C170.23 52.2109 169.969 52.4844 169.766 52.8359C169.57 53.1875 169.422 53.6016 169.32 54.0781C169.227 54.5469 169.18 55.0625 169.18 55.625V56.0938C169.18 56.6016 169.25 57.0703 169.391 57.5C169.539 57.9297 169.746 58.3008 170.012 58.6133C170.285 58.9258 170.613 59.168 170.996 59.3398C171.387 59.5117 171.828 59.5977 172.32 59.5977C172.93 59.5977 173.496 59.4805 174.02 59.2461C174.551 59.0039 175.008 58.6406 175.391 58.1562L177.031 59.9375C176.766 60.3203 176.402 60.6875 175.941 61.0391C175.488 61.3906 174.941 61.6797 174.301 61.9062C173.66 62.125 172.93 62.2344 172.109 62.2344ZM186.09 58.4961C186.09 58.2539 186.02 58.0352 185.879 57.8398C185.738 57.6445 185.477 57.4648 185.094 57.3008C184.719 57.1289 184.176 56.9727 183.465 56.832C182.824 56.6914 182.227 56.5156 181.672 56.3047C181.125 56.0859 180.648 55.8242 180.242 55.5195C179.844 55.2148 179.531 54.8555 179.305 54.4414C179.078 54.0195 178.965 53.5391 178.965 53C178.965 52.4688 179.078 51.9688 179.305 51.5C179.539 51.0312 179.871 50.6172 180.301 50.2578C180.738 49.8906 181.27 49.6055 181.895 49.4023C182.527 49.1914 183.238 49.0859 184.027 49.0859C185.129 49.0859 186.074 49.2617 186.863 49.6133C187.66 49.9648 188.27 50.4492 188.691 51.0664C189.121 51.6758 189.336 52.3711 189.336 53.1523H185.961C185.961 52.8242 185.891 52.5312 185.75 52.2734C185.617 52.0078 185.406 51.8008 185.117 51.6523C184.836 51.4961 184.469 51.418 184.016 51.418C183.641 51.418 183.316 51.4844 183.043 51.6172C182.77 51.7422 182.559 51.9141 182.41 52.1328C182.27 52.3438 182.199 52.5781 182.199 52.8359C182.199 53.0312 182.238 53.207 182.316 53.3633C182.402 53.5117 182.539 53.6484 182.727 53.7734C182.914 53.8984 183.156 54.0156 183.453 54.125C183.758 54.2266 184.133 54.3203 184.578 54.4062C185.492 54.5938 186.309 54.8398 187.027 55.1445C187.746 55.4414 188.316 55.8477 188.738 56.3633C189.16 56.8711 189.371 57.5391 189.371 58.3672C189.371 58.9297 189.246 59.4453 188.996 59.9141C188.746 60.3828 188.387 60.793 187.918 61.1445C187.449 61.4883 186.887 61.7578 186.23 61.9531C185.582 62.1406 184.852 62.2344 184.039 62.2344C182.859 62.2344 181.859 62.0234 181.039 61.6016C180.227 61.1797 179.609 60.6445 179.188 59.9961C178.773 59.3398 178.566 58.668 178.566 57.9805H181.766C181.781 58.4414 181.898 58.8125 182.117 59.0938C182.344 59.375 182.629 59.5781 182.973 59.7031C183.324 59.8281 183.703 59.8906 184.109 59.8906C184.547 59.8906 184.91 59.832 185.199 59.7148C185.488 59.5898 185.707 59.4258 185.855 59.2227C186.012 59.0117 186.09 58.7695 186.09 58.4961ZM211.766 53.0703V53.8789C211.766 55.1758 211.59 56.3398 211.238 57.3711C210.887 58.4023 210.391 59.2812 209.75 60.0078C209.109 60.7266 208.344 61.2773 207.453 61.6602C206.57 62.043 205.59 62.2344 204.512 62.2344C203.441 62.2344 202.461 62.043 201.57 61.6602C200.688 61.2773 199.922 60.7266 199.273 60.0078C198.625 59.2812 198.121 58.4023 197.762 57.3711C197.41 56.3398 197.234 55.1758 197.234 53.8789V53.0703C197.234 51.7656 197.41 50.6016 197.762 49.5781C198.113 48.5469 198.609 47.668 199.25 46.9414C199.898 46.2148 200.664 45.6602 201.547 45.2773C202.438 44.8945 203.418 44.7031 204.488 44.7031C205.566 44.7031 206.547 44.8945 207.43 45.2773C208.32 45.6602 209.086 46.2148 209.727 46.9414C210.375 47.668 210.875 48.5469 211.227 49.5781C211.586 50.6016 211.766 51.7656 211.766 53.0703ZM208.215 53.8789V53.0469C208.215 52.1406 208.133 51.3438 207.969 50.6562C207.805 49.9688 207.562 49.3906 207.242 48.9219C206.922 48.4531 206.531 48.1016 206.07 47.8672C205.609 47.625 205.082 47.5039 204.488 47.5039C203.895 47.5039 203.367 47.625 202.906 47.8672C202.453 48.1016 202.066 48.4531 201.746 48.9219C201.434 49.3906 201.195 49.9688 201.031 50.6562C200.867 51.3438 200.785 52.1406 200.785 53.0469V53.8789C200.785 54.7773 200.867 55.5742 201.031 56.2695C201.195 56.957 201.438 57.5391 201.758 58.0156C202.078 58.4844 202.469 58.8398 202.93 59.082C203.391 59.3242 203.918 59.4453 204.512 59.4453C205.105 59.4453 205.633 59.3242 206.094 59.082C206.555 58.8398 206.941 58.4844 207.254 58.0156C207.566 57.5391 207.805 56.957 207.969 56.2695C208.133 55.5742 208.215 54.7773 208.215 53.8789ZM218.387 62H214.988V48.1953C214.988 47.2344 215.176 46.4258 215.551 45.7695C215.934 45.1055 216.469 44.6055 217.156 44.2695C217.852 43.9258 218.676 43.7539 219.629 43.7539C219.941 43.7539 220.242 43.7773 220.531 43.8242C220.82 43.8633 221.102 43.9141 221.375 43.9766L221.34 46.5195C221.191 46.4805 221.035 46.4531 220.871 46.4375C220.707 46.4219 220.516 46.4141 220.297 46.4141C219.891 46.4141 219.543 46.4844 219.254 46.625C218.973 46.7578 218.758 46.957 218.609 47.2227C218.461 47.4883 218.387 47.8125 218.387 48.1953V62ZM220.918 49.3203V51.7109H213.102V49.3203H220.918ZM237.758 57.5352C237.758 57.2305 237.711 56.957 237.617 56.7148C237.531 56.4648 237.367 56.2383 237.125 56.0352C236.883 55.8242 236.543 55.6172 236.105 55.4141C235.668 55.2109 235.102 55 234.406 54.7812C233.633 54.5312 232.898 54.25 232.203 53.9375C231.516 53.625 230.906 53.2617 230.375 52.8477C229.852 52.4258 229.438 51.9375 229.133 51.3828C228.836 50.8281 228.688 50.1836 228.688 49.4492C228.688 48.7383 228.844 48.0938 229.156 47.5156C229.469 46.9297 229.906 46.4297 230.469 46.0156C231.031 45.5938 231.695 45.2695 232.461 45.043C233.234 44.8164 234.082 44.7031 235.004 44.7031C236.262 44.7031 237.359 44.9297 238.297 45.3828C239.234 45.8359 239.961 46.457 240.477 47.2461C241 48.0352 241.262 48.9375 241.262 49.9531H237.77C237.77 49.4531 237.664 49.0156 237.453 48.6406C237.25 48.2578 236.938 47.957 236.516 47.7383C236.102 47.5195 235.578 47.4102 234.945 47.4102C234.336 47.4102 233.828 47.5039 233.422 47.6914C233.016 47.8711 232.711 48.1172 232.508 48.4297C232.305 48.7344 232.203 49.0781 232.203 49.4609C232.203 49.75 232.273 50.0117 232.414 50.2461C232.562 50.4805 232.781 50.6992 233.07 50.9023C233.359 51.1055 233.715 51.2969 234.137 51.4766C234.559 51.6562 235.047 51.832 235.602 52.0039C236.531 52.2852 237.348 52.6016 238.051 52.9531C238.762 53.3047 239.355 53.6992 239.832 54.1367C240.309 54.5742 240.668 55.0703 240.91 55.625C241.152 56.1797 241.273 56.8086 241.273 57.5117C241.273 58.2539 241.129 58.918 240.84 59.5039C240.551 60.0898 240.133 60.5859 239.586 60.9922C239.039 61.3984 238.387 61.707 237.629 61.918C236.871 62.1289 236.023 62.2344 235.086 62.2344C234.242 62.2344 233.41 62.125 232.59 61.9062C231.77 61.6797 231.023 61.3398 230.352 60.8867C229.688 60.4336 229.156 59.8555 228.758 59.1523C228.359 58.4492 228.16 57.6172 228.16 56.6562H231.688C231.688 57.1875 231.77 57.6367 231.934 58.0039C232.098 58.3711 232.328 58.668 232.625 58.8945C232.93 59.1211 233.289 59.2852 233.703 59.3867C234.125 59.4883 234.586 59.5391 235.086 59.5391C235.695 59.5391 236.195 59.4531 236.586 59.2812C236.984 59.1094 237.277 58.8711 237.465 58.5664C237.66 58.2617 237.758 57.918 237.758 57.5352ZM242.914 55.7891V55.543C242.914 54.6133 243.047 53.7578 243.312 52.9766C243.578 52.1875 243.965 51.5039 244.473 50.9258C244.98 50.3477 245.605 49.8984 246.348 49.5781C247.09 49.25 247.941 49.0859 248.902 49.0859C249.863 49.0859 250.719 49.25 251.469 49.5781C252.219 49.8984 252.848 50.3477 253.355 50.9258C253.871 51.5039 254.262 52.1875 254.527 52.9766C254.793 53.7578 254.926 54.6133 254.926 55.543V55.7891C254.926 56.7109 254.793 57.5664 254.527 58.3555C254.262 59.1367 253.871 59.8203 253.355 60.4062C252.848 60.9844 252.223 61.4336 251.48 61.7539C250.738 62.0742 249.887 62.2344 248.926 62.2344C247.965 62.2344 247.109 62.0742 246.359 61.7539C245.617 61.4336 244.988 60.9844 244.473 60.4062C243.965 59.8203 243.578 59.1367 243.312 58.3555C243.047 57.5664 242.914 56.7109 242.914 55.7891ZM246.289 55.543V55.7891C246.289 56.3203 246.336 56.8164 246.43 57.2773C246.523 57.7383 246.672 58.1445 246.875 58.4961C247.086 58.8398 247.359 59.1094 247.695 59.3047C248.031 59.5 248.441 59.5977 248.926 59.5977C249.395 59.5977 249.797 59.5 250.133 59.3047C250.469 59.1094 250.738 58.8398 250.941 58.4961C251.145 58.1445 251.293 57.7383 251.387 57.2773C251.488 56.8164 251.539 56.3203 251.539 55.7891V55.543C251.539 55.0273 251.488 54.543 251.387 54.0898C251.293 53.6289 251.141 53.2227 250.93 52.8711C250.727 52.5117 250.457 52.2305 250.121 52.0273C249.785 51.8242 249.379 51.7227 248.902 51.7227C248.426 51.7227 248.02 51.8242 247.684 52.0273C247.355 52.2305 247.086 52.5117 246.875 52.8711C246.672 53.2227 246.523 53.6289 246.43 54.0898C246.336 54.543 246.289 55.0273 246.289 55.543ZM264.5 58.9648V49.3203H267.875V62H264.699L264.5 58.9648ZM264.875 56.3633L265.871 56.3398C265.871 57.1836 265.773 57.9688 265.578 58.6953C265.383 59.4141 265.09 60.0391 264.699 60.5703C264.309 61.0938 263.816 61.5039 263.223 61.8008C262.629 62.0898 261.93 62.2344 261.125 62.2344C260.508 62.2344 259.938 62.1484 259.414 61.9766C258.898 61.7969 258.453 61.5195 258.078 61.1445C257.711 60.7617 257.422 60.2734 257.211 59.6797C257.008 59.0781 256.906 58.3555 256.906 57.5117V49.3203H260.281V57.5352C260.281 57.9102 260.324 58.2266 260.41 58.4844C260.504 58.7422 260.633 58.9531 260.797 59.1172C260.961 59.2812 261.152 59.3984 261.371 59.4688C261.598 59.5391 261.848 59.5742 262.121 59.5742C262.816 59.5742 263.363 59.4336 263.762 59.1523C264.168 58.8711 264.453 58.4883 264.617 58.0039C264.789 57.5117 264.875 56.9648 264.875 56.3633ZM273.758 52.0273V62H270.383V49.3203H273.547L273.758 52.0273ZM273.266 55.2148H272.352C272.352 54.2773 272.473 53.4336 272.715 52.6836C272.957 51.9258 273.297 51.2812 273.734 50.75C274.172 50.2109 274.691 49.8008 275.293 49.5195C275.902 49.2305 276.582 49.0859 277.332 49.0859C277.926 49.0859 278.469 49.1719 278.961 49.3438C279.453 49.5156 279.875 49.7891 280.227 50.1641C280.586 50.5391 280.859 51.0352 281.047 51.6523C281.242 52.2695 281.34 53.0234 281.34 53.9141V62H277.941V53.9023C277.941 53.3398 277.863 52.9023 277.707 52.5898C277.551 52.2773 277.32 52.0586 277.016 51.9336C276.719 51.8008 276.352 51.7344 275.914 51.7344C275.461 51.7344 275.066 51.8242 274.73 52.0039C274.402 52.1836 274.129 52.4336 273.91 52.7539C273.699 53.0664 273.539 53.4336 273.43 53.8555C273.32 54.2773 273.266 54.7305 273.266 55.2148ZM291.395 59.2344V44H294.793V62H291.734L291.395 59.2344ZM283.379 55.8125V55.5664C283.379 54.5977 283.488 53.7188 283.707 52.9297C283.926 52.1328 284.246 51.4492 284.668 50.8789C285.09 50.3086 285.609 49.8672 286.227 49.5547C286.844 49.2422 287.547 49.0859 288.336 49.0859C289.078 49.0859 289.727 49.2422 290.281 49.5547C290.844 49.8672 291.32 50.3125 291.711 50.8906C292.109 51.4609 292.43 52.1367 292.672 52.918C292.914 53.6914 293.09 54.5391 293.199 55.4609V56C293.09 56.8828 292.914 57.7031 292.672 58.4609C292.43 59.2188 292.109 59.8828 291.711 60.4531C291.32 61.0156 290.844 61.4531 290.281 61.7656C289.719 62.0781 289.062 62.2344 288.312 62.2344C287.523 62.2344 286.82 62.0742 286.203 61.7539C285.594 61.4336 285.078 60.9844 284.656 60.4062C284.242 59.8281 283.926 59.1484 283.707 58.3672C283.488 57.5859 283.379 56.7344 283.379 55.8125ZM286.754 55.5664V55.8125C286.754 56.3359 286.793 56.8242 286.871 57.2773C286.957 57.7305 287.094 58.1328 287.281 58.4844C287.477 58.8281 287.727 59.0977 288.031 59.293C288.344 59.4805 288.723 59.5742 289.168 59.5742C289.746 59.5742 290.223 59.4453 290.598 59.1875C290.973 58.9219 291.258 58.5586 291.453 58.0977C291.656 57.6367 291.773 57.1055 291.805 56.5039V54.9688C291.781 54.4766 291.711 54.0352 291.594 53.6445C291.484 53.2461 291.32 52.9062 291.102 52.625C290.891 52.3438 290.625 52.125 290.305 51.9688C289.992 51.8125 289.621 51.7344 289.191 51.7344C288.754 51.7344 288.379 51.8359 288.066 52.0391C287.754 52.2344 287.5 52.5039 287.305 52.8477C287.117 53.1914 286.977 53.5977 286.883 54.0664C286.797 54.5273 286.754 55.0273 286.754 55.5664Z" fill="#888888"/>
<path d="M109.93 86.0078V118H102.217V86.0078H109.93ZM119.554 86.0078V91.9624H92.813V86.0078H119.554ZM132.012 118.439C130.079 118.439 128.35 118.139 126.827 117.539C125.303 116.923 124.014 116.081 122.959 115.012C121.919 113.942 121.121 112.712 120.564 111.32C120.022 109.929 119.751 108.457 119.751 106.904V106.069C119.751 104.326 119.993 102.714 120.477 101.235C120.96 99.7407 121.678 98.437 122.63 97.3237C123.582 96.2104 124.776 95.3462 126.211 94.731C127.647 94.1011 129.317 93.7861 131.221 93.7861C132.906 93.7861 134.415 94.0571 135.748 94.5991C137.081 95.1411 138.208 95.9175 139.131 96.9282C140.069 97.939 140.779 99.1621 141.263 100.598C141.761 102.033 142.01 103.645 142.01 105.432V108.442H122.586V103.806H134.781V103.234C134.795 102.443 134.656 101.77 134.363 101.213C134.085 100.656 133.675 100.231 133.133 99.9385C132.591 99.6455 131.932 99.499 131.155 99.499C130.35 99.499 129.683 99.6748 129.156 100.026C128.643 100.378 128.24 100.861 127.947 101.477C127.669 102.077 127.471 102.773 127.354 103.564C127.237 104.355 127.178 105.19 127.178 106.069V106.904C127.178 107.783 127.295 108.581 127.53 109.299C127.779 110.017 128.13 110.632 128.584 111.145C129.053 111.643 129.61 112.031 130.254 112.309C130.914 112.587 131.661 112.727 132.496 112.727C133.506 112.727 134.502 112.536 135.484 112.155C136.465 111.774 137.308 111.145 138.011 110.266L141.373 114.265C140.889 114.953 140.201 115.62 139.307 116.264C138.428 116.909 137.374 117.436 136.143 117.846C134.913 118.242 133.536 118.439 132.012 118.439ZM155.062 112.727C155.75 112.727 156.336 112.602 156.819 112.353C157.317 112.089 157.691 111.723 157.94 111.254C158.204 110.771 158.328 110.192 158.313 109.519H165.279C165.293 111.306 164.854 112.873 163.96 114.221C163.082 115.554 161.88 116.594 160.357 117.341C158.848 118.073 157.142 118.439 155.237 118.439C153.377 118.439 151.751 118.139 150.359 117.539C148.968 116.923 147.803 116.074 146.866 114.99C145.943 113.891 145.247 112.609 144.778 111.145C144.324 109.68 144.097 108.09 144.097 106.376V105.871C144.097 104.157 144.324 102.568 144.778 101.103C145.247 99.6235 145.943 98.3418 146.866 97.2578C147.803 96.1592 148.96 95.3096 150.337 94.709C151.729 94.0938 153.348 93.7861 155.193 93.7861C157.171 93.7861 158.914 94.1597 160.423 94.9067C161.946 95.6538 163.14 96.7378 164.004 98.1587C164.869 99.5796 165.293 101.301 165.279 103.322H158.313C158.328 102.604 158.218 101.96 157.984 101.389C157.75 100.817 157.383 100.363 156.885 100.026C156.402 99.6748 155.779 99.499 155.018 99.499C154.256 99.499 153.641 99.6675 153.172 100.004C152.703 100.341 152.344 100.81 152.095 101.411C151.861 101.997 151.7 102.67 151.612 103.432C151.539 104.194 151.502 105.007 151.502 105.871V106.376C151.502 107.255 151.539 108.083 151.612 108.859C151.7 109.621 151.868 110.295 152.117 110.881C152.366 111.452 152.725 111.906 153.194 112.243C153.663 112.565 154.285 112.727 155.062 112.727ZM175.694 84.25V118H168.289V84.25H175.694ZM174.815 105.3L173.079 105.344C173.079 103.674 173.284 102.136 173.694 100.729C174.104 99.3232 174.69 98.1001 175.452 97.0601C176.214 96.02 177.129 95.2144 178.199 94.6431C179.268 94.0718 180.455 93.7861 181.758 93.7861C182.93 93.7861 184 93.9546 184.966 94.2915C185.948 94.6284 186.79 95.1704 187.493 95.9175C188.211 96.6646 188.76 97.6387 189.141 98.8398C189.537 100.041 189.734 101.506 189.734 103.234V118H182.286V103.19C182.286 102.224 182.146 101.477 181.868 100.949C181.604 100.407 181.224 100.034 180.726 99.8286C180.228 99.6089 179.62 99.499 178.902 99.499C178.038 99.499 177.334 99.6455 176.792 99.9385C176.25 100.231 175.833 100.642 175.54 101.169C175.262 101.682 175.071 102.29 174.969 102.993C174.866 103.696 174.815 104.465 174.815 105.3ZM221.88 109.497C221.88 108.999 221.807 108.552 221.661 108.156C221.514 107.746 221.243 107.365 220.848 107.014C220.452 106.662 219.881 106.311 219.134 105.959C218.401 105.593 217.435 105.212 216.233 104.816C214.827 104.348 213.472 103.82 212.168 103.234C210.865 102.634 209.7 101.938 208.675 101.147C207.649 100.341 206.836 99.4038 206.236 98.3345C205.635 97.2505 205.335 95.9907 205.335 94.5552C205.335 93.1782 205.643 91.9404 206.258 90.8418C206.873 89.7285 207.73 88.7837 208.829 88.0073C209.942 87.2163 211.246 86.6157 212.74 86.2056C214.234 85.7808 215.867 85.5684 217.64 85.5684C219.983 85.5684 222.049 85.9785 223.836 86.7988C225.638 87.6045 227.044 88.7544 228.055 90.2485C229.08 91.728 229.593 93.4785 229.593 95.5H221.924C221.924 94.6943 221.756 93.9839 221.419 93.3687C221.097 92.7534 220.606 92.27 219.947 91.9185C219.288 91.5669 218.46 91.3911 217.464 91.3911C216.497 91.3911 215.684 91.5376 215.025 91.8306C214.366 92.1235 213.868 92.519 213.531 93.0171C213.194 93.5005 213.025 94.0352 213.025 94.6211C213.025 95.1045 213.157 95.5439 213.421 95.9395C213.699 96.3203 214.087 96.6792 214.585 97.0161C215.098 97.353 215.713 97.6753 216.431 97.9829C217.164 98.2905 217.984 98.5908 218.892 98.8838C220.591 99.4258 222.1 100.034 223.418 100.708C224.751 101.367 225.872 102.121 226.78 102.971C227.703 103.806 228.399 104.758 228.868 105.827C229.351 106.896 229.593 108.105 229.593 109.453C229.593 110.888 229.314 112.163 228.758 113.276C228.201 114.389 227.403 115.334 226.363 116.11C225.323 116.872 224.078 117.451 222.627 117.846C221.177 118.242 219.559 118.439 217.771 118.439C216.131 118.439 214.512 118.234 212.916 117.824C211.333 117.399 209.898 116.755 208.609 115.891C207.32 115.012 206.287 113.891 205.511 112.529C204.749 111.152 204.368 109.519 204.368 107.629H212.103C212.103 108.566 212.227 109.357 212.476 110.002C212.725 110.646 213.091 111.167 213.575 111.562C214.058 111.943 214.651 112.221 215.354 112.397C216.058 112.558 216.863 112.639 217.771 112.639C218.753 112.639 219.544 112.5 220.145 112.221C220.745 111.928 221.185 111.547 221.463 111.079C221.741 110.595 221.88 110.068 221.88 109.497ZM245.743 94.2256V99.3672H231.417V94.2256H245.743ZM234.427 88.3149H241.832V110.244C241.832 110.874 241.905 111.364 242.051 111.716C242.198 112.053 242.447 112.294 242.798 112.441C243.165 112.573 243.648 112.639 244.249 112.639C244.673 112.639 245.025 112.631 245.303 112.617C245.582 112.587 245.845 112.551 246.094 112.507V117.802C245.464 118.007 244.805 118.161 244.117 118.264C243.428 118.381 242.696 118.439 241.919 118.439C240.337 118.439 238.982 118.19 237.854 117.692C236.741 117.194 235.892 116.411 235.306 115.341C234.72 114.272 234.427 112.88 234.427 111.167V88.3149ZM261.036 112.023V102.224C261.036 101.55 260.94 100.971 260.75 100.488C260.56 100.004 260.259 99.6309 259.849 99.3672C259.439 99.0889 258.89 98.9497 258.201 98.9497C257.645 98.9497 257.168 99.0449 256.773 99.2354C256.377 99.4258 256.077 99.7114 255.872 100.092C255.667 100.473 255.564 100.957 255.564 101.542H248.16C248.16 100.444 248.401 99.4258 248.885 98.4883C249.383 97.5361 250.086 96.7085 250.994 96.0054C251.917 95.3022 253.016 94.7603 254.29 94.3794C255.579 93.9839 257.015 93.7861 258.597 93.7861C260.486 93.7861 262.171 94.1011 263.65 94.731C265.145 95.3608 266.324 96.3057 267.188 97.5654C268.052 98.8105 268.484 100.378 268.484 102.268V112.001C268.484 113.554 268.572 114.733 268.748 115.539C268.924 116.33 269.173 117.026 269.495 117.626V118H262.068C261.717 117.268 261.453 116.374 261.277 115.319C261.116 114.25 261.036 113.151 261.036 112.023ZM261.937 103.476L261.98 107.431H258.707C258.018 107.431 257.432 107.526 256.949 107.717C256.48 107.907 256.099 108.171 255.806 108.508C255.528 108.83 255.323 109.196 255.191 109.606C255.074 110.017 255.015 110.449 255.015 110.903C255.015 111.342 255.118 111.738 255.323 112.089C255.542 112.426 255.835 112.69 256.202 112.88C256.568 113.071 256.978 113.166 257.432 113.166C258.252 113.166 258.948 113.012 259.52 112.705C260.105 112.382 260.552 111.994 260.86 111.54C261.167 111.086 261.321 110.661 261.321 110.266L262.947 113.298C262.654 113.884 262.317 114.477 261.937 115.078C261.57 115.678 261.109 116.235 260.552 116.748C260.01 117.246 259.344 117.656 258.553 117.978C257.762 118.286 256.802 118.439 255.674 118.439C254.209 118.439 252.862 118.139 251.631 117.539C250.416 116.938 249.441 116.103 248.709 115.034C247.977 113.95 247.61 112.705 247.61 111.298C247.61 110.068 247.83 108.969 248.27 108.002C248.724 107.036 249.405 106.215 250.313 105.542C251.221 104.868 252.378 104.355 253.785 104.003C255.191 103.652 256.846 103.476 258.75 103.476H261.937ZM282.635 112.727C283.323 112.727 283.909 112.602 284.393 112.353C284.891 112.089 285.264 111.723 285.513 111.254C285.777 110.771 285.901 110.192 285.887 109.519H292.852C292.867 111.306 292.427 112.873 291.534 114.221C290.655 115.554 289.454 116.594 287.93 117.341C286.421 118.073 284.715 118.439 282.811 118.439C280.95 118.439 279.324 118.139 277.933 117.539C276.541 116.923 275.376 116.074 274.439 114.99C273.516 113.891 272.82 112.609 272.352 111.145C271.897 109.68 271.67 108.09 271.67 106.376V105.871C271.67 104.157 271.897 102.568 272.352 101.103C272.82 99.6235 273.516 98.3418 274.439 97.2578C275.376 96.1592 276.534 95.3096 277.911 94.709C279.302 94.0938 280.921 93.7861 282.767 93.7861C284.744 93.7861 286.487 94.1597 287.996 94.9067C289.52 95.6538 290.713 96.7378 291.578 98.1587C292.442 99.5796 292.867 101.301 292.852 103.322H285.887C285.901 102.604 285.792 101.96 285.557 101.389C285.323 100.817 284.957 100.363 284.458 100.026C283.975 99.6748 283.353 99.499 282.591 99.499C281.829 99.499 281.214 99.6675 280.745 100.004C280.276 100.341 279.917 100.81 279.668 101.411C279.434 101.997 279.273 102.67 279.185 103.432C279.112 104.194 279.075 105.007 279.075 105.871V106.376C279.075 107.255 279.112 108.083 279.185 108.859C279.273 109.621 279.441 110.295 279.69 110.881C279.939 111.452 280.298 111.906 280.767 112.243C281.236 112.565 281.858 112.727 282.635 112.727ZM303.487 84.228V118H296.082V84.228H303.487ZM318.692 94.2256L308.365 106.333L302.959 111.738L299.729 107.036L304.234 101.169L309.815 94.2256H318.692ZM310.76 118L304.41 107.167L309.881 103.278L319.241 118H310.76Z" fill="#424241"/>
<path d="M1363 15C1363 6.71573 1356.28 0 1348 0H1134V167H1348C1356.28 167 1363 160.284 1363 152V15Z" fill="#355085"/>
<path fill-rule="evenodd" clip-rule="evenodd" d="M1218.5 55C1218.37 55 1218.24 55.0527 1218.15 55.1464C1218.05 55.2402 1218 55.3674 1218 55.5V111.5C1218 111.633 1218.05 111.76 1218.15 111.854C1218.24 111.947 1218.37 112 1218.5 112H1278C1278.13 112 1278.26 111.947 1278.35 111.854C1278.45 111.76 1278.5 111.633 1278.5 111.5V66C1278.5 65.8674 1278.45 65.7402 1278.35 65.6464C1278.26 65.5527 1278.13 65.5 1278 65.5H1248.25C1247.36 65.5 1246.52 65.1045 1245.95 64.4206L1238.09 55H1218.5ZM1213.9 50.9038C1215.12 49.6848 1216.78 49 1218.5 49H1239.5C1240.39 49 1241.23 49.3955 1241.8 50.0794L1249.66 59.5H1278C1279.72 59.5 1281.38 60.1848 1282.6 61.4038C1283.82 62.6228 1284.5 64.2761 1284.5 66V111.5C1284.5 113.224 1283.82 114.877 1282.6 116.096C1281.38 117.315 1279.72 118 1278 118H1218.5C1216.78 118 1215.12 117.315 1213.9 116.096C1212.68 114.877 1212 113.224 1212 111.5V55.5C1212 53.7761 1212.68 52.1228 1213.9 50.9038Z" fill="white"/>
<path fill-rule="evenodd" clip-rule="evenodd" d="M1243.72 77.5251C1245.09 78.892 1245.09 81.108 1243.72 82.4749L1237.45 88.75L1243.72 95.0251C1245.09 96.392 1245.09 98.608 1243.72 99.9749C1242.36 101.342 1240.14 101.342 1238.78 99.9749L1230.03 91.2249C1228.66 89.858 1228.66 87.642 1230.03 86.2751L1238.78 77.5251C1240.14 76.1583 1242.36 76.1583 1243.72 77.5251Z" fill="white"/>
<path fill-rule="evenodd" clip-rule="evenodd" d="M1252.03 99.9749C1250.66 98.608 1250.66 96.392 1252.03 95.0251L1258.3 88.75L1252.03 82.4749C1250.66 81.108 1250.66 78.892 1252.03 77.5251C1253.39 76.1583 1255.61 76.1583 1256.97 77.5251L1265.72 86.2751C1267.09 87.642 1267.09 89.858 1265.72 91.2249L1256.97 99.9749C1255.61 101.342 1253.39 101.342 1252.03 99.9749Z" fill="white"/>
</svg>
