<svg width="1363" height="167" viewBox="0 0 1363 167" fill="none" xmlns="http://www.w3.org/2000/svg">
<rect width="1363" height="167" rx="15" fill="#F0F0F0"/>
<path d="M0 15C0 6.71573 6.71573 0 15 0H37V167H15C6.71573 167 0 160.284 0 152V15Z" fill="#424241"/>
<path d="M100.906 54.9219L93.3945 52.2383V49.0859L103.602 53.375V55.6367L100.906 54.9219ZM93.3945 57.1719L100.918 54.4297L103.602 53.7852V56.0352L93.3945 60.3242V57.1719ZM120.781 57.5352C120.781 57.2305 120.734 56.957 120.641 56.7148C120.555 56.4648 120.391 56.2383 120.148 56.0352C119.906 55.8242 119.566 55.6172 119.129 55.4141C118.691 55.2109 118.125 55 117.43 54.7812C116.656 54.5312 115.922 54.25 115.227 53.9375C114.539 53.625 113.93 53.2617 113.398 52.8477C112.875 52.4258 112.461 51.9375 112.156 51.3828C111.859 50.8281 111.711 50.1836 111.711 49.4492C111.711 48.7383 111.867 48.0938 112.18 47.5156C112.492 46.9297 112.93 46.4297 113.492 46.0156C114.055 45.5938 114.719 45.2695 115.484 45.043C116.258 44.8164 117.105 44.7031 118.027 44.7031C119.285 44.7031 120.383 44.9297 121.32 45.3828C122.258 45.8359 122.984 46.457 123.5 47.2461C124.023 48.0352 124.285 48.9375 124.285 49.9531H120.793C120.793 49.4531 120.688 49.0156 120.477 48.6406C120.273 48.2578 119.961 47.957 119.539 47.7383C119.125 47.5195 118.602 47.4102 117.969 47.4102C117.359 47.4102 116.852 47.5039 116.445 47.6914C116.039 47.8711 115.734 48.1172 115.531 48.4297C115.328 48.7344 115.227 49.0781 115.227 49.4609C115.227 49.75 115.297 50.0117 115.438 50.2461C115.586 50.4805 115.805 50.6992 116.094 50.9023C116.383 51.1055 116.738 51.2969 117.16 51.4766C117.582 51.6562 118.07 51.832 118.625 52.0039C119.555 52.2852 120.371 52.6016 121.074 52.9531C121.785 53.3047 122.379 53.6992 122.855 54.1367C123.332 54.5742 123.691 55.0703 123.934 55.625C124.176 56.1797 124.297 56.8086 124.297 57.5117C124.297 58.2539 124.152 58.918 123.863 59.5039C123.574 60.0898 123.156 60.5859 122.609 60.9922C122.062 61.3984 121.41 61.707 120.652 61.918C119.895 62.1289 119.047 62.2344 118.109 62.2344C117.266 62.2344 116.434 62.125 115.613 61.9062C114.793 61.6797 114.047 61.3398 113.375 60.8867C112.711 60.4336 112.18 59.8555 111.781 59.1523C111.383 58.4492 111.184 57.6172 111.184 56.6562H114.711C114.711 57.1875 114.793 57.6367 114.957 58.0039C115.121 58.3711 115.352 58.668 115.648 58.8945C115.953 59.1211 116.312 59.2852 116.727 59.3867C117.148 59.4883 117.609 59.5391 118.109 59.5391C118.719 59.5391 119.219 59.4531 119.609 59.2812C120.008 59.1094 120.301 58.8711 120.488 58.5664C120.684 58.2617 120.781 57.918 120.781 57.5352ZM129.77 44V62H126.395V44H129.77ZM129.289 55.2148H128.363C128.371 54.332 128.488 53.5195 128.715 52.7773C128.941 52.0273 129.266 51.3789 129.688 50.832C130.109 50.2773 130.613 49.8477 131.199 49.543C131.793 49.2383 132.449 49.0859 133.168 49.0859C133.793 49.0859 134.359 49.1758 134.867 49.3555C135.383 49.5273 135.824 49.8086 136.191 50.1992C136.566 50.582 136.855 51.0859 137.059 51.7109C137.262 52.3359 137.363 53.0938 137.363 53.9844V62H133.965V53.9609C133.965 53.3984 133.883 52.957 133.719 52.6367C133.562 52.3086 133.332 52.0781 133.027 51.9453C132.73 51.8047 132.363 51.7344 131.926 51.7344C131.441 51.7344 131.027 51.8242 130.684 52.0039C130.348 52.1836 130.078 52.4336 129.875 52.7539C129.672 53.0664 129.523 53.4336 129.43 53.8555C129.336 54.2773 129.289 54.7305 129.289 55.2148ZM146.773 59.1406V53.4922C146.773 53.0859 146.707 52.7383 146.574 52.4492C146.441 52.1523 146.234 51.9219 145.953 51.7578C145.68 51.5938 145.324 51.5117 144.887 51.5117C144.512 51.5117 144.188 51.5781 143.914 51.7109C143.641 51.8359 143.43 52.0195 143.281 52.2617C143.133 52.4961 143.059 52.7734 143.059 53.0938H139.684C139.684 52.5547 139.809 52.043 140.059 51.5586C140.309 51.0742 140.672 50.6484 141.148 50.2812C141.625 49.9062 142.191 49.6133 142.848 49.4023C143.512 49.1914 144.254 49.0859 145.074 49.0859C146.059 49.0859 146.934 49.25 147.699 49.5781C148.465 49.9062 149.066 50.3984 149.504 51.0547C149.949 51.7109 150.172 52.5312 150.172 53.5156V58.9414C150.172 59.6367 150.215 60.207 150.301 60.6523C150.387 61.0898 150.512 61.4727 150.676 61.8008V62H147.266C147.102 61.6562 146.977 61.2266 146.891 60.7109C146.812 60.1875 146.773 59.6641 146.773 59.1406ZM147.219 54.2773L147.242 56.1875H145.355C144.91 56.1875 144.523 56.2383 144.195 56.3398C143.867 56.4414 143.598 56.5859 143.387 56.7734C143.176 56.9531 143.02 57.1641 142.918 57.4062C142.824 57.6484 142.777 57.9141 142.777 58.2031C142.777 58.4922 142.844 58.7539 142.977 58.9883C143.109 59.2148 143.301 59.3945 143.551 59.5273C143.801 59.6523 144.094 59.7148 144.43 59.7148C144.938 59.7148 145.379 59.6133 145.754 59.4102C146.129 59.207 146.418 58.957 146.621 58.6602C146.832 58.3633 146.941 58.082 146.949 57.8164L147.84 59.2461C147.715 59.5664 147.543 59.8984 147.324 60.2422C147.113 60.5859 146.844 60.9102 146.516 61.2148C146.188 61.5117 145.793 61.7578 145.332 61.9531C144.871 62.1406 144.324 62.2344 143.691 62.2344C142.887 62.2344 142.156 62.0742 141.5 61.7539C140.852 61.4258 140.336 60.9766 139.953 60.4062C139.578 59.8281 139.391 59.1719 139.391 58.4375C139.391 57.7734 139.516 57.1836 139.766 56.668C140.016 56.1523 140.383 55.7188 140.867 55.3672C141.359 55.0078 141.973 54.7383 142.707 54.5586C143.441 54.3711 144.293 54.2773 145.262 54.2773H147.219ZM156.148 51.7578V66.875H152.773V49.3203H155.902L156.148 51.7578ZM164.176 55.5195V55.7656C164.176 56.6875 164.066 57.543 163.848 58.332C163.637 59.1211 163.324 59.8086 162.91 60.3945C162.496 60.9727 161.98 61.4258 161.363 61.7539C160.754 62.0742 160.051 62.2344 159.254 62.2344C158.48 62.2344 157.809 62.0781 157.238 61.7656C156.668 61.4531 156.188 61.0156 155.797 60.4531C155.414 59.8828 155.105 59.2227 154.871 58.4727C154.637 57.7227 154.457 56.918 154.332 56.0586V55.4141C154.457 54.4922 154.637 53.6484 154.871 52.8828C155.105 52.1094 155.414 51.4414 155.797 50.8789C156.188 50.3086 156.664 49.8672 157.227 49.5547C157.797 49.2422 158.465 49.0859 159.23 49.0859C160.035 49.0859 160.742 49.2383 161.352 49.543C161.969 49.8477 162.484 50.2852 162.898 50.8555C163.32 51.4258 163.637 52.1055 163.848 52.8945C164.066 53.6836 164.176 54.5586 164.176 55.5195ZM160.789 55.7656V55.5195C160.789 54.9805 160.742 54.4844 160.648 54.0312C160.562 53.5703 160.422 53.168 160.227 52.8242C160.039 52.4805 159.789 52.2148 159.477 52.0273C159.172 51.832 158.801 51.7344 158.363 51.7344C157.902 51.7344 157.508 51.8086 157.18 51.957C156.859 52.1055 156.598 52.3203 156.395 52.6016C156.191 52.8828 156.039 53.2188 155.938 53.6094C155.836 54 155.773 54.4414 155.75 54.9336V56.5625C155.789 57.1406 155.898 57.6602 156.078 58.1211C156.258 58.5742 156.535 58.9336 156.91 59.1992C157.285 59.4648 157.777 59.5977 158.387 59.5977C158.832 59.5977 159.207 59.5 159.512 59.3047C159.816 59.1016 160.062 58.8242 160.25 58.4727C160.445 58.1211 160.582 57.7148 160.66 57.2539C160.746 56.793 160.789 56.2969 160.789 55.7656ZM172.109 62.2344C171.125 62.2344 170.242 62.0781 169.461 61.7656C168.68 61.4453 168.016 61.0039 167.469 60.4414C166.93 59.8789 166.516 59.2266 166.227 58.4844C165.938 57.7344 165.793 56.9375 165.793 56.0938V55.625C165.793 54.6641 165.93 53.7852 166.203 52.9883C166.477 52.1914 166.867 51.5 167.375 50.9141C167.891 50.3281 168.516 49.8789 169.25 49.5664C169.984 49.2461 170.812 49.0859 171.734 49.0859C172.633 49.0859 173.43 49.2344 174.125 49.5312C174.82 49.8281 175.402 50.25 175.871 50.7969C176.348 51.3438 176.707 52 176.949 52.7656C177.191 53.5234 177.312 54.3672 177.312 55.2969V56.7031H167.234V54.4531H173.996V54.1953C173.996 53.7266 173.91 53.3086 173.738 52.9414C173.574 52.5664 173.324 52.2695 172.988 52.0508C172.652 51.832 172.223 51.7227 171.699 51.7227C171.254 51.7227 170.871 51.8203 170.551 52.0156C170.23 52.2109 169.969 52.4844 169.766 52.8359C169.57 53.1875 169.422 53.6016 169.32 54.0781C169.227 54.5469 169.18 55.0625 169.18 55.625V56.0938C169.18 56.6016 169.25 57.0703 169.391 57.5C169.539 57.9297 169.746 58.3008 170.012 58.6133C170.285 58.9258 170.613 59.168 170.996 59.3398C171.387 59.5117 171.828 59.5977 172.32 59.5977C172.93 59.5977 173.496 59.4805 174.02 59.2461C174.551 59.0039 175.008 58.6406 175.391 58.1562L177.031 59.9375C176.766 60.3203 176.402 60.6875 175.941 61.0391C175.488 61.3906 174.941 61.6797 174.301 61.9062C173.66 62.125 172.93 62.2344 172.109 62.2344ZM186.09 58.4961C186.09 58.2539 186.02 58.0352 185.879 57.8398C185.738 57.6445 185.477 57.4648 185.094 57.3008C184.719 57.1289 184.176 56.9727 183.465 56.832C182.824 56.6914 182.227 56.5156 181.672 56.3047C181.125 56.0859 180.648 55.8242 180.242 55.5195C179.844 55.2148 179.531 54.8555 179.305 54.4414C179.078 54.0195 178.965 53.5391 178.965 53C178.965 52.4688 179.078 51.9688 179.305 51.5C179.539 51.0312 179.871 50.6172 180.301 50.2578C180.738 49.8906 181.27 49.6055 181.895 49.4023C182.527 49.1914 183.238 49.0859 184.027 49.0859C185.129 49.0859 186.074 49.2617 186.863 49.6133C187.66 49.9648 188.27 50.4492 188.691 51.0664C189.121 51.6758 189.336 52.3711 189.336 53.1523H185.961C185.961 52.8242 185.891 52.5312 185.75 52.2734C185.617 52.0078 185.406 51.8008 185.117 51.6523C184.836 51.4961 184.469 51.418 184.016 51.418C183.641 51.418 183.316 51.4844 183.043 51.6172C182.77 51.7422 182.559 51.9141 182.41 52.1328C182.27 52.3438 182.199 52.5781 182.199 52.8359C182.199 53.0312 182.238 53.207 182.316 53.3633C182.402 53.5117 182.539 53.6484 182.727 53.7734C182.914 53.8984 183.156 54.0156 183.453 54.125C183.758 54.2266 184.133 54.3203 184.578 54.4062C185.492 54.5938 186.309 54.8398 187.027 55.1445C187.746 55.4414 188.316 55.8477 188.738 56.3633C189.16 56.8711 189.371 57.5391 189.371 58.3672C189.371 58.9297 189.246 59.4453 188.996 59.9141C188.746 60.3828 188.387 60.793 187.918 61.1445C187.449 61.4883 186.887 61.7578 186.23 61.9531C185.582 62.1406 184.852 62.2344 184.039 62.2344C182.859 62.2344 181.859 62.0234 181.039 61.6016C180.227 61.1797 179.609 60.6445 179.188 59.9961C178.773 59.3398 178.566 58.668 178.566 57.9805H181.766C181.781 58.4414 181.898 58.8125 182.117 59.0938C182.344 59.375 182.629 59.5781 182.973 59.7031C183.324 59.8281 183.703 59.8906 184.109 59.8906C184.547 59.8906 184.91 59.832 185.199 59.7148C185.488 59.5898 185.707 59.4258 185.855 59.2227C186.012 59.0117 186.09 58.7695 186.09 58.4961ZM211.766 53.0703V53.8789C211.766 55.1758 211.59 56.3398 211.238 57.3711C210.887 58.4023 210.391 59.2812 209.75 60.0078C209.109 60.7266 208.344 61.2773 207.453 61.6602C206.57 62.043 205.59 62.2344 204.512 62.2344C203.441 62.2344 202.461 62.043 201.57 61.6602C200.688 61.2773 199.922 60.7266 199.273 60.0078C198.625 59.2812 198.121 58.4023 197.762 57.3711C197.41 56.3398 197.234 55.1758 197.234 53.8789V53.0703C197.234 51.7656 197.41 50.6016 197.762 49.5781C198.113 48.5469 198.609 47.668 199.25 46.9414C199.898 46.2148 200.664 45.6602 201.547 45.2773C202.438 44.8945 203.418 44.7031 204.488 44.7031C205.566 44.7031 206.547 44.8945 207.43 45.2773C208.32 45.6602 209.086 46.2148 209.727 46.9414C210.375 47.668 210.875 48.5469 211.227 49.5781C211.586 50.6016 211.766 51.7656 211.766 53.0703ZM208.215 53.8789V53.0469C208.215 52.1406 208.133 51.3438 207.969 50.6562C207.805 49.9688 207.562 49.3906 207.242 48.9219C206.922 48.4531 206.531 48.1016 206.07 47.8672C205.609 47.625 205.082 47.5039 204.488 47.5039C203.895 47.5039 203.367 47.625 202.906 47.8672C202.453 48.1016 202.066 48.4531 201.746 48.9219C201.434 49.3906 201.195 49.9688 201.031 50.6562C200.867 51.3438 200.785 52.1406 200.785 53.0469V53.8789C200.785 54.7773 200.867 55.5742 201.031 56.2695C201.195 56.957 201.438 57.5391 201.758 58.0156C202.078 58.4844 202.469 58.8398 202.93 59.082C203.391 59.3242 203.918 59.4453 204.512 59.4453C205.105 59.4453 205.633 59.3242 206.094 59.082C206.555 58.8398 206.941 58.4844 207.254 58.0156C207.566 57.5391 207.805 56.957 207.969 56.2695C208.133 55.5742 208.215 54.7773 208.215 53.8789ZM218.387 62H214.988V48.1953C214.988 47.2344 215.176 46.4258 215.551 45.7695C215.934 45.1055 216.469 44.6055 217.156 44.2695C217.852 43.9258 218.676 43.7539 219.629 43.7539C219.941 43.7539 220.242 43.7773 220.531 43.8242C220.82 43.8633 221.102 43.9141 221.375 43.9766L221.34 46.5195C221.191 46.4805 221.035 46.4531 220.871 46.4375C220.707 46.4219 220.516 46.4141 220.297 46.4141C219.891 46.4141 219.543 46.4844 219.254 46.625C218.973 46.7578 218.758 46.957 218.609 47.2227C218.461 47.4883 218.387 47.8125 218.387 48.1953V62ZM220.918 49.3203V51.7109H213.102V49.3203H220.918ZM237.758 57.5352C237.758 57.2305 237.711 56.957 237.617 56.7148C237.531 56.4648 237.367 56.2383 237.125 56.0352C236.883 55.8242 236.543 55.6172 236.105 55.4141C235.668 55.2109 235.102 55 234.406 54.7812C233.633 54.5312 232.898 54.25 232.203 53.9375C231.516 53.625 230.906 53.2617 230.375 52.8477C229.852 52.4258 229.438 51.9375 229.133 51.3828C228.836 50.8281 228.688 50.1836 228.688 49.4492C228.688 48.7383 228.844 48.0938 229.156 47.5156C229.469 46.9297 229.906 46.4297 230.469 46.0156C231.031 45.5938 231.695 45.2695 232.461 45.043C233.234 44.8164 234.082 44.7031 235.004 44.7031C236.262 44.7031 237.359 44.9297 238.297 45.3828C239.234 45.8359 239.961 46.457 240.477 47.2461C241 48.0352 241.262 48.9375 241.262 49.9531H237.77C237.77 49.4531 237.664 49.0156 237.453 48.6406C237.25 48.2578 236.938 47.957 236.516 47.7383C236.102 47.5195 235.578 47.4102 234.945 47.4102C234.336 47.4102 233.828 47.5039 233.422 47.6914C233.016 47.8711 232.711 48.1172 232.508 48.4297C232.305 48.7344 232.203 49.0781 232.203 49.4609C232.203 49.75 232.273 50.0117 232.414 50.2461C232.562 50.4805 232.781 50.6992 233.07 50.9023C233.359 51.1055 233.715 51.2969 234.137 51.4766C234.559 51.6562 235.047 51.832 235.602 52.0039C236.531 52.2852 237.348 52.6016 238.051 52.9531C238.762 53.3047 239.355 53.6992 239.832 54.1367C240.309 54.5742 240.668 55.0703 240.91 55.625C241.152 56.1797 241.273 56.8086 241.273 57.5117C241.273 58.2539 241.129 58.918 240.84 59.5039C240.551 60.0898 240.133 60.5859 239.586 60.9922C239.039 61.3984 238.387 61.707 237.629 61.918C236.871 62.1289 236.023 62.2344 235.086 62.2344C234.242 62.2344 233.41 62.125 232.59 61.9062C231.77 61.6797 231.023 61.3398 230.352 60.8867C229.688 60.4336 229.156 59.8555 228.758 59.1523C228.359 58.4492 228.16 57.6172 228.16 56.6562H231.688C231.688 57.1875 231.77 57.6367 231.934 58.0039C232.098 58.3711 232.328 58.668 232.625 58.8945C232.93 59.1211 233.289 59.2852 233.703 59.3867C234.125 59.4883 234.586 59.5391 235.086 59.5391C235.695 59.5391 236.195 59.4531 236.586 59.2812C236.984 59.1094 237.277 58.8711 237.465 58.5664C237.66 58.2617 237.758 57.918 237.758 57.5352ZM242.914 55.7891V55.543C242.914 54.6133 243.047 53.7578 243.312 52.9766C243.578 52.1875 243.965 51.5039 244.473 50.9258C244.98 50.3477 245.605 49.8984 246.348 49.5781C247.09 49.25 247.941 49.0859 248.902 49.0859C249.863 49.0859 250.719 49.25 251.469 49.5781C252.219 49.8984 252.848 50.3477 253.355 50.9258C253.871 51.5039 254.262 52.1875 254.527 52.9766C254.793 53.7578 254.926 54.6133 254.926 55.543V55.7891C254.926 56.7109 254.793 57.5664 254.527 58.3555C254.262 59.1367 253.871 59.8203 253.355 60.4062C252.848 60.9844 252.223 61.4336 251.48 61.7539C250.738 62.0742 249.887 62.2344 248.926 62.2344C247.965 62.2344 247.109 62.0742 246.359 61.7539C245.617 61.4336 244.988 60.9844 244.473 60.4062C243.965 59.8203 243.578 59.1367 243.312 58.3555C243.047 57.5664 242.914 56.7109 242.914 55.7891ZM246.289 55.543V55.7891C246.289 56.3203 246.336 56.8164 246.43 57.2773C246.523 57.7383 246.672 58.1445 246.875 58.4961C247.086 58.8398 247.359 59.1094 247.695 59.3047C248.031 59.5 248.441 59.5977 248.926 59.5977C249.395 59.5977 249.797 59.5 250.133 59.3047C250.469 59.1094 250.738 58.8398 250.941 58.4961C251.145 58.1445 251.293 57.7383 251.387 57.2773C251.488 56.8164 251.539 56.3203 251.539 55.7891V55.543C251.539 55.0273 251.488 54.543 251.387 54.0898C251.293 53.6289 251.141 53.2227 250.93 52.8711C250.727 52.5117 250.457 52.2305 250.121 52.0273C249.785 51.8242 249.379 51.7227 248.902 51.7227C248.426 51.7227 248.02 51.8242 247.684 52.0273C247.355 52.2305 247.086 52.5117 246.875 52.8711C246.672 53.2227 246.523 53.6289 246.43 54.0898C246.336 54.543 246.289 55.0273 246.289 55.543ZM264.5 58.9648V49.3203H267.875V62H264.699L264.5 58.9648ZM264.875 56.3633L265.871 56.3398C265.871 57.1836 265.773 57.9688 265.578 58.6953C265.383 59.4141 265.09 60.0391 264.699 60.5703C264.309 61.0938 263.816 61.5039 263.223 61.8008C262.629 62.0898 261.93 62.2344 261.125 62.2344C260.508 62.2344 259.938 62.1484 259.414 61.9766C258.898 61.7969 258.453 61.5195 258.078 61.1445C257.711 60.7617 257.422 60.2734 257.211 59.6797C257.008 59.0781 256.906 58.3555 256.906 57.5117V49.3203H260.281V57.5352C260.281 57.9102 260.324 58.2266 260.41 58.4844C260.504 58.7422 260.633 58.9531 260.797 59.1172C260.961 59.2812 261.152 59.3984 261.371 59.4688C261.598 59.5391 261.848 59.5742 262.121 59.5742C262.816 59.5742 263.363 59.4336 263.762 59.1523C264.168 58.8711 264.453 58.4883 264.617 58.0039C264.789 57.5117 264.875 56.9648 264.875 56.3633ZM273.758 52.0273V62H270.383V49.3203H273.547L273.758 52.0273ZM273.266 55.2148H272.352C272.352 54.2773 272.473 53.4336 272.715 52.6836C272.957 51.9258 273.297 51.2812 273.734 50.75C274.172 50.2109 274.691 49.8008 275.293 49.5195C275.902 49.2305 276.582 49.0859 277.332 49.0859C277.926 49.0859 278.469 49.1719 278.961 49.3438C279.453 49.5156 279.875 49.7891 280.227 50.1641C280.586 50.5391 280.859 51.0352 281.047 51.6523C281.242 52.2695 281.34 53.0234 281.34 53.9141V62H277.941V53.9023C277.941 53.3398 277.863 52.9023 277.707 52.5898C277.551 52.2773 277.32 52.0586 277.016 51.9336C276.719 51.8008 276.352 51.7344 275.914 51.7344C275.461 51.7344 275.066 51.8242 274.73 52.0039C274.402 52.1836 274.129 52.4336 273.91 52.7539C273.699 53.0664 273.539 53.4336 273.43 53.8555C273.32 54.2773 273.266 54.7305 273.266 55.2148ZM291.395 59.2344V44H294.793V62H291.734L291.395 59.2344ZM283.379 55.8125V55.5664C283.379 54.5977 283.488 53.7188 283.707 52.9297C283.926 52.1328 284.246 51.4492 284.668 50.8789C285.09 50.3086 285.609 49.8672 286.227 49.5547C286.844 49.2422 287.547 49.0859 288.336 49.0859C289.078 49.0859 289.727 49.2422 290.281 49.5547C290.844 49.8672 291.32 50.3125 291.711 50.8906C292.109 51.4609 292.43 52.1367 292.672 52.918C292.914 53.6914 293.09 54.5391 293.199 55.4609V56C293.09 56.8828 292.914 57.7031 292.672 58.4609C292.43 59.2188 292.109 59.8828 291.711 60.4531C291.32 61.0156 290.844 61.4531 290.281 61.7656C289.719 62.0781 289.062 62.2344 288.312 62.2344C287.523 62.2344 286.82 62.0742 286.203 61.7539C285.594 61.4336 285.078 60.9844 284.656 60.4062C284.242 59.8281 283.926 59.1484 283.707 58.3672C283.488 57.5859 283.379 56.7344 283.379 55.8125ZM286.754 55.5664V55.8125C286.754 56.3359 286.793 56.8242 286.871 57.2773C286.957 57.7305 287.094 58.1328 287.281 58.4844C287.477 58.8281 287.727 59.0977 288.031 59.293C288.344 59.4805 288.723 59.5742 289.168 59.5742C289.746 59.5742 290.223 59.4453 290.598 59.1875C290.973 58.9219 291.258 58.5586 291.453 58.0977C291.656 57.6367 291.773 57.1055 291.805 56.5039V54.9688C291.781 54.4766 291.711 54.0352 291.594 53.6445C291.484 53.2461 291.32 52.9062 291.102 52.625C290.891 52.3438 290.625 52.125 290.305 51.9688C289.992 51.8125 289.621 51.7344 289.191 51.7344C288.754 51.7344 288.379 51.8359 288.066 52.0391C287.754 52.2344 287.5 52.5039 287.305 52.8477C287.117 53.1914 286.977 53.5977 286.883 54.0664C286.797 54.5273 286.754 55.0273 286.754 55.5664Z" fill="#888888"/>
<path d="M107.205 107.146H99.251V101.191H107.205C108.289 101.191 109.168 101.008 109.842 100.642C110.516 100.275 111.006 99.77 111.314 99.1255C111.636 98.4663 111.797 97.7266 111.797 96.9062C111.797 96.0273 111.636 95.2144 111.314 94.4673C111.006 93.7202 110.516 93.1196 109.842 92.6655C109.168 92.1968 108.289 91.9624 107.205 91.9624H102.151V118H94.439V86.0078H107.205C109.769 86.0078 111.973 86.4766 113.819 87.4141C115.679 88.3516 117.107 89.6406 118.104 91.2812C119.1 92.9072 119.598 94.7676 119.598 96.8623C119.598 98.9277 119.1 100.729 118.104 102.268C117.107 103.806 115.679 105.007 113.819 105.871C111.973 106.721 109.769 107.146 107.205 107.146ZM130.87 100.114V118H123.465V94.2256H130.386L130.87 100.114ZM137.901 94.0498L137.769 100.927C137.476 100.898 137.081 100.861 136.583 100.817C136.084 100.773 135.667 100.751 135.33 100.751C134.466 100.751 133.719 100.854 133.089 101.059C132.474 101.25 131.961 101.542 131.551 101.938C131.155 102.319 130.862 102.802 130.672 103.388C130.496 103.974 130.416 104.655 130.43 105.432L129.09 104.553C129.09 102.956 129.244 101.506 129.551 100.202C129.874 98.8838 130.328 97.7485 130.914 96.7964C131.5 95.8296 132.21 95.0898 133.045 94.5771C133.88 94.0498 134.817 93.7861 135.857 93.7861C136.224 93.7861 136.583 93.8081 136.934 93.8521C137.3 93.896 137.623 93.9619 137.901 94.0498ZM138.736 106.354V105.893C138.736 104.15 138.985 102.546 139.483 101.081C139.981 99.6016 140.713 98.3198 141.68 97.2358C142.647 96.1519 143.841 95.3096 145.262 94.709C146.683 94.0938 148.323 93.7861 150.184 93.7861C152.059 93.7861 153.707 94.0938 155.127 94.709C156.563 95.3096 157.764 96.1519 158.731 97.2358C159.698 98.3198 160.43 99.6016 160.928 101.081C161.426 102.546 161.675 104.15 161.675 105.893V106.354C161.675 108.083 161.426 109.687 160.928 111.167C160.43 112.631 159.698 113.913 158.731 115.012C157.764 116.096 156.57 116.938 155.149 117.539C153.729 118.139 152.088 118.439 150.228 118.439C148.367 118.439 146.719 118.139 145.284 117.539C143.848 116.938 142.647 116.096 141.68 115.012C140.713 113.913 139.981 112.631 139.483 111.167C138.985 109.687 138.736 108.083 138.736 106.354ZM146.141 105.893V106.354C146.141 107.248 146.207 108.083 146.338 108.859C146.47 109.636 146.69 110.317 146.998 110.903C147.305 111.474 147.723 111.921 148.25 112.243C148.777 112.565 149.437 112.727 150.228 112.727C151.004 112.727 151.648 112.565 152.161 112.243C152.688 111.921 153.106 111.474 153.414 110.903C153.721 110.317 153.941 109.636 154.073 108.859C154.205 108.083 154.271 107.248 154.271 106.354V105.893C154.271 105.029 154.205 104.216 154.073 103.454C153.941 102.678 153.721 101.997 153.414 101.411C153.106 100.81 152.688 100.341 152.161 100.004C151.634 99.6675 150.975 99.499 150.184 99.499C149.407 99.499 148.755 99.6675 148.228 100.004C147.715 100.341 147.305 100.81 146.998 101.411C146.69 101.997 146.47 102.678 146.338 103.454C146.207 104.216 146.141 105.029 146.141 105.893ZM165.521 94.2256H172.947V118.769C172.947 120.673 172.581 122.277 171.849 123.581C171.116 124.899 170.069 125.896 168.707 126.569C167.344 127.258 165.718 127.602 163.829 127.602C163.199 127.602 162.62 127.573 162.093 127.514C161.551 127.47 160.958 127.375 160.313 127.229V121.625C160.694 121.684 161.045 121.728 161.368 121.757C161.69 121.801 162.042 121.823 162.422 121.823C163.096 121.823 163.66 121.713 164.114 121.494C164.568 121.274 164.913 120.937 165.147 120.483C165.396 120.029 165.521 119.458 165.521 118.769V94.2256ZM164.971 88.0952C164.971 87.0405 165.352 86.1763 166.114 85.5024C166.875 84.8286 167.864 84.4917 169.08 84.4917C170.296 84.4917 171.285 84.8286 172.046 85.5024C172.808 86.1763 173.189 87.0405 173.189 88.0952C173.189 89.1499 172.808 90.0142 172.046 90.688C171.285 91.3618 170.296 91.6987 169.08 91.6987C167.864 91.6987 166.875 91.3618 166.114 90.688C165.352 90.0142 164.971 89.1499 164.971 88.0952ZM188.658 118.439C186.724 118.439 184.996 118.139 183.472 117.539C181.949 116.923 180.66 116.081 179.605 115.012C178.565 113.942 177.767 112.712 177.21 111.32C176.668 109.929 176.397 108.457 176.397 106.904V106.069C176.397 104.326 176.639 102.714 177.122 101.235C177.605 99.7407 178.323 98.437 179.275 97.3237C180.228 96.2104 181.421 95.3462 182.857 94.731C184.292 94.1011 185.962 93.7861 187.867 93.7861C189.551 93.7861 191.06 94.0571 192.393 94.5991C193.726 95.1411 194.854 95.9175 195.777 96.9282C196.714 97.939 197.425 99.1621 197.908 100.598C198.406 102.033 198.655 103.645 198.655 105.432V108.442H179.231V103.806H191.426V103.234C191.441 102.443 191.302 101.77 191.009 101.213C190.73 100.656 190.32 100.231 189.778 99.9385C189.236 99.6455 188.577 99.499 187.801 99.499C186.995 99.499 186.329 99.6748 185.801 100.026C185.289 100.378 184.886 100.861 184.593 101.477C184.314 102.077 184.117 102.773 184 103.564C183.882 104.355 183.824 105.19 183.824 106.069V106.904C183.824 107.783 183.941 108.581 184.175 109.299C184.424 110.017 184.776 110.632 185.23 111.145C185.699 111.643 186.255 112.031 186.9 112.309C187.559 112.587 188.306 112.727 189.141 112.727C190.152 112.727 191.148 112.536 192.129 112.155C193.111 111.774 193.953 111.145 194.656 110.266L198.018 114.265C197.535 114.953 196.846 115.62 195.953 116.264C195.074 116.909 194.019 117.436 192.789 117.846C191.558 118.242 190.181 118.439 188.658 118.439ZM211.707 112.727C212.396 112.727 212.981 112.602 213.465 112.353C213.963 112.089 214.336 111.723 214.585 111.254C214.849 110.771 214.974 110.192 214.959 109.519H221.924C221.939 111.306 221.5 112.873 220.606 114.221C219.727 115.554 218.526 116.594 217.002 117.341C215.494 118.073 213.787 118.439 211.883 118.439C210.022 118.439 208.396 118.139 207.005 117.539C205.613 116.923 204.449 116.074 203.511 114.99C202.588 113.891 201.893 112.609 201.424 111.145C200.97 109.68 200.743 108.09 200.743 106.376V105.871C200.743 104.157 200.97 102.568 201.424 101.103C201.893 99.6235 202.588 98.3418 203.511 97.2578C204.449 96.1592 205.606 95.3096 206.983 94.709C208.375 94.0938 209.993 93.7861 211.839 93.7861C213.816 93.7861 215.56 94.1597 217.068 94.9067C218.592 95.6538 219.786 96.7378 220.65 98.1587C221.514 99.5796 221.939 101.301 221.924 103.322H214.959C214.974 102.604 214.864 101.96 214.629 101.389C214.395 100.817 214.029 100.363 213.531 100.026C213.047 99.6748 212.425 99.499 211.663 99.499C210.901 99.499 210.286 99.6675 209.817 100.004C209.349 100.341 208.99 100.81 208.741 101.411C208.506 101.997 208.345 102.67 208.257 103.432C208.184 104.194 208.147 105.007 208.147 105.871V106.376C208.147 107.255 208.184 108.083 208.257 108.859C208.345 109.621 208.514 110.295 208.763 110.881C209.012 111.452 209.371 111.906 209.839 112.243C210.308 112.565 210.931 112.727 211.707 112.727ZM237.613 94.2256V99.3672H223.287V94.2256H237.613ZM226.297 88.3149H233.702V110.244C233.702 110.874 233.775 111.364 233.921 111.716C234.068 112.053 234.317 112.294 234.668 112.441C235.035 112.573 235.518 112.639 236.119 112.639C236.543 112.639 236.895 112.631 237.173 112.617C237.452 112.587 237.715 112.551 237.964 112.507V117.802C237.334 118.007 236.675 118.161 235.987 118.264C235.298 118.381 234.566 118.439 233.79 118.439C232.208 118.439 230.853 118.19 229.725 117.692C228.611 117.194 227.762 116.411 227.176 115.341C226.59 114.272 226.297 112.88 226.297 111.167V88.3149ZM264.881 107.146H256.927V101.191H264.881C265.965 101.191 266.844 101.008 267.518 100.642C268.191 100.275 268.682 99.77 268.99 99.1255C269.312 98.4663 269.473 97.7266 269.473 96.9062C269.473 96.0273 269.312 95.2144 268.99 94.4673C268.682 93.7202 268.191 93.1196 267.518 92.6655C266.844 92.1968 265.965 91.9624 264.881 91.9624H259.827V118H252.115V86.0078H264.881C267.444 86.0078 269.649 86.4766 271.495 87.4141C273.355 88.3516 274.783 89.6406 275.779 91.2812C276.775 92.9072 277.273 94.7676 277.273 96.8623C277.273 98.9277 276.775 100.729 275.779 102.268C274.783 103.806 273.355 105.007 271.495 105.871C269.649 106.721 267.444 107.146 264.881 107.146ZM288.326 84.25V118H280.921V84.25H288.326ZM287.447 105.3L285.711 105.344C285.711 103.674 285.916 102.136 286.326 100.729C286.736 99.3232 287.322 98.1001 288.084 97.0601C288.846 96.02 289.761 95.2144 290.831 94.6431C291.9 94.0718 293.086 93.7861 294.39 93.7861C295.562 93.7861 296.631 93.9546 297.598 94.2915C298.58 94.6284 299.422 95.1704 300.125 95.9175C300.843 96.6646 301.392 97.6387 301.773 98.8398C302.168 100.041 302.366 101.506 302.366 103.234V118H294.917V103.19C294.917 102.224 294.778 101.477 294.5 100.949C294.236 100.407 293.855 100.034 293.357 99.8286C292.859 99.6089 292.251 99.499 291.534 99.499C290.669 99.499 289.966 99.6455 289.424 99.9385C288.882 100.231 288.465 100.642 288.172 101.169C287.894 101.682 287.703 102.29 287.601 102.993C287.498 103.696 287.447 104.465 287.447 105.3ZM314.297 94.2256V118H306.871V94.2256H314.297ZM306.431 88.0952C306.431 87.0405 306.812 86.1763 307.574 85.5024C308.335 84.8286 309.324 84.4917 310.54 84.4917C311.756 84.4917 312.745 84.8286 313.506 85.5024C314.268 86.1763 314.649 87.0405 314.649 88.0952C314.649 89.1499 314.268 90.0142 313.506 90.688C312.745 91.3618 311.756 91.6987 310.54 91.6987C309.324 91.6987 308.335 91.3618 307.574 90.688C306.812 90.0142 306.431 89.1499 306.431 88.0952ZM326.69 84.25V118H319.263V84.25H326.69ZM330.337 106.354V105.893C330.337 104.15 330.586 102.546 331.084 101.081C331.583 99.6016 332.315 98.3198 333.282 97.2358C334.249 96.1519 335.442 95.3096 336.863 94.709C338.284 94.0938 339.925 93.7861 341.785 93.7861C343.66 93.7861 345.308 94.0938 346.729 94.709C348.165 95.3096 349.366 96.1519 350.333 97.2358C351.299 98.3198 352.032 99.6016 352.53 101.081C353.028 102.546 353.277 104.15 353.277 105.893V106.354C353.277 108.083 353.028 109.687 352.53 111.167C352.032 112.631 351.299 113.913 350.333 115.012C349.366 116.096 348.172 116.938 346.751 117.539C345.33 118.139 343.689 118.439 341.829 118.439C339.969 118.439 338.321 118.139 336.885 117.539C335.45 116.938 334.249 116.096 333.282 115.012C332.315 113.913 331.583 112.631 331.084 111.167C330.586 109.687 330.337 108.083 330.337 106.354ZM337.742 105.893V106.354C337.742 107.248 337.808 108.083 337.94 108.859C338.072 109.636 338.292 110.317 338.599 110.903C338.907 111.474 339.324 111.921 339.852 112.243C340.379 112.565 341.038 112.727 341.829 112.727C342.605 112.727 343.25 112.565 343.763 112.243C344.29 111.921 344.708 111.474 345.015 110.903C345.323 110.317 345.542 109.636 345.674 108.859C345.806 108.083 345.872 107.248 345.872 106.354V105.893C345.872 105.029 345.806 104.216 345.674 103.454C345.542 102.678 345.323 101.997 345.015 101.411C344.708 100.81 344.29 100.341 343.763 100.004C343.235 99.6675 342.576 99.499 341.785 99.499C341.009 99.499 340.357 99.6675 339.83 100.004C339.317 100.341 338.907 100.81 338.599 101.411C338.292 101.997 338.072 102.678 337.94 103.454C337.808 104.216 337.742 105.029 337.742 105.893ZM369.031 111.32C369.031 110.91 368.892 110.559 368.614 110.266C368.35 109.958 367.881 109.68 367.208 109.431C366.534 109.167 365.589 108.903 364.373 108.64C363.216 108.391 362.125 108.061 361.099 107.651C360.088 107.241 359.202 106.743 358.44 106.157C357.679 105.571 357.078 104.875 356.639 104.069C356.214 103.264 356.001 102.341 356.001 101.301C356.001 100.29 356.214 99.3379 356.639 98.4443C357.078 97.5361 357.715 96.7378 358.55 96.0493C359.4 95.3462 360.433 94.7969 361.648 94.4014C362.864 93.9912 364.249 93.7861 365.801 93.7861C367.94 93.7861 369.786 94.1157 371.338 94.7749C372.891 95.4194 374.085 96.3276 374.92 97.4995C375.77 98.6567 376.194 99.9971 376.194 101.521H368.79C368.79 100.92 368.687 100.407 368.482 99.9824C368.292 99.5576 367.977 99.2354 367.537 99.0156C367.098 98.7812 366.512 98.6641 365.779 98.6641C365.267 98.6641 364.798 98.7593 364.373 98.9497C363.963 99.1401 363.633 99.4038 363.384 99.7407C363.135 100.078 363.011 100.473 363.011 100.927C363.011 101.25 363.084 101.542 363.23 101.806C363.392 102.055 363.633 102.29 363.956 102.509C364.278 102.714 364.688 102.905 365.186 103.081C365.684 103.242 366.285 103.388 366.988 103.52C368.584 103.813 370.079 104.23 371.47 104.772C372.862 105.314 373.99 106.083 374.854 107.08C375.733 108.076 376.172 109.416 376.172 111.101C376.172 112.155 375.931 113.129 375.447 114.023C374.964 114.902 374.268 115.678 373.36 116.352C372.452 117.011 371.36 117.524 370.086 117.89C368.812 118.256 367.376 118.439 365.779 118.439C363.509 118.439 361.59 118.037 360.022 117.231C358.455 116.411 357.269 115.385 356.463 114.155C355.672 112.91 355.276 111.65 355.276 110.375H362.176C362.205 111.108 362.381 111.708 362.703 112.177C363.04 112.646 363.487 112.99 364.043 113.21C364.6 113.43 365.245 113.54 365.977 113.54C366.651 113.54 367.208 113.444 367.647 113.254C368.101 113.063 368.445 112.807 368.68 112.485C368.914 112.148 369.031 111.76 369.031 111.32ZM378.721 106.354V105.893C378.721 104.15 378.97 102.546 379.468 101.081C379.966 99.6016 380.699 98.3198 381.666 97.2358C382.632 96.1519 383.826 95.3096 385.247 94.709C386.668 94.0938 388.309 93.7861 390.169 93.7861C392.044 93.7861 393.692 94.0938 395.113 94.709C396.548 95.3096 397.75 96.1519 398.716 97.2358C399.683 98.3198 400.416 99.6016 400.914 101.081C401.412 102.546 401.661 104.15 401.661 105.893V106.354C401.661 108.083 401.412 109.687 400.914 111.167C400.416 112.631 399.683 113.913 398.716 115.012C397.75 116.096 396.556 116.938 395.135 117.539C393.714 118.139 392.073 118.439 390.213 118.439C388.353 118.439 386.705 118.139 385.269 117.539C383.833 116.938 382.632 116.096 381.666 115.012C380.699 113.913 379.966 112.631 379.468 111.167C378.97 109.687 378.721 108.083 378.721 106.354ZM386.126 105.893V106.354C386.126 107.248 386.192 108.083 386.324 108.859C386.456 109.636 386.675 110.317 386.983 110.903C387.291 111.474 387.708 111.921 388.235 112.243C388.763 112.565 389.422 112.727 390.213 112.727C390.989 112.727 391.634 112.565 392.146 112.243C392.674 111.921 393.091 111.474 393.399 110.903C393.707 110.317 393.926 109.636 394.058 108.859C394.19 108.083 394.256 107.248 394.256 106.354V105.893C394.256 105.029 394.19 104.216 394.058 103.454C393.926 102.678 393.707 101.997 393.399 101.411C393.091 100.81 392.674 100.341 392.146 100.004C391.619 99.6675 390.96 99.499 390.169 99.499C389.393 99.499 388.741 99.6675 388.213 100.004C387.701 100.341 387.291 100.81 386.983 101.411C386.675 101.997 386.456 102.678 386.324 103.454C386.192 104.216 386.126 105.029 386.126 105.893ZM412.427 98.7959V127.141H405.022V94.2256H411.922L412.427 98.7959ZM427.017 105.827V106.289C427.017 108.017 426.819 109.621 426.424 111.101C426.028 112.58 425.442 113.869 424.666 114.968C423.89 116.066 422.923 116.923 421.766 117.539C420.623 118.139 419.297 118.439 417.789 118.439C416.368 118.439 415.145 118.125 414.119 117.495C413.094 116.865 412.237 115.993 411.548 114.88C410.86 113.767 410.303 112.492 409.878 111.057C409.454 109.621 409.117 108.105 408.868 106.508V105.915C409.117 104.201 409.454 102.612 409.878 101.147C410.303 99.6675 410.86 98.3784 411.548 97.2798C412.237 96.1812 413.086 95.3242 414.097 94.709C415.123 94.0938 416.346 93.7861 417.767 93.7861C419.275 93.7861 420.601 94.0718 421.744 94.6431C422.901 95.2144 423.868 96.0347 424.644 97.104C425.435 98.1587 426.028 99.4258 426.424 100.905C426.819 102.385 427.017 104.025 427.017 105.827ZM419.612 106.289V105.827C419.612 104.904 419.546 104.062 419.415 103.3C419.283 102.524 419.07 101.85 418.777 101.279C418.499 100.708 418.125 100.268 417.657 99.9604C417.188 99.6528 416.609 99.499 415.921 99.499C415.13 99.499 414.463 99.6235 413.921 99.8726C413.394 100.107 412.969 100.473 412.647 100.971C412.339 101.455 412.12 102.062 411.988 102.795C411.871 103.513 411.819 104.355 411.834 105.322V107.124C411.805 108.237 411.915 109.218 412.164 110.068C412.413 110.903 412.845 111.555 413.46 112.023C414.075 112.492 414.91 112.727 415.965 112.727C416.668 112.727 417.254 112.565 417.723 112.243C418.191 111.906 418.565 111.445 418.843 110.859C419.122 110.258 419.319 109.57 419.437 108.793C419.554 108.017 419.612 107.182 419.612 106.289ZM437.564 84.25V118H430.159V84.25H437.564ZM436.685 105.3L434.949 105.344C434.949 103.674 435.154 102.136 435.564 100.729C435.975 99.3232 436.561 98.1001 437.322 97.0601C438.084 96.02 439 95.2144 440.069 94.6431C441.138 94.0718 442.325 93.7861 443.628 93.7861C444.8 93.7861 445.87 93.9546 446.836 94.2915C447.818 94.6284 448.66 95.1704 449.363 95.9175C450.081 96.6646 450.63 97.6387 451.011 98.8398C451.407 100.041 451.604 101.506 451.604 103.234V118H444.156V103.19C444.156 102.224 444.017 101.477 443.738 100.949C443.475 100.407 443.094 100.034 442.596 99.8286C442.098 99.6089 441.49 99.499 440.772 99.499C439.908 99.499 439.205 99.6455 438.663 99.9385C438.121 100.231 437.703 100.642 437.41 101.169C437.132 101.682 436.941 102.29 436.839 102.993C436.736 103.696 436.685 104.465 436.685 105.3ZM463.008 115.209L469.161 94.2256H477.115L467.557 121.538C467.352 122.138 467.081 122.783 466.744 123.471C466.407 124.174 465.945 124.841 465.359 125.471C464.773 126.101 464.019 126.613 463.096 127.009C462.188 127.404 461.06 127.602 459.712 127.602C458.995 127.602 458.467 127.565 458.13 127.492C457.808 127.434 457.31 127.324 456.636 127.163V121.867C456.827 121.867 456.988 121.867 457.12 121.867C457.266 121.867 457.427 121.867 457.603 121.867C458.394 121.867 459.024 121.787 459.493 121.625C459.976 121.464 460.342 121.23 460.591 120.922C460.855 120.615 461.06 120.241 461.207 119.802L463.008 115.209ZM461.448 94.2256L466.128 110.859L466.941 118.703H461.976L453.516 94.2256H461.448Z" fill="#424241"/>
<path d="M1363 15C1363 6.71573 1356.28 0 1348 0H1134V167H1348C1356.28 167 1363 160.284 1363 152V15Z" fill="#355085"/>
<path d="M1234.26 106.286H1262.74V111.857H1234.26V106.286ZM1239.96 117.429H1257.04V123H1239.96V117.429ZM1248.5 45C1240.95 45 1233.71 47.9349 1228.37 53.1592C1223.03 58.3834 1220.03 65.469 1220.03 72.8571C1219.84 76.9057 1220.63 80.9412 1222.34 84.6315C1224.05 88.3219 1226.64 91.5616 1229.88 94.0843C1232.73 96.675 1234.26 98.1514 1234.26 100.714H1239.96C1239.96 95.5886 1236.8 92.7193 1233.72 89.9614C1231.06 87.9676 1228.94 85.3658 1227.55 82.3838C1226.15 79.4019 1225.53 76.1308 1225.72 72.8571C1225.72 66.9466 1228.12 61.2781 1232.39 57.0988C1236.67 52.9194 1242.46 50.5714 1248.5 50.5714C1254.54 50.5714 1260.33 52.9194 1264.61 57.0988C1268.88 61.2781 1271.28 66.9466 1271.28 72.8571C1271.47 76.1333 1270.84 79.4059 1269.44 82.388C1268.04 85.3701 1265.92 87.9706 1263.25 89.9614C1260.2 92.7471 1257.04 95.5329 1257.04 100.714H1262.74C1262.74 98.1514 1264.25 96.675 1267.12 94.0564C1270.36 91.5381 1272.94 88.3031 1274.66 84.6176C1276.37 80.9321 1277.16 76.9014 1276.97 72.8571C1276.97 69.1989 1276.24 65.5765 1274.81 62.1967C1273.37 58.8169 1271.28 55.7459 1268.63 53.1592C1265.99 50.5724 1262.85 48.5205 1259.4 47.1205C1255.94 45.7205 1252.24 45 1248.5 45V45Z" fill="white"/>
</svg>
