<svg width="1363" height="167" viewBox="0 0 1363 167" fill="none" xmlns="http://www.w3.org/2000/svg">
<rect width="1363" height="167" rx="15" fill="#F0F0F0"/>
<path d="M0 15C0 6.71573 6.71573 0 15 0H37V167H15C6.71573 167 0 160.284 0 152V15Z" fill="#424241"/>
<path d="M100.906 54.9219L93.3945 52.2383V49.0859L103.602 53.375V55.6367L100.906 54.9219ZM93.3945 57.1719L100.918 54.4297L103.602 53.7852V56.0352L93.3945 60.3242V57.1719ZM120.781 57.5352C120.781 57.2305 120.734 56.957 120.641 56.7148C120.555 56.4648 120.391 56.2383 120.148 56.0352C119.906 55.8242 119.566 55.6172 119.129 55.4141C118.691 55.2109 118.125 55 117.43 54.7812C116.656 54.5312 115.922 54.25 115.227 53.9375C114.539 53.625 113.93 53.2617 113.398 52.8477C112.875 52.4258 112.461 51.9375 112.156 51.3828C111.859 50.8281 111.711 50.1836 111.711 49.4492C111.711 48.7383 111.867 48.0938 112.18 47.5156C112.492 46.9297 112.93 46.4297 113.492 46.0156C114.055 45.5938 114.719 45.2695 115.484 45.043C116.258 44.8164 117.105 44.7031 118.027 44.7031C119.285 44.7031 120.383 44.9297 121.32 45.3828C122.258 45.8359 122.984 46.457 123.5 47.2461C124.023 48.0352 124.285 48.9375 124.285 49.9531H120.793C120.793 49.4531 120.688 49.0156 120.477 48.6406C120.273 48.2578 119.961 47.957 119.539 47.7383C119.125 47.5195 118.602 47.4102 117.969 47.4102C117.359 47.4102 116.852 47.5039 116.445 47.6914C116.039 47.8711 115.734 48.1172 115.531 48.4297C115.328 48.7344 115.227 49.0781 115.227 49.4609C115.227 49.75 115.297 50.0117 115.438 50.2461C115.586 50.4805 115.805 50.6992 116.094 50.9023C116.383 51.1055 116.738 51.2969 117.16 51.4766C117.582 51.6562 118.07 51.832 118.625 52.0039C119.555 52.2852 120.371 52.6016 121.074 52.9531C121.785 53.3047 122.379 53.6992 122.855 54.1367C123.332 54.5742 123.691 55.0703 123.934 55.625C124.176 56.1797 124.297 56.8086 124.297 57.5117C124.297 58.2539 124.152 58.918 123.863 59.5039C123.574 60.0898 123.156 60.5859 122.609 60.9922C122.062 61.3984 121.41 61.707 120.652 61.918C119.895 62.1289 119.047 62.2344 118.109 62.2344C117.266 62.2344 116.434 62.125 115.613 61.9062C114.793 61.6797 114.047 61.3398 113.375 60.8867C112.711 60.4336 112.18 59.8555 111.781 59.1523C111.383 58.4492 111.184 57.6172 111.184 56.6562H114.711C114.711 57.1875 114.793 57.6367 114.957 58.0039C115.121 58.3711 115.352 58.668 115.648 58.8945C115.953 59.1211 116.312 59.2852 116.727 59.3867C117.148 59.4883 117.609 59.5391 118.109 59.5391C118.719 59.5391 119.219 59.4531 119.609 59.2812C120.008 59.1094 120.301 58.8711 120.488 58.5664C120.684 58.2617 120.781 57.918 120.781 57.5352ZM129.77 44V62H126.395V44H129.77ZM129.289 55.2148H128.363C128.371 54.332 128.488 53.5195 128.715 52.7773C128.941 52.0273 129.266 51.3789 129.688 50.832C130.109 50.2773 130.613 49.8477 131.199 49.543C131.793 49.2383 132.449 49.0859 133.168 49.0859C133.793 49.0859 134.359 49.1758 134.867 49.3555C135.383 49.5273 135.824 49.8086 136.191 50.1992C136.566 50.582 136.855 51.0859 137.059 51.7109C137.262 52.3359 137.363 53.0938 137.363 53.9844V62H133.965V53.9609C133.965 53.3984 133.883 52.957 133.719 52.6367C133.562 52.3086 133.332 52.0781 133.027 51.9453C132.73 51.8047 132.363 51.7344 131.926 51.7344C131.441 51.7344 131.027 51.8242 130.684 52.0039C130.348 52.1836 130.078 52.4336 129.875 52.7539C129.672 53.0664 129.523 53.4336 129.43 53.8555C129.336 54.2773 129.289 54.7305 129.289 55.2148ZM146.773 59.1406V53.4922C146.773 53.0859 146.707 52.7383 146.574 52.4492C146.441 52.1523 146.234 51.9219 145.953 51.7578C145.68 51.5938 145.324 51.5117 144.887 51.5117C144.512 51.5117 144.188 51.5781 143.914 51.7109C143.641 51.8359 143.43 52.0195 143.281 52.2617C143.133 52.4961 143.059 52.7734 143.059 53.0938H139.684C139.684 52.5547 139.809 52.043 140.059 51.5586C140.309 51.0742 140.672 50.6484 141.148 50.2812C141.625 49.9062 142.191 49.6133 142.848 49.4023C143.512 49.1914 144.254 49.0859 145.074 49.0859C146.059 49.0859 146.934 49.25 147.699 49.5781C148.465 49.9062 149.066 50.3984 149.504 51.0547C149.949 51.7109 150.172 52.5312 150.172 53.5156V58.9414C150.172 59.6367 150.215 60.207 150.301 60.6523C150.387 61.0898 150.512 61.4727 150.676 61.8008V62H147.266C147.102 61.6562 146.977 61.2266 146.891 60.7109C146.812 60.1875 146.773 59.6641 146.773 59.1406ZM147.219 54.2773L147.242 56.1875H145.355C144.91 56.1875 144.523 56.2383 144.195 56.3398C143.867 56.4414 143.598 56.5859 143.387 56.7734C143.176 56.9531 143.02 57.1641 142.918 57.4062C142.824 57.6484 142.777 57.9141 142.777 58.2031C142.777 58.4922 142.844 58.7539 142.977 58.9883C143.109 59.2148 143.301 59.3945 143.551 59.5273C143.801 59.6523 144.094 59.7148 144.43 59.7148C144.938 59.7148 145.379 59.6133 145.754 59.4102C146.129 59.207 146.418 58.957 146.621 58.6602C146.832 58.3633 146.941 58.082 146.949 57.8164L147.84 59.2461C147.715 59.5664 147.543 59.8984 147.324 60.2422C147.113 60.5859 146.844 60.9102 146.516 61.2148C146.188 61.5117 145.793 61.7578 145.332 61.9531C144.871 62.1406 144.324 62.2344 143.691 62.2344C142.887 62.2344 142.156 62.0742 141.5 61.7539C140.852 61.4258 140.336 60.9766 139.953 60.4062C139.578 59.8281 139.391 59.1719 139.391 58.4375C139.391 57.7734 139.516 57.1836 139.766 56.668C140.016 56.1523 140.383 55.7188 140.867 55.3672C141.359 55.0078 141.973 54.7383 142.707 54.5586C143.441 54.3711 144.293 54.2773 145.262 54.2773H147.219ZM156.148 51.7578V66.875H152.773V49.3203H155.902L156.148 51.7578ZM164.176 55.5195V55.7656C164.176 56.6875 164.066 57.543 163.848 58.332C163.637 59.1211 163.324 59.8086 162.91 60.3945C162.496 60.9727 161.98 61.4258 161.363 61.7539C160.754 62.0742 160.051 62.2344 159.254 62.2344C158.48 62.2344 157.809 62.0781 157.238 61.7656C156.668 61.4531 156.188 61.0156 155.797 60.4531C155.414 59.8828 155.105 59.2227 154.871 58.4727C154.637 57.7227 154.457 56.918 154.332 56.0586V55.4141C154.457 54.4922 154.637 53.6484 154.871 52.8828C155.105 52.1094 155.414 51.4414 155.797 50.8789C156.188 50.3086 156.664 49.8672 157.227 49.5547C157.797 49.2422 158.465 49.0859 159.23 49.0859C160.035 49.0859 160.742 49.2383 161.352 49.543C161.969 49.8477 162.484 50.2852 162.898 50.8555C163.32 51.4258 163.637 52.1055 163.848 52.8945C164.066 53.6836 164.176 54.5586 164.176 55.5195ZM160.789 55.7656V55.5195C160.789 54.9805 160.742 54.4844 160.648 54.0312C160.562 53.5703 160.422 53.168 160.227 52.8242C160.039 52.4805 159.789 52.2148 159.477 52.0273C159.172 51.832 158.801 51.7344 158.363 51.7344C157.902 51.7344 157.508 51.8086 157.18 51.957C156.859 52.1055 156.598 52.3203 156.395 52.6016C156.191 52.8828 156.039 53.2188 155.938 53.6094C155.836 54 155.773 54.4414 155.75 54.9336V56.5625C155.789 57.1406 155.898 57.6602 156.078 58.1211C156.258 58.5742 156.535 58.9336 156.91 59.1992C157.285 59.4648 157.777 59.5977 158.387 59.5977C158.832 59.5977 159.207 59.5 159.512 59.3047C159.816 59.1016 160.062 58.8242 160.25 58.4727C160.445 58.1211 160.582 57.7148 160.66 57.2539C160.746 56.793 160.789 56.2969 160.789 55.7656ZM172.109 62.2344C171.125 62.2344 170.242 62.0781 169.461 61.7656C168.68 61.4453 168.016 61.0039 167.469 60.4414C166.93 59.8789 166.516 59.2266 166.227 58.4844C165.938 57.7344 165.793 56.9375 165.793 56.0938V55.625C165.793 54.6641 165.93 53.7852 166.203 52.9883C166.477 52.1914 166.867 51.5 167.375 50.9141C167.891 50.3281 168.516 49.8789 169.25 49.5664C169.984 49.2461 170.812 49.0859 171.734 49.0859C172.633 49.0859 173.43 49.2344 174.125 49.5312C174.82 49.8281 175.402 50.25 175.871 50.7969C176.348 51.3438 176.707 52 176.949 52.7656C177.191 53.5234 177.312 54.3672 177.312 55.2969V56.7031H167.234V54.4531H173.996V54.1953C173.996 53.7266 173.91 53.3086 173.738 52.9414C173.574 52.5664 173.324 52.2695 172.988 52.0508C172.652 51.832 172.223 51.7227 171.699 51.7227C171.254 51.7227 170.871 51.8203 170.551 52.0156C170.23 52.2109 169.969 52.4844 169.766 52.8359C169.57 53.1875 169.422 53.6016 169.32 54.0781C169.227 54.5469 169.18 55.0625 169.18 55.625V56.0938C169.18 56.6016 169.25 57.0703 169.391 57.5C169.539 57.9297 169.746 58.3008 170.012 58.6133C170.285 58.9258 170.613 59.168 170.996 59.3398C171.387 59.5117 171.828 59.5977 172.32 59.5977C172.93 59.5977 173.496 59.4805 174.02 59.2461C174.551 59.0039 175.008 58.6406 175.391 58.1562L177.031 59.9375C176.766 60.3203 176.402 60.6875 175.941 61.0391C175.488 61.3906 174.941 61.6797 174.301 61.9062C173.66 62.125 172.93 62.2344 172.109 62.2344ZM186.09 58.4961C186.09 58.2539 186.02 58.0352 185.879 57.8398C185.738 57.6445 185.477 57.4648 185.094 57.3008C184.719 57.1289 184.176 56.9727 183.465 56.832C182.824 56.6914 182.227 56.5156 181.672 56.3047C181.125 56.0859 180.648 55.8242 180.242 55.5195C179.844 55.2148 179.531 54.8555 179.305 54.4414C179.078 54.0195 178.965 53.5391 178.965 53C178.965 52.4688 179.078 51.9688 179.305 51.5C179.539 51.0312 179.871 50.6172 180.301 50.2578C180.738 49.8906 181.27 49.6055 181.895 49.4023C182.527 49.1914 183.238 49.0859 184.027 49.0859C185.129 49.0859 186.074 49.2617 186.863 49.6133C187.66 49.9648 188.27 50.4492 188.691 51.0664C189.121 51.6758 189.336 52.3711 189.336 53.1523H185.961C185.961 52.8242 185.891 52.5312 185.75 52.2734C185.617 52.0078 185.406 51.8008 185.117 51.6523C184.836 51.4961 184.469 51.418 184.016 51.418C183.641 51.418 183.316 51.4844 183.043 51.6172C182.77 51.7422 182.559 51.9141 182.41 52.1328C182.27 52.3438 182.199 52.5781 182.199 52.8359C182.199 53.0312 182.238 53.207 182.316 53.3633C182.402 53.5117 182.539 53.6484 182.727 53.7734C182.914 53.8984 183.156 54.0156 183.453 54.125C183.758 54.2266 184.133 54.3203 184.578 54.4062C185.492 54.5938 186.309 54.8398 187.027 55.1445C187.746 55.4414 188.316 55.8477 188.738 56.3633C189.16 56.8711 189.371 57.5391 189.371 58.3672C189.371 58.9297 189.246 59.4453 188.996 59.9141C188.746 60.3828 188.387 60.793 187.918 61.1445C187.449 61.4883 186.887 61.7578 186.23 61.9531C185.582 62.1406 184.852 62.2344 184.039 62.2344C182.859 62.2344 181.859 62.0234 181.039 61.6016C180.227 61.1797 179.609 60.6445 179.188 59.9961C178.773 59.3398 178.566 58.668 178.566 57.9805H181.766C181.781 58.4414 181.898 58.8125 182.117 59.0938C182.344 59.375 182.629 59.5781 182.973 59.7031C183.324 59.8281 183.703 59.8906 184.109 59.8906C184.547 59.8906 184.91 59.832 185.199 59.7148C185.488 59.5898 185.707 59.4258 185.855 59.2227C186.012 59.0117 186.09 58.7695 186.09 58.4961ZM211.766 53.0703V53.8789C211.766 55.1758 211.59 56.3398 211.238 57.3711C210.887 58.4023 210.391 59.2812 209.75 60.0078C209.109 60.7266 208.344 61.2773 207.453 61.6602C206.57 62.043 205.59 62.2344 204.512 62.2344C203.441 62.2344 202.461 62.043 201.57 61.6602C200.688 61.2773 199.922 60.7266 199.273 60.0078C198.625 59.2812 198.121 58.4023 197.762 57.3711C197.41 56.3398 197.234 55.1758 197.234 53.8789V53.0703C197.234 51.7656 197.41 50.6016 197.762 49.5781C198.113 48.5469 198.609 47.668 199.25 46.9414C199.898 46.2148 200.664 45.6602 201.547 45.2773C202.438 44.8945 203.418 44.7031 204.488 44.7031C205.566 44.7031 206.547 44.8945 207.43 45.2773C208.32 45.6602 209.086 46.2148 209.727 46.9414C210.375 47.668 210.875 48.5469 211.227 49.5781C211.586 50.6016 211.766 51.7656 211.766 53.0703ZM208.215 53.8789V53.0469C208.215 52.1406 208.133 51.3438 207.969 50.6562C207.805 49.9688 207.562 49.3906 207.242 48.9219C206.922 48.4531 206.531 48.1016 206.07 47.8672C205.609 47.625 205.082 47.5039 204.488 47.5039C203.895 47.5039 203.367 47.625 202.906 47.8672C202.453 48.1016 202.066 48.4531 201.746 48.9219C201.434 49.3906 201.195 49.9688 201.031 50.6562C200.867 51.3438 200.785 52.1406 200.785 53.0469V53.8789C200.785 54.7773 200.867 55.5742 201.031 56.2695C201.195 56.957 201.438 57.5391 201.758 58.0156C202.078 58.4844 202.469 58.8398 202.93 59.082C203.391 59.3242 203.918 59.4453 204.512 59.4453C205.105 59.4453 205.633 59.3242 206.094 59.082C206.555 58.8398 206.941 58.4844 207.254 58.0156C207.566 57.5391 207.805 56.957 207.969 56.2695C208.133 55.5742 208.215 54.7773 208.215 53.8789ZM218.387 62H214.988V48.1953C214.988 47.2344 215.176 46.4258 215.551 45.7695C215.934 45.1055 216.469 44.6055 217.156 44.2695C217.852 43.9258 218.676 43.7539 219.629 43.7539C219.941 43.7539 220.242 43.7773 220.531 43.8242C220.82 43.8633 221.102 43.9141 221.375 43.9766L221.34 46.5195C221.191 46.4805 221.035 46.4531 220.871 46.4375C220.707 46.4219 220.516 46.4141 220.297 46.4141C219.891 46.4141 219.543 46.4844 219.254 46.625C218.973 46.7578 218.758 46.957 218.609 47.2227C218.461 47.4883 218.387 47.8125 218.387 48.1953V62ZM220.918 49.3203V51.7109H213.102V49.3203H220.918ZM237.758 57.5352C237.758 57.2305 237.711 56.957 237.617 56.7148C237.531 56.4648 237.367 56.2383 237.125 56.0352C236.883 55.8242 236.543 55.6172 236.105 55.4141C235.668 55.2109 235.102 55 234.406 54.7812C233.633 54.5312 232.898 54.25 232.203 53.9375C231.516 53.625 230.906 53.2617 230.375 52.8477C229.852 52.4258 229.438 51.9375 229.133 51.3828C228.836 50.8281 228.688 50.1836 228.688 49.4492C228.688 48.7383 228.844 48.0938 229.156 47.5156C229.469 46.9297 229.906 46.4297 230.469 46.0156C231.031 45.5938 231.695 45.2695 232.461 45.043C233.234 44.8164 234.082 44.7031 235.004 44.7031C236.262 44.7031 237.359 44.9297 238.297 45.3828C239.234 45.8359 239.961 46.457 240.477 47.2461C241 48.0352 241.262 48.9375 241.262 49.9531H237.77C237.77 49.4531 237.664 49.0156 237.453 48.6406C237.25 48.2578 236.938 47.957 236.516 47.7383C236.102 47.5195 235.578 47.4102 234.945 47.4102C234.336 47.4102 233.828 47.5039 233.422 47.6914C233.016 47.8711 232.711 48.1172 232.508 48.4297C232.305 48.7344 232.203 49.0781 232.203 49.4609C232.203 49.75 232.273 50.0117 232.414 50.2461C232.562 50.4805 232.781 50.6992 233.07 50.9023C233.359 51.1055 233.715 51.2969 234.137 51.4766C234.559 51.6562 235.047 51.832 235.602 52.0039C236.531 52.2852 237.348 52.6016 238.051 52.9531C238.762 53.3047 239.355 53.6992 239.832 54.1367C240.309 54.5742 240.668 55.0703 240.91 55.625C241.152 56.1797 241.273 56.8086 241.273 57.5117C241.273 58.2539 241.129 58.918 240.84 59.5039C240.551 60.0898 240.133 60.5859 239.586 60.9922C239.039 61.3984 238.387 61.707 237.629 61.918C236.871 62.1289 236.023 62.2344 235.086 62.2344C234.242 62.2344 233.41 62.125 232.59 61.9062C231.77 61.6797 231.023 61.3398 230.352 60.8867C229.688 60.4336 229.156 59.8555 228.758 59.1523C228.359 58.4492 228.16 57.6172 228.16 56.6562H231.688C231.688 57.1875 231.77 57.6367 231.934 58.0039C232.098 58.3711 232.328 58.668 232.625 58.8945C232.93 59.1211 233.289 59.2852 233.703 59.3867C234.125 59.4883 234.586 59.5391 235.086 59.5391C235.695 59.5391 236.195 59.4531 236.586 59.2812C236.984 59.1094 237.277 58.8711 237.465 58.5664C237.66 58.2617 237.758 57.918 237.758 57.5352ZM242.914 55.7891V55.543C242.914 54.6133 243.047 53.7578 243.312 52.9766C243.578 52.1875 243.965 51.5039 244.473 50.9258C244.98 50.3477 245.605 49.8984 246.348 49.5781C247.09 49.25 247.941 49.0859 248.902 49.0859C249.863 49.0859 250.719 49.25 251.469 49.5781C252.219 49.8984 252.848 50.3477 253.355 50.9258C253.871 51.5039 254.262 52.1875 254.527 52.9766C254.793 53.7578 254.926 54.6133 254.926 55.543V55.7891C254.926 56.7109 254.793 57.5664 254.527 58.3555C254.262 59.1367 253.871 59.8203 253.355 60.4062C252.848 60.9844 252.223 61.4336 251.48 61.7539C250.738 62.0742 249.887 62.2344 248.926 62.2344C247.965 62.2344 247.109 62.0742 246.359 61.7539C245.617 61.4336 244.988 60.9844 244.473 60.4062C243.965 59.8203 243.578 59.1367 243.312 58.3555C243.047 57.5664 242.914 56.7109 242.914 55.7891ZM246.289 55.543V55.7891C246.289 56.3203 246.336 56.8164 246.43 57.2773C246.523 57.7383 246.672 58.1445 246.875 58.4961C247.086 58.8398 247.359 59.1094 247.695 59.3047C248.031 59.5 248.441 59.5977 248.926 59.5977C249.395 59.5977 249.797 59.5 250.133 59.3047C250.469 59.1094 250.738 58.8398 250.941 58.4961C251.145 58.1445 251.293 57.7383 251.387 57.2773C251.488 56.8164 251.539 56.3203 251.539 55.7891V55.543C251.539 55.0273 251.488 54.543 251.387 54.0898C251.293 53.6289 251.141 53.2227 250.93 52.8711C250.727 52.5117 250.457 52.2305 250.121 52.0273C249.785 51.8242 249.379 51.7227 248.902 51.7227C248.426 51.7227 248.02 51.8242 247.684 52.0273C247.355 52.2305 247.086 52.5117 246.875 52.8711C246.672 53.2227 246.523 53.6289 246.43 54.0898C246.336 54.543 246.289 55.0273 246.289 55.543ZM264.5 58.9648V49.3203H267.875V62H264.699L264.5 58.9648ZM264.875 56.3633L265.871 56.3398C265.871 57.1836 265.773 57.9688 265.578 58.6953C265.383 59.4141 265.09 60.0391 264.699 60.5703C264.309 61.0938 263.816 61.5039 263.223 61.8008C262.629 62.0898 261.93 62.2344 261.125 62.2344C260.508 62.2344 259.938 62.1484 259.414 61.9766C258.898 61.7969 258.453 61.5195 258.078 61.1445C257.711 60.7617 257.422 60.2734 257.211 59.6797C257.008 59.0781 256.906 58.3555 256.906 57.5117V49.3203H260.281V57.5352C260.281 57.9102 260.324 58.2266 260.41 58.4844C260.504 58.7422 260.633 58.9531 260.797 59.1172C260.961 59.2812 261.152 59.3984 261.371 59.4688C261.598 59.5391 261.848 59.5742 262.121 59.5742C262.816 59.5742 263.363 59.4336 263.762 59.1523C264.168 58.8711 264.453 58.4883 264.617 58.0039C264.789 57.5117 264.875 56.9648 264.875 56.3633ZM273.758 52.0273V62H270.383V49.3203H273.547L273.758 52.0273ZM273.266 55.2148H272.352C272.352 54.2773 272.473 53.4336 272.715 52.6836C272.957 51.9258 273.297 51.2812 273.734 50.75C274.172 50.2109 274.691 49.8008 275.293 49.5195C275.902 49.2305 276.582 49.0859 277.332 49.0859C277.926 49.0859 278.469 49.1719 278.961 49.3438C279.453 49.5156 279.875 49.7891 280.227 50.1641C280.586 50.5391 280.859 51.0352 281.047 51.6523C281.242 52.2695 281.34 53.0234 281.34 53.9141V62H277.941V53.9023C277.941 53.3398 277.863 52.9023 277.707 52.5898C277.551 52.2773 277.32 52.0586 277.016 51.9336C276.719 51.8008 276.352 51.7344 275.914 51.7344C275.461 51.7344 275.066 51.8242 274.73 52.0039C274.402 52.1836 274.129 52.4336 273.91 52.7539C273.699 53.0664 273.539 53.4336 273.43 53.8555C273.32 54.2773 273.266 54.7305 273.266 55.2148ZM291.395 59.2344V44H294.793V62H291.734L291.395 59.2344ZM283.379 55.8125V55.5664C283.379 54.5977 283.488 53.7188 283.707 52.9297C283.926 52.1328 284.246 51.4492 284.668 50.8789C285.09 50.3086 285.609 49.8672 286.227 49.5547C286.844 49.2422 287.547 49.0859 288.336 49.0859C289.078 49.0859 289.727 49.2422 290.281 49.5547C290.844 49.8672 291.32 50.3125 291.711 50.8906C292.109 51.4609 292.43 52.1367 292.672 52.918C292.914 53.6914 293.09 54.5391 293.199 55.4609V56C293.09 56.8828 292.914 57.7031 292.672 58.4609C292.43 59.2188 292.109 59.8828 291.711 60.4531C291.32 61.0156 290.844 61.4531 290.281 61.7656C289.719 62.0781 289.062 62.2344 288.312 62.2344C287.523 62.2344 286.82 62.0742 286.203 61.7539C285.594 61.4336 285.078 60.9844 284.656 60.4062C284.242 59.8281 283.926 59.1484 283.707 58.3672C283.488 57.5859 283.379 56.7344 283.379 55.8125ZM286.754 55.5664V55.8125C286.754 56.3359 286.793 56.8242 286.871 57.2773C286.957 57.7305 287.094 58.1328 287.281 58.4844C287.477 58.8281 287.727 59.0977 288.031 59.293C288.344 59.4805 288.723 59.5742 289.168 59.5742C289.746 59.5742 290.223 59.4453 290.598 59.1875C290.973 58.9219 291.258 58.5586 291.453 58.0977C291.656 57.6367 291.773 57.1055 291.805 56.5039V54.9688C291.781 54.4766 291.711 54.0352 291.594 53.6445C291.484 53.2461 291.32 52.9062 291.102 52.625C290.891 52.3438 290.625 52.125 290.305 51.9688C289.992 51.8125 289.621 51.7344 289.191 51.7344C288.754 51.7344 288.379 51.8359 288.066 52.0391C287.754 52.2344 287.5 52.5039 287.305 52.8477C287.117 53.1914 286.977 53.5977 286.883 54.0664C286.797 54.5273 286.754 55.0273 286.754 55.5664Z" fill="#888888"/>
<path d="M115.994 98.708V104.641H99.5806V98.708H115.994ZM102.151 86.0078V118H94.439V86.0078H102.151ZM121.18 86.0078V118H113.489V86.0078H121.18ZM124.805 106.354V105.893C124.805 104.15 125.054 102.546 125.552 101.081C126.05 99.6016 126.783 98.3198 127.75 97.2358C128.716 96.1519 129.91 95.3096 131.331 94.709C132.752 94.0938 134.393 93.7861 136.253 93.7861C138.128 93.7861 139.776 94.0938 141.197 94.709C142.632 95.3096 143.833 96.1519 144.8 97.2358C145.767 98.3198 146.5 99.6016 146.998 101.081C147.496 102.546 147.745 104.15 147.745 105.893V106.354C147.745 108.083 147.496 109.687 146.998 111.167C146.5 112.631 145.767 113.913 144.8 115.012C143.833 116.096 142.64 116.938 141.219 117.539C139.798 118.139 138.157 118.439 136.297 118.439C134.437 118.439 132.789 118.139 131.353 117.539C129.917 116.938 128.716 116.096 127.75 115.012C126.783 113.913 126.05 112.631 125.552 111.167C125.054 109.687 124.805 108.083 124.805 106.354ZM132.21 105.893V106.354C132.21 107.248 132.276 108.083 132.408 108.859C132.54 109.636 132.759 110.317 133.067 110.903C133.375 111.474 133.792 111.921 134.319 112.243C134.847 112.565 135.506 112.727 136.297 112.727C137.073 112.727 137.718 112.565 138.23 112.243C138.758 111.921 139.175 111.474 139.483 110.903C139.791 110.317 140.01 109.636 140.142 108.859C140.274 108.083 140.34 107.248 140.34 106.354V105.893C140.34 105.029 140.274 104.216 140.142 103.454C140.01 102.678 139.791 101.997 139.483 101.411C139.175 100.81 138.758 100.341 138.23 100.004C137.703 99.6675 137.044 99.499 136.253 99.499C135.477 99.499 134.825 99.6675 134.297 100.004C133.785 100.341 133.375 100.81 133.067 101.411C132.759 101.997 132.54 102.678 132.408 103.454C132.276 104.216 132.21 105.029 132.21 105.893ZM158.27 110.925L162.664 94.2256H167.3L165.652 102.597L161.302 118H157.588L158.27 110.925ZM156.534 94.2256L159.258 110.793L159.566 118H155.062L149.437 94.2256H156.534ZM171.211 110.441L173.958 94.2256H181.055L175.474 118H170.97L171.211 110.441ZM167.828 94.2256L172.266 110.881L172.947 118H169.19L164.927 102.641L163.345 94.2256H167.828ZM209.466 86.0078V118H201.753V86.0078H209.466ZM219.09 86.0078V91.9624H192.349V86.0078H219.09ZM216.475 106.354V105.893C216.475 104.15 216.724 102.546 217.222 101.081C217.72 99.6016 218.453 98.3198 219.419 97.2358C220.386 96.1519 221.58 95.3096 223.001 94.709C224.422 94.0938 226.062 93.7861 227.923 93.7861C229.798 93.7861 231.446 94.0938 232.867 94.709C234.302 95.3096 235.503 96.1519 236.47 97.2358C237.437 98.3198 238.169 99.6016 238.667 101.081C239.166 102.546 239.415 104.15 239.415 105.893V106.354C239.415 108.083 239.166 109.687 238.667 111.167C238.169 112.631 237.437 113.913 236.47 115.012C235.503 116.096 234.31 116.938 232.889 117.539C231.468 118.139 229.827 118.439 227.967 118.439C226.106 118.439 224.458 118.139 223.023 117.539C221.587 116.938 220.386 116.096 219.419 115.012C218.453 113.913 217.72 112.631 217.222 111.167C216.724 109.687 216.475 108.083 216.475 106.354ZM223.88 105.893V106.354C223.88 107.248 223.946 108.083 224.078 108.859C224.209 109.636 224.429 110.317 224.737 110.903C225.044 111.474 225.462 111.921 225.989 112.243C226.517 112.565 227.176 112.727 227.967 112.727C228.743 112.727 229.388 112.565 229.9 112.243C230.428 111.921 230.845 111.474 231.153 110.903C231.46 110.317 231.68 109.636 231.812 108.859C231.944 108.083 232.01 107.248 232.01 106.354V105.893C232.01 105.029 231.944 104.216 231.812 103.454C231.68 102.678 231.46 101.997 231.153 101.411C230.845 100.81 230.428 100.341 229.9 100.004C229.373 99.6675 228.714 99.499 227.923 99.499C227.146 99.499 226.495 99.6675 225.967 100.004C225.455 100.341 225.044 100.81 224.737 101.411C224.429 101.997 224.209 102.678 224.078 103.454C223.946 104.216 223.88 105.029 223.88 105.893ZM254.268 86.0078H266.858C269.319 86.0078 271.458 86.374 273.274 87.1064C275.091 87.8389 276.49 88.9229 277.471 90.3584C278.467 91.7939 278.965 93.5664 278.965 95.6758C278.965 97.5068 278.68 99.0376 278.108 100.268C277.537 101.499 276.739 102.517 275.713 103.322C274.703 104.113 273.523 104.765 272.176 105.278L269.649 106.706H259.08L259.036 100.751H266.858C267.84 100.751 268.653 100.576 269.297 100.224C269.942 99.8726 270.425 99.3745 270.748 98.73C271.084 98.0708 271.253 97.2871 271.253 96.3789C271.253 95.4561 271.084 94.665 270.748 94.0059C270.411 93.3467 269.913 92.8413 269.253 92.4897C268.609 92.1382 267.811 91.9624 266.858 91.9624H261.98V118H254.268V86.0078ZM271.78 118L264.705 103.85L272.879 103.806L280.042 117.67V118H271.78ZM297.159 112.221V94.2256H304.585V118H297.642L297.159 112.221ZM297.862 107.387L299.795 107.343C299.795 108.94 299.605 110.419 299.224 111.782C298.843 113.129 298.279 114.301 297.532 115.297C296.8 116.293 295.892 117.07 294.808 117.626C293.738 118.168 292.5 118.439 291.094 118.439C289.922 118.439 288.846 118.278 287.864 117.956C286.897 117.619 286.062 117.099 285.359 116.396C284.656 115.678 284.107 114.763 283.711 113.649C283.331 112.521 283.14 111.174 283.14 109.606V94.2256H290.545V109.65C290.545 110.178 290.611 110.632 290.743 111.013C290.875 111.394 291.065 111.716 291.314 111.979C291.563 112.229 291.871 112.419 292.237 112.551C292.618 112.668 293.05 112.727 293.533 112.727C294.646 112.727 295.518 112.492 296.148 112.023C296.778 111.555 297.217 110.917 297.466 110.112C297.73 109.306 297.862 108.398 297.862 107.387ZM315.945 99.3013V118H308.541V94.2256H315.484L315.945 99.3013ZM315.066 105.3L313.331 105.344C313.331 103.527 313.55 101.909 313.99 100.488C314.429 99.0522 315.052 97.8364 315.857 96.8403C316.663 95.8442 317.623 95.0898 318.736 94.5771C319.864 94.0498 321.116 93.7861 322.493 93.7861C323.592 93.7861 324.595 93.9473 325.503 94.2695C326.426 94.5918 327.217 95.1118 327.876 95.8296C328.55 96.5474 329.063 97.4995 329.415 98.686C329.781 99.8579 329.964 101.308 329.964 103.037V118H322.515V103.015C322.515 102.062 322.383 101.337 322.12 100.839C321.856 100.327 321.475 99.9751 320.977 99.7847C320.479 99.5942 319.871 99.499 319.153 99.499C318.392 99.499 317.747 99.6455 317.22 99.9385C316.692 100.231 316.268 100.642 315.945 101.169C315.638 101.682 315.411 102.29 315.264 102.993C315.132 103.696 315.066 104.465 315.066 105.3ZM345.85 107.871H339.544C339.544 106.582 339.632 105.446 339.808 104.465C339.998 103.469 340.32 102.575 340.774 101.784C341.229 100.993 341.844 100.261 342.62 99.5869C343.309 99.0156 343.902 98.4663 344.4 97.939C344.898 97.4116 345.279 96.877 345.542 96.335C345.806 95.793 345.938 95.2144 345.938 94.5991C345.938 93.8374 345.828 93.2148 345.608 92.7314C345.403 92.248 345.088 91.8892 344.664 91.6548C344.253 91.4058 343.733 91.2812 343.104 91.2812C342.591 91.2812 342.107 91.4058 341.653 91.6548C341.214 91.9038 340.855 92.292 340.577 92.8193C340.298 93.332 340.145 94.0132 340.115 94.8628H332.667C332.71 92.6802 333.194 90.9077 334.117 89.5454C335.054 88.1685 336.299 87.165 337.852 86.5352C339.419 85.8906 341.17 85.5684 343.104 85.5684C345.242 85.5684 347.081 85.8979 348.619 86.5571C350.157 87.2163 351.336 88.1978 352.156 89.5015C352.977 90.7905 353.387 92.3799 353.387 94.2695C353.387 95.5293 353.145 96.6279 352.662 97.5654C352.193 98.4883 351.556 99.3525 350.75 100.158C349.959 100.949 349.073 101.799 348.091 102.707C347.242 103.454 346.663 104.216 346.355 104.992C346.048 105.754 345.879 106.713 345.85 107.871ZM338.643 114.55C338.643 113.496 339.024 112.617 339.786 111.914C340.547 111.196 341.536 110.837 342.752 110.837C343.968 110.837 344.957 111.196 345.718 111.914C346.48 112.617 346.861 113.496 346.861 114.55C346.861 115.605 346.48 116.491 345.718 117.209C344.957 117.912 343.968 118.264 342.752 118.264C341.536 118.264 340.547 117.912 339.786 117.209C339.024 116.491 338.643 115.605 338.643 114.55Z" fill="#424241"/>
<path d="M1363 15C1363 6.71573 1356.28 0 1348 0H1134V167H1348C1356.28 167 1363 160.284 1363 152V15Z" fill="#355085"/>
<path d="M1260.77 81.3079C1263.96 81.3079 1267.09 82.2553 1269.74 84.0303C1272.4 85.8053 1274.47 88.3282 1275.69 91.2799C1276.92 94.2316 1277.24 97.4796 1276.61 100.613C1275.99 103.747 1274.45 106.625 1272.19 108.884C1269.93 111.143 1267.05 112.682 1263.92 113.305C1260.79 113.928 1257.54 113.608 1254.59 112.386C1251.64 111.163 1249.11 109.093 1247.34 106.436C1245.56 103.78 1244.62 100.657 1244.62 97.4617C1244.62 93.1774 1246.32 89.0686 1249.35 86.0392C1252.38 83.0098 1256.48 81.3079 1260.77 81.3079V81.3079ZM1260.77 75.9233C1256.51 75.9233 1252.35 77.1865 1248.8 79.5532C1245.26 81.9198 1242.5 85.2837 1240.87 89.2193C1239.24 93.1549 1238.81 97.4856 1239.64 101.664C1240.48 105.842 1242.53 109.679 1245.54 112.692C1248.55 115.704 1252.39 117.755 1256.57 118.586C1260.75 119.417 1265.08 118.991 1269.01 117.361C1272.95 115.73 1276.31 112.97 1278.68 109.428C1281.04 105.886 1282.31 101.722 1282.31 97.4617C1282.31 91.7493 1280.04 86.271 1276 82.2317C1271.96 78.1925 1266.48 75.9233 1260.77 75.9233Z" fill="white"/>
<path d="M1274.23 49H1220.38C1218.96 49 1217.59 49.5673 1216.58 50.5771C1215.57 51.5869 1215 52.9565 1215 54.3846V108.231C1215 109.659 1215.57 111.028 1216.58 112.038C1217.59 113.048 1218.96 113.615 1220.38 113.615H1231.15V108.231H1220.38V70.5384H1279.62V54.3846C1279.62 52.9565 1279.05 51.5869 1278.04 50.5771C1277.03 49.5673 1275.66 49 1274.23 49V49ZM1220.38 65.1538V54.3846H1274.23V65.1538H1220.38Z" fill="white"/>
<path d="M1255.38 89.3849V105.539L1268.85 97.4618L1255.38 89.3849Z" fill="white"/>
</svg>
