<svg width="1363" height="301" viewBox="0 0 1363 301" fill="none" xmlns="http://www.w3.org/2000/svg">
<rect width="1363" height="301" rx="15" fill="#F0F0F0"/>
<path d="M0 15C0 6.71573 6.71573 0 15 0H37V301H15C6.71573 301 0 294.284 0 286V15Z" fill="#355085"/>
<path d="M115.123 133.607C115.123 132.998 115.033 132.452 114.854 131.969C114.675 131.467 114.344 131.002 113.86 130.572C113.377 130.143 112.679 129.713 111.766 129.283C110.87 128.836 109.689 128.37 108.221 127.887C106.502 127.314 104.846 126.669 103.252 125.953C101.659 125.219 100.236 124.369 98.9824 123.402C97.7292 122.417 96.7355 121.271 96.0015 119.964C95.2674 118.639 94.9004 117.1 94.9004 115.345C94.9004 113.662 95.2764 112.149 96.0283 110.807C96.7803 109.446 97.8276 108.291 99.1704 107.342C100.531 106.375 102.125 105.641 103.951 105.14C105.777 104.621 107.773 104.361 109.939 104.361C112.804 104.361 115.328 104.863 117.513 105.865C119.715 106.85 121.434 108.255 122.669 110.082C123.922 111.89 124.549 114.029 124.549 116.5H115.176C115.176 115.515 114.97 114.647 114.559 113.895C114.165 113.143 113.565 112.552 112.759 112.123C111.954 111.693 110.942 111.478 109.725 111.478C108.543 111.478 107.549 111.657 106.744 112.015C105.938 112.373 105.329 112.857 104.917 113.465C104.506 114.056 104.3 114.71 104.3 115.426C104.3 116.017 104.461 116.554 104.783 117.037C105.123 117.503 105.598 117.941 106.207 118.353C106.833 118.765 107.585 119.159 108.462 119.535C109.358 119.911 110.36 120.278 111.47 120.636C113.547 121.298 115.391 122.041 117.002 122.865C118.632 123.67 120.001 124.592 121.111 125.631C122.239 126.651 123.09 127.815 123.663 129.122C124.253 130.429 124.549 131.906 124.549 133.553C124.549 135.308 124.209 136.865 123.528 138.226C122.848 139.587 121.872 140.742 120.601 141.69C119.33 142.621 117.808 143.329 116.036 143.812C114.263 144.295 112.285 144.537 110.101 144.537C108.095 144.537 106.117 144.286 104.166 143.785C102.232 143.266 100.477 142.478 98.9019 141.422C97.3263 140.348 96.0641 138.978 95.1152 137.313C94.1842 135.63 93.7188 133.634 93.7188 131.324H103.172C103.172 132.47 103.324 133.437 103.628 134.225C103.933 135.012 104.38 135.648 104.971 136.131C105.562 136.597 106.287 136.937 107.146 137.152C108.006 137.349 108.991 137.447 110.101 137.447C111.3 137.447 112.267 137.277 113.001 136.937C113.735 136.579 114.272 136.113 114.612 135.541C114.952 134.95 115.123 134.305 115.123 133.607ZM137.842 102.75V144H128.792V102.75H137.842ZM136.768 128.478L134.646 128.531C134.646 126.49 134.897 124.61 135.398 122.892C135.9 121.173 136.616 119.678 137.547 118.407C138.478 117.136 139.597 116.151 140.904 115.453C142.211 114.754 143.661 114.405 145.254 114.405C146.687 114.405 147.994 114.611 149.175 115.023C150.375 115.435 151.404 116.097 152.264 117.01C153.141 117.923 153.812 119.114 154.278 120.582C154.761 122.05 155.003 123.84 155.003 125.953V144H145.899V125.899C145.899 124.718 145.729 123.805 145.389 123.16C145.066 122.498 144.601 122.041 143.992 121.791C143.383 121.522 142.64 121.388 141.763 121.388C140.707 121.388 139.847 121.567 139.185 121.925C138.523 122.283 138.012 122.784 137.654 123.429C137.314 124.055 137.081 124.798 136.956 125.658C136.831 126.517 136.768 127.457 136.768 128.478ZM175.118 136.695V124.718C175.118 123.894 175.001 123.187 174.769 122.596C174.536 122.005 174.169 121.549 173.667 121.227C173.166 120.886 172.495 120.716 171.653 120.716C170.973 120.716 170.391 120.833 169.908 121.065C169.424 121.298 169.057 121.647 168.807 122.113C168.556 122.578 168.431 123.169 168.431 123.885H159.38C159.38 122.542 159.676 121.298 160.267 120.152C160.875 118.989 161.735 117.977 162.845 117.118C163.973 116.258 165.315 115.596 166.873 115.13C168.449 114.647 170.203 114.405 172.137 114.405C174.446 114.405 176.505 114.79 178.313 115.56C180.14 116.33 181.581 117.485 182.637 119.024C183.694 120.546 184.222 122.462 184.222 124.771V136.668C184.222 138.566 184.329 140.007 184.544 140.992C184.759 141.959 185.063 142.809 185.457 143.543V144H176.38C175.95 143.105 175.628 142.013 175.413 140.724C175.216 139.417 175.118 138.074 175.118 136.695ZM176.219 126.249L176.272 131.083H172.271C171.43 131.083 170.713 131.199 170.123 131.432C169.55 131.664 169.084 131.987 168.726 132.398C168.386 132.792 168.135 133.24 167.974 133.741C167.831 134.243 167.759 134.771 167.759 135.326C167.759 135.863 167.885 136.346 168.135 136.776C168.404 137.188 168.762 137.51 169.209 137.743C169.657 137.975 170.158 138.092 170.713 138.092C171.716 138.092 172.566 137.904 173.265 137.528C173.981 137.134 174.527 136.66 174.903 136.104C175.279 135.549 175.467 135.03 175.467 134.547L177.454 138.253C177.096 138.969 176.684 139.694 176.219 140.428C175.771 141.162 175.207 141.843 174.527 142.469C173.864 143.078 173.05 143.579 172.083 143.973C171.116 144.349 169.944 144.537 168.565 144.537C166.775 144.537 165.127 144.17 163.624 143.436C162.138 142.702 160.947 141.681 160.052 140.375C159.157 139.05 158.709 137.528 158.709 135.809C158.709 134.305 158.978 132.962 159.515 131.781C160.07 130.599 160.902 129.597 162.012 128.773C163.122 127.949 164.537 127.323 166.255 126.893C167.974 126.463 169.997 126.249 172.325 126.249H176.219ZM198.375 120.528V155.172H189.324V114.942H197.757L198.375 120.528ZM216.207 129.122V129.686C216.207 131.799 215.965 133.759 215.481 135.567C214.998 137.376 214.282 138.951 213.333 140.294C212.384 141.637 211.202 142.684 209.788 143.436C208.392 144.17 206.771 144.537 204.927 144.537C203.191 144.537 201.696 144.152 200.442 143.382C199.189 142.612 198.142 141.547 197.3 140.187C196.459 138.826 195.778 137.268 195.259 135.514C194.74 133.759 194.328 131.906 194.024 129.955V129.229C194.328 127.135 194.74 125.192 195.259 123.402C195.778 121.594 196.459 120.018 197.3 118.675C198.142 117.333 199.18 116.285 200.416 115.533C201.669 114.781 203.164 114.405 204.9 114.405C206.744 114.405 208.365 114.754 209.761 115.453C211.176 116.151 212.357 117.153 213.306 118.46C214.273 119.75 214.998 121.298 215.481 123.106C215.965 124.915 216.207 126.92 216.207 129.122ZM207.156 129.686V129.122C207.156 127.994 207.076 126.965 206.915 126.034C206.753 125.085 206.494 124.261 206.136 123.563C205.796 122.865 205.339 122.328 204.766 121.952C204.193 121.576 203.486 121.388 202.645 121.388C201.678 121.388 200.863 121.54 200.201 121.844C199.556 122.131 199.037 122.578 198.643 123.187C198.267 123.778 197.999 124.521 197.837 125.416C197.694 126.293 197.632 127.323 197.649 128.504V130.707C197.614 132.067 197.748 133.267 198.052 134.305C198.357 135.326 198.885 136.122 199.637 136.695C200.389 137.268 201.409 137.555 202.698 137.555C203.558 137.555 204.274 137.358 204.847 136.964C205.42 136.552 205.876 135.988 206.216 135.272C206.556 134.538 206.798 133.696 206.941 132.748C207.085 131.799 207.156 130.778 207.156 129.686ZM234.307 144.537C231.944 144.537 229.831 144.17 227.969 143.436C226.107 142.684 224.532 141.655 223.243 140.348C221.972 139.041 220.996 137.537 220.315 135.836C219.653 134.135 219.322 132.336 219.322 130.438V129.417C219.322 127.287 219.617 125.318 220.208 123.509C220.799 121.683 221.676 120.09 222.84 118.729C224.004 117.368 225.463 116.312 227.217 115.56C228.972 114.79 231.013 114.405 233.34 114.405C235.399 114.405 237.243 114.736 238.873 115.399C240.502 116.061 241.88 117.01 243.008 118.246C244.154 119.481 245.022 120.976 245.613 122.73C246.222 124.485 246.526 126.454 246.526 128.639V132.318H222.786V126.651H237.691V125.953C237.709 124.986 237.539 124.163 237.181 123.482C236.84 122.802 236.339 122.283 235.677 121.925C235.014 121.567 234.209 121.388 233.26 121.388C232.275 121.388 231.46 121.603 230.816 122.032C230.189 122.462 229.697 123.053 229.339 123.805C228.999 124.539 228.757 125.389 228.614 126.356C228.471 127.323 228.399 128.343 228.399 129.417V130.438C228.399 131.512 228.542 132.488 228.829 133.365C229.133 134.243 229.563 134.994 230.118 135.621C230.691 136.23 231.371 136.704 232.159 137.044C232.964 137.385 233.877 137.555 234.898 137.555C236.133 137.555 237.351 137.322 238.55 136.856C239.75 136.391 240.779 135.621 241.639 134.547L245.748 139.435C245.157 140.276 244.315 141.091 243.223 141.878C242.149 142.666 240.86 143.311 239.356 143.812C237.852 144.295 236.169 144.537 234.307 144.537ZM265.433 135.836C265.433 135.335 265.263 134.905 264.922 134.547C264.6 134.171 264.027 133.831 263.204 133.526C262.38 133.204 261.225 132.882 259.739 132.56C258.325 132.255 256.991 131.852 255.738 131.351C254.502 130.85 253.419 130.241 252.488 129.525C251.557 128.809 250.823 127.958 250.286 126.974C249.767 125.989 249.507 124.861 249.507 123.59C249.507 122.354 249.767 121.191 250.286 120.099C250.823 118.989 251.602 118.013 252.623 117.171C253.661 116.312 254.923 115.641 256.409 115.157C257.895 114.656 259.587 114.405 261.485 114.405C264.099 114.405 266.355 114.808 268.252 115.614C270.15 116.402 271.609 117.512 272.63 118.944C273.668 120.358 274.188 121.996 274.188 123.858H265.137C265.137 123.124 265.012 122.498 264.761 121.979C264.528 121.459 264.144 121.065 263.606 120.797C263.069 120.51 262.353 120.367 261.458 120.367C260.831 120.367 260.258 120.484 259.739 120.716C259.238 120.949 258.835 121.271 258.531 121.683C258.226 122.095 258.074 122.578 258.074 123.133C258.074 123.527 258.164 123.885 258.343 124.208C258.54 124.512 258.835 124.798 259.229 125.067C259.623 125.318 260.124 125.55 260.733 125.765C261.342 125.962 262.076 126.141 262.935 126.302C264.887 126.66 266.713 127.171 268.414 127.833C270.114 128.495 271.493 129.435 272.549 130.653C273.624 131.87 274.161 133.508 274.161 135.567C274.161 136.856 273.865 138.047 273.274 139.139C272.684 140.213 271.833 141.162 270.723 141.986C269.613 142.792 268.279 143.418 266.722 143.866C265.164 144.313 263.41 144.537 261.458 144.537C258.683 144.537 256.338 144.045 254.422 143.06C252.506 142.057 251.056 140.804 250.071 139.3C249.104 137.778 248.621 136.239 248.621 134.681H257.054C257.09 135.576 257.304 136.31 257.698 136.883C258.11 137.456 258.656 137.877 259.336 138.146C260.017 138.414 260.805 138.548 261.7 138.548C262.523 138.548 263.204 138.432 263.741 138.199C264.296 137.966 264.716 137.653 265.003 137.259C265.289 136.847 265.433 136.373 265.433 135.836ZM325.616 123.67V125.255C325.616 128.245 325.195 130.93 324.354 133.312C323.53 135.675 322.357 137.698 320.835 139.381C319.314 141.046 317.514 142.326 315.438 143.221C313.361 144.098 311.069 144.537 308.562 144.537C306.038 144.537 303.729 144.098 301.634 143.221C299.557 142.326 297.749 141.046 296.209 139.381C294.687 137.698 293.506 135.675 292.664 133.312C291.84 130.93 291.429 128.245 291.429 125.255V123.67C291.429 120.681 291.84 117.995 292.664 115.614C293.506 113.233 294.678 111.209 296.182 109.544C297.704 107.861 299.503 106.581 301.58 105.704C303.675 104.809 305.984 104.361 308.509 104.361C311.015 104.361 313.307 104.809 315.384 105.704C317.479 106.581 319.287 107.861 320.809 109.544C322.33 111.209 323.512 113.233 324.354 115.614C325.195 117.995 325.616 120.681 325.616 123.67ZM316.055 125.255V123.617C316.055 121.683 315.885 119.982 315.545 118.514C315.223 117.028 314.739 115.784 314.095 114.781C313.45 113.779 312.653 113.027 311.705 112.525C310.774 112.006 309.708 111.747 308.509 111.747C307.256 111.747 306.163 112.006 305.232 112.525C304.301 113.027 303.523 113.779 302.896 114.781C302.269 115.784 301.795 117.028 301.473 118.514C301.168 119.982 301.016 121.683 301.016 123.617V125.255C301.016 127.171 301.168 128.871 301.473 130.357C301.795 131.826 302.269 133.07 302.896 134.09C303.541 135.111 304.328 135.881 305.259 136.4C306.208 136.919 307.309 137.179 308.562 137.179C309.762 137.179 310.827 136.919 311.758 136.4C312.689 135.881 313.468 135.111 314.095 134.09C314.739 133.07 315.223 131.826 315.545 130.357C315.885 128.871 316.055 127.171 316.055 125.255ZM341.165 144H332.061V112.579C332.061 110.323 332.518 108.425 333.431 106.886C334.344 105.346 335.633 104.182 337.298 103.395C338.963 102.589 340.932 102.186 343.206 102.186C343.994 102.186 344.737 102.24 345.435 102.347C346.133 102.455 346.814 102.589 347.476 102.75L347.503 109.41C347.181 109.321 346.849 109.258 346.509 109.222C346.169 109.186 345.748 109.168 345.247 109.168C344.37 109.168 343.627 109.303 343.018 109.571C342.409 109.822 341.944 110.207 341.622 110.726C341.317 111.227 341.165 111.845 341.165 112.579V144ZM346.805 114.942V121.227H327.872V114.942H346.805ZM384.322 133.607C384.322 132.998 384.232 132.452 384.053 131.969C383.874 131.467 383.543 131.002 383.06 130.572C382.576 130.143 381.878 129.713 380.965 129.283C380.07 128.836 378.888 128.37 377.42 127.887C375.701 127.314 374.045 126.669 372.452 125.953C370.858 125.219 369.435 124.369 368.182 123.402C366.928 122.417 365.935 121.271 365.201 119.964C364.467 118.639 364.1 117.1 364.1 115.345C364.1 113.662 364.476 112.149 365.228 110.807C365.979 109.446 367.027 108.291 368.37 107.342C369.73 106.375 371.324 105.641 373.15 105.14C374.976 104.621 376.972 104.361 379.139 104.361C382.003 104.361 384.528 104.863 386.712 105.865C388.914 106.85 390.633 108.255 391.868 110.082C393.121 111.89 393.748 114.029 393.748 116.5H384.375C384.375 115.515 384.17 114.647 383.758 113.895C383.364 113.143 382.764 112.552 381.958 112.123C381.153 111.693 380.141 111.478 378.924 111.478C377.742 111.478 376.749 111.657 375.943 112.015C375.137 112.373 374.528 112.857 374.117 113.465C373.705 114.056 373.499 114.71 373.499 115.426C373.499 116.017 373.66 116.554 373.982 117.037C374.323 117.503 374.797 117.941 375.406 118.353C376.032 118.765 376.784 119.159 377.662 119.535C378.557 119.911 379.559 120.278 380.669 120.636C382.746 121.298 384.59 122.041 386.202 122.865C387.831 123.67 389.201 124.592 390.311 125.631C391.438 126.651 392.289 127.815 392.862 129.122C393.453 130.429 393.748 131.906 393.748 133.553C393.748 135.308 393.408 136.865 392.728 138.226C392.047 139.587 391.071 140.742 389.8 141.69C388.529 142.621 387.007 143.329 385.235 143.812C383.462 144.295 381.484 144.537 379.3 144.537C377.295 144.537 375.316 144.286 373.365 143.785C371.431 143.266 369.677 142.478 368.101 141.422C366.526 140.348 365.263 138.978 364.314 137.313C363.383 135.63 362.918 133.634 362.918 131.324H372.371C372.371 132.47 372.523 133.437 372.828 134.225C373.132 135.012 373.58 135.648 374.17 136.131C374.761 136.597 375.486 136.937 376.346 137.152C377.205 137.349 378.19 137.447 379.3 137.447C380.499 137.447 381.466 137.277 382.2 136.937C382.934 136.579 383.471 136.113 383.812 135.541C384.152 134.95 384.322 134.305 384.322 133.607ZM397.051 129.767V129.203C397.051 127.072 397.356 125.112 397.964 123.321C398.573 121.513 399.468 119.946 400.65 118.622C401.832 117.297 403.291 116.267 405.027 115.533C406.764 114.781 408.769 114.405 411.043 114.405C413.335 114.405 415.349 114.781 417.085 115.533C418.84 116.267 420.308 117.297 421.49 118.622C422.671 119.946 423.567 121.513 424.175 123.321C424.784 125.112 425.088 127.072 425.088 129.203V129.767C425.088 131.879 424.784 133.84 424.175 135.648C423.567 137.438 422.671 139.005 421.49 140.348C420.308 141.673 418.849 142.702 417.112 143.436C415.376 144.17 413.37 144.537 411.097 144.537C408.823 144.537 406.809 144.17 405.054 143.436C403.3 142.702 401.832 141.673 400.65 140.348C399.468 139.005 398.573 137.438 397.964 135.648C397.356 133.84 397.051 131.879 397.051 129.767ZM406.102 129.203V129.767C406.102 130.859 406.182 131.879 406.343 132.828C406.504 133.777 406.773 134.61 407.149 135.326C407.525 136.024 408.035 136.57 408.68 136.964C409.324 137.358 410.13 137.555 411.097 137.555C412.046 137.555 412.833 137.358 413.46 136.964C414.104 136.57 414.615 136.024 414.991 135.326C415.367 134.61 415.635 133.777 415.796 132.828C415.958 131.879 416.038 130.859 416.038 129.767V129.203C416.038 128.146 415.958 127.153 415.796 126.222C415.635 125.273 415.367 124.44 414.991 123.724C414.615 122.99 414.104 122.417 413.46 122.005C412.815 121.594 412.01 121.388 411.043 121.388C410.094 121.388 409.297 121.594 408.653 122.005C408.026 122.417 407.525 122.99 407.149 123.724C406.773 124.44 406.504 125.273 406.343 126.222C406.182 127.153 406.102 128.146 406.102 129.203ZM446.089 136.937V114.942H455.167V144H446.68L446.089 136.937ZM446.949 131.029L449.312 130.975C449.312 132.927 449.079 134.735 448.614 136.4C448.148 138.047 447.459 139.479 446.546 140.697C445.651 141.914 444.541 142.863 443.216 143.543C441.909 144.206 440.396 144.537 438.677 144.537C437.245 144.537 435.929 144.34 434.729 143.946C433.548 143.535 432.527 142.899 431.668 142.04C430.809 141.162 430.137 140.043 429.654 138.683C429.188 137.304 428.956 135.657 428.956 133.741V114.942H438.006V133.795C438.006 134.439 438.086 134.994 438.248 135.46C438.409 135.925 438.641 136.319 438.946 136.642C439.25 136.946 439.626 137.179 440.074 137.34C440.539 137.483 441.067 137.555 441.658 137.555C443.019 137.555 444.084 137.268 444.854 136.695C445.624 136.122 446.161 135.344 446.465 134.359C446.788 133.374 446.949 132.264 446.949 131.029ZM469.051 121.146V144H460V114.942H468.487L469.051 121.146ZM467.977 128.478L465.855 128.531C465.855 126.311 466.124 124.333 466.661 122.596C467.198 120.842 467.959 119.356 468.943 118.138C469.928 116.921 471.101 115.999 472.461 115.372C473.84 114.728 475.371 114.405 477.054 114.405C478.396 114.405 479.623 114.602 480.733 114.996C481.861 115.39 482.828 116.026 483.633 116.903C484.457 117.78 485.083 118.944 485.513 120.394C485.961 121.826 486.185 123.599 486.185 125.711V144H477.081V125.685C477.081 124.521 476.919 123.635 476.597 123.026C476.275 122.399 475.809 121.97 475.201 121.737C474.592 121.504 473.849 121.388 472.972 121.388C472.041 121.388 471.253 121.567 470.608 121.925C469.964 122.283 469.445 122.784 469.051 123.429C468.675 124.055 468.397 124.798 468.218 125.658C468.057 126.517 467.977 127.457 467.977 128.478ZM507.911 137.34V102.75H517.015V144H508.851L507.911 137.34ZM490.079 129.82V129.256C490.079 127.054 490.32 125.049 490.804 123.241C491.287 121.415 492.003 119.848 492.952 118.541C493.901 117.216 495.083 116.196 496.497 115.479C497.911 114.763 499.541 114.405 501.385 114.405C503.032 114.405 504.473 114.79 505.708 115.56C506.944 116.312 508 117.368 508.877 118.729C509.755 120.09 510.471 121.683 511.026 123.509C511.581 125.318 512.002 127.269 512.288 129.364V130.035C512.002 132.005 511.581 133.867 511.026 135.621C510.471 137.358 509.755 138.897 508.877 140.24C508 141.583 506.935 142.639 505.682 143.409C504.446 144.161 502.996 144.537 501.331 144.537C499.487 144.537 497.858 144.17 496.443 143.436C495.047 142.702 493.874 141.673 492.925 140.348C491.994 139.023 491.287 137.465 490.804 135.675C490.32 133.884 490.079 131.933 490.079 129.82ZM499.129 129.256V129.82C499.129 130.912 499.201 131.924 499.344 132.855C499.487 133.786 499.729 134.61 500.069 135.326C500.427 136.024 500.892 136.57 501.465 136.964C502.056 137.358 502.781 137.555 503.641 137.555C504.804 137.555 505.762 137.277 506.514 136.722C507.284 136.167 507.848 135.379 508.206 134.359C508.582 133.338 508.743 132.139 508.689 130.76V128.639C508.725 127.457 508.645 126.419 508.448 125.523C508.251 124.61 507.938 123.849 507.508 123.241C507.096 122.632 506.568 122.175 505.923 121.871C505.297 121.549 504.554 121.388 503.694 121.388C502.853 121.388 502.137 121.585 501.546 121.979C500.973 122.372 500.507 122.927 500.149 123.644C499.791 124.342 499.532 125.174 499.371 126.141C499.209 127.09 499.129 128.128 499.129 129.256Z" fill="black"/>
<path d="M103.912 71.1304H97.5713V67.1313H103.912C104.891 67.1313 105.689 66.9718 106.304 66.6528C106.919 66.3224 107.369 65.8667 107.654 65.2856C107.939 64.7046 108.082 64.0495 108.082 63.3203C108.082 62.5798 107.939 61.8905 107.654 61.2524C107.369 60.6144 106.919 60.1017 106.304 59.7144C105.689 59.327 104.891 59.1333 103.912 59.1333H99.3486V80H94.2217V55.1172H103.912C105.86 55.1172 107.529 55.4704 108.919 56.1768C110.32 56.8717 111.391 57.8345 112.132 59.0649C112.872 60.2954 113.243 61.7025 113.243 63.2861C113.243 64.8926 112.872 66.2826 112.132 67.4561C111.391 68.6296 110.32 69.5353 108.919 70.1733C107.529 70.8114 105.86 71.1304 103.912 71.1304ZM124.744 80.3418C123.309 80.3418 122.021 80.1139 120.882 79.6582C119.743 79.1911 118.774 78.5474 117.977 77.7271C117.19 76.9067 116.587 75.9554 116.165 74.873C115.743 73.7793 115.533 72.6172 115.533 71.3867V70.7031C115.533 69.3018 115.732 68.02 116.131 66.8579C116.53 65.6958 117.099 64.6875 117.84 63.833C118.592 62.9785 119.503 62.3234 120.574 61.8677C121.645 61.4006 122.853 61.167 124.197 61.167C125.507 61.167 126.67 61.3835 127.684 61.8164C128.698 62.2493 129.546 62.8646 130.23 63.6621C130.925 64.4596 131.449 65.4167 131.802 66.5332C132.155 67.6383 132.332 68.8688 132.332 70.2246V72.2754H117.635V68.9941H127.496V68.6182C127.496 67.9346 127.37 67.325 127.12 66.7896C126.88 66.2427 126.516 65.8097 126.026 65.4907C125.536 65.1717 124.909 65.0122 124.146 65.0122C123.497 65.0122 122.938 65.1546 122.471 65.4395C122.004 65.7243 121.622 66.123 121.326 66.6357C121.041 67.1484 120.825 67.7523 120.677 68.4473C120.54 69.1309 120.472 69.8828 120.472 70.7031V71.3867C120.472 72.1273 120.574 72.8109 120.779 73.4375C120.996 74.0641 121.298 74.6053 121.685 75.061C122.084 75.5168 122.562 75.87 123.121 76.1206C123.69 76.3713 124.334 76.4966 125.052 76.4966C125.94 76.4966 126.766 76.3257 127.53 75.9839C128.305 75.6307 128.971 75.1009 129.529 74.3945L131.922 76.9922C131.535 77.5505 131.005 78.0859 130.333 78.5986C129.672 79.1113 128.874 79.5329 127.94 79.8633C127.006 80.1823 125.94 80.3418 124.744 80.3418ZM144.192 61.5088V64.9951H133.426V61.5088H144.192ZM136.092 56.9458H141.014V74.4287C141.014 74.9642 141.082 75.3743 141.219 75.6592C141.367 75.944 141.583 76.1434 141.868 76.2573C142.153 76.3599 142.512 76.4111 142.945 76.4111C143.252 76.4111 143.526 76.3997 143.765 76.377C144.016 76.3428 144.227 76.3086 144.397 76.2744L144.415 79.8975C143.993 80.0342 143.537 80.1424 143.047 80.2222C142.557 80.3019 142.016 80.3418 141.424 80.3418C140.341 80.3418 139.396 80.1652 138.587 79.812C137.789 79.4474 137.174 78.8664 136.741 78.0688C136.308 77.2713 136.092 76.2231 136.092 74.9243V56.9458ZM155.506 80.3418C154.07 80.3418 152.783 80.1139 151.644 79.6582C150.504 79.1911 149.536 78.5474 148.738 77.7271C147.952 76.9067 147.348 75.9554 146.927 74.873C146.505 73.7793 146.294 72.6172 146.294 71.3867V70.7031C146.294 69.3018 146.494 68.02 146.893 66.8579C147.291 65.6958 147.861 64.6875 148.602 63.833C149.354 62.9785 150.265 62.3234 151.336 61.8677C152.407 61.4006 153.615 61.167 154.959 61.167C156.269 61.167 157.431 61.3835 158.445 61.8164C159.459 62.2493 160.308 62.8646 160.992 63.6621C161.687 64.4596 162.211 65.4167 162.564 66.5332C162.917 67.6383 163.094 68.8688 163.094 70.2246V72.2754H148.396V68.9941H158.257V68.6182C158.257 67.9346 158.132 67.325 157.881 66.7896C157.642 66.2427 157.278 65.8097 156.788 65.4907C156.298 65.1717 155.671 65.0122 154.908 65.0122C154.258 65.0122 153.7 65.1546 153.233 65.4395C152.766 65.7243 152.384 66.123 152.088 66.6357C151.803 67.1484 151.587 67.7523 151.438 68.4473C151.302 69.1309 151.233 69.8828 151.233 70.7031V71.3867C151.233 72.1273 151.336 72.8109 151.541 73.4375C151.757 74.0641 152.059 74.6053 152.447 75.061C152.846 75.5168 153.324 75.87 153.882 76.1206C154.452 76.3713 155.096 76.4966 155.813 76.4966C156.702 76.4966 157.528 76.3257 158.292 75.9839C159.066 75.6307 159.733 75.1009 160.291 74.3945L162.684 76.9922C162.296 77.5505 161.766 78.0859 161.094 78.5986C160.433 79.1113 159.636 79.5329 158.702 79.8633C157.767 80.1823 156.702 80.3418 155.506 80.3418ZM170.818 65.542V80H165.896V61.5088H170.528L170.818 65.542ZM176.39 61.3892L176.304 65.9521C176.065 65.918 175.774 65.8895 175.433 65.8667C175.102 65.8325 174.8 65.8154 174.527 65.8154C173.832 65.8154 173.228 65.9066 172.715 66.0889C172.214 66.2598 171.792 66.5161 171.451 66.8579C171.12 67.1997 170.87 67.6156 170.699 68.1055C170.539 68.5954 170.448 69.1536 170.425 69.7803L169.434 69.4727C169.434 68.2764 169.554 67.1769 169.793 66.1743C170.032 65.1603 170.38 64.2773 170.835 63.5254C171.303 62.7734 171.872 62.1924 172.544 61.7822C173.217 61.3721 173.986 61.167 174.852 61.167C175.125 61.167 175.404 61.1898 175.689 61.2354C175.974 61.2695 176.207 61.3208 176.39 61.3892ZM200.691 73.4888C200.691 73.0444 200.623 72.6457 200.486 72.2925C200.361 71.9279 200.122 71.5975 199.769 71.3013C199.415 70.9937 198.92 70.6917 198.282 70.3955C197.644 70.0993 196.818 69.7917 195.804 69.4727C194.676 69.1081 193.605 68.6979 192.591 68.2422C191.588 67.7865 190.7 67.2567 189.925 66.6528C189.161 66.0376 188.558 65.3255 188.113 64.5166C187.68 63.7077 187.464 62.7677 187.464 61.6968C187.464 60.66 187.692 59.7201 188.147 58.877C188.603 58.0225 189.241 57.2933 190.062 56.6895C190.882 56.0742 191.85 55.6014 192.967 55.271C194.095 54.9406 195.331 54.7754 196.675 54.7754C198.51 54.7754 200.11 55.1058 201.478 55.7666C202.845 56.4274 203.904 57.3332 204.656 58.4839C205.42 59.6346 205.801 60.9505 205.801 62.4316H200.708C200.708 61.7025 200.555 61.0645 200.247 60.5176C199.951 59.9593 199.495 59.5207 198.88 59.2017C198.276 58.8826 197.513 58.7231 196.59 58.7231C195.701 58.7231 194.961 58.8599 194.368 59.1333C193.776 59.3953 193.331 59.7542 193.035 60.21C192.739 60.6543 192.591 61.1556 192.591 61.7139C192.591 62.1354 192.693 62.5171 192.898 62.8589C193.115 63.2007 193.434 63.5197 193.855 63.8159C194.277 64.1121 194.795 64.3913 195.411 64.6533C196.026 64.9154 196.738 65.1717 197.547 65.4224C198.903 65.8325 200.093 66.2939 201.119 66.8066C202.155 67.3193 203.021 67.8947 203.716 68.5327C204.411 69.1707 204.935 69.8942 205.289 70.7031C205.642 71.512 205.818 72.4292 205.818 73.4546C205.818 74.5369 205.608 75.5054 205.186 76.3599C204.764 77.2144 204.155 77.9378 203.357 78.5303C202.56 79.1227 201.609 79.5728 200.503 79.8804C199.398 80.188 198.162 80.3418 196.795 80.3418C195.564 80.3418 194.351 80.1823 193.155 79.8633C191.958 79.5329 190.87 79.0373 189.891 78.3765C188.922 77.7157 188.147 76.8726 187.566 75.8472C186.985 74.8218 186.695 73.6084 186.695 72.207H191.839C191.839 72.9818 191.958 73.6369 192.198 74.1724C192.437 74.7078 192.773 75.1408 193.206 75.4712C193.65 75.8016 194.174 76.0409 194.778 76.189C195.394 76.3371 196.066 76.4111 196.795 76.4111C197.684 76.4111 198.413 76.2858 198.982 76.0352C199.563 75.7845 199.991 75.437 200.264 74.9927C200.549 74.5483 200.691 74.047 200.691 73.4888ZM218.978 75.8301V67.5928C218.978 67.0003 218.881 66.4933 218.687 66.0718C218.493 65.6388 218.191 65.3027 217.781 65.0635C217.382 64.8242 216.864 64.7046 216.226 64.7046C215.679 64.7046 215.206 64.8014 214.808 64.9951C214.409 65.1774 214.101 65.4451 213.885 65.7983C213.668 66.1401 213.56 66.5446 213.56 67.0117H208.638C208.638 66.2256 208.82 65.4793 209.185 64.7729C209.55 64.0666 210.079 63.4456 210.774 62.9102C211.469 62.3633 212.295 61.936 213.252 61.6284C214.221 61.3208 215.303 61.167 216.5 61.167C217.935 61.167 219.211 61.4062 220.328 61.8848C221.444 62.3633 222.321 63.0811 222.959 64.0381C223.609 64.9951 223.934 66.1914 223.934 67.627V75.5396C223.934 76.5535 223.996 77.3853 224.122 78.0347C224.247 78.6727 224.429 79.231 224.668 79.7095V80H219.695C219.456 79.4987 219.274 78.8721 219.148 78.1201C219.035 77.3568 218.978 76.5934 218.978 75.8301ZM219.627 68.7378L219.661 71.5234H216.91C216.26 71.5234 215.696 71.5975 215.218 71.7456C214.739 71.8937 214.346 72.1045 214.039 72.3779C213.731 72.64 213.503 72.9476 213.355 73.3008C213.218 73.654 213.15 74.0413 213.15 74.4629C213.15 74.8844 213.247 75.2661 213.44 75.6079C213.634 75.9383 213.913 76.2004 214.278 76.394C214.642 76.5763 215.07 76.6675 215.56 76.6675C216.3 76.6675 216.944 76.5194 217.491 76.2231C218.038 75.9269 218.459 75.5623 218.755 75.1294C219.063 74.6965 219.222 74.2863 219.234 73.8989L220.533 75.9839C220.35 76.451 220.1 76.9352 219.781 77.4365C219.473 77.9378 219.08 78.4106 218.602 78.855C218.123 79.2879 217.548 79.6468 216.875 79.9316C216.203 80.2051 215.406 80.3418 214.483 80.3418C213.309 80.3418 212.244 80.1082 211.287 79.6411C210.341 79.1626 209.59 78.5075 209.031 77.6758C208.484 76.8327 208.211 75.8757 208.211 74.8047C208.211 73.8363 208.393 72.9761 208.758 72.2241C209.122 71.4722 209.658 70.8398 210.364 70.3271C211.082 69.8031 211.976 69.41 213.047 69.1479C214.118 68.8745 215.36 68.7378 216.773 68.7378H219.627ZM227.728 53.75H232.649V75.7617L232.154 80H227.728V53.75ZM244.356 70.5664V70.9253C244.356 72.3039 244.208 73.5685 243.912 74.7192C243.627 75.87 243.182 76.8669 242.579 77.71C241.975 78.5417 241.223 79.1911 240.323 79.6582C239.434 80.1139 238.386 80.3418 237.178 80.3418C236.05 80.3418 235.07 80.1139 234.239 79.6582C233.418 79.2025 232.729 78.5588 232.171 77.7271C231.613 76.8953 231.163 75.9212 230.821 74.8047C230.479 73.6882 230.223 72.4691 230.052 71.1475V70.3613C230.223 69.0397 230.479 67.8206 230.821 66.7041C231.163 65.5876 231.613 64.6134 232.171 63.7817C232.729 62.95 233.418 62.3063 234.239 61.8506C235.059 61.3949 236.028 61.167 237.144 61.167C238.363 61.167 239.423 61.4006 240.323 61.8677C241.234 62.3234 241.986 62.9728 242.579 63.8159C243.182 64.6476 243.627 65.6388 243.912 66.7896C244.208 67.9289 244.356 69.1878 244.356 70.5664ZM239.434 70.9253V70.5664C239.434 69.8145 239.377 69.1081 239.263 68.4473C239.161 67.7751 238.978 67.1883 238.716 66.687C238.454 66.1743 238.095 65.7699 237.64 65.4736C237.195 65.1774 236.62 65.0293 235.914 65.0293C235.241 65.0293 234.672 65.1432 234.205 65.3711C233.737 65.599 233.35 65.918 233.042 66.3281C232.746 66.7383 232.524 67.2282 232.376 67.7979C232.228 68.3561 232.137 68.9714 232.103 69.6436V71.8823C232.137 72.7824 232.285 73.5799 232.547 74.2749C232.82 74.9585 233.23 75.4997 233.777 75.8984C234.336 76.2858 235.059 76.4795 235.948 76.4795C236.643 76.4795 237.218 76.3428 237.674 76.0693C238.13 75.7959 238.483 75.4085 238.733 74.9072C238.995 74.4059 239.178 73.8192 239.28 73.147C239.383 72.4634 239.434 71.7228 239.434 70.9253ZM257.396 75.8301V67.5928C257.396 67.0003 257.299 66.4933 257.105 66.0718C256.911 65.6388 256.609 65.3027 256.199 65.0635C255.8 64.8242 255.282 64.7046 254.644 64.7046C254.097 64.7046 253.624 64.8014 253.226 64.9951C252.827 65.1774 252.519 65.4451 252.303 65.7983C252.086 66.1401 251.978 66.5446 251.978 67.0117H247.056C247.056 66.2256 247.238 65.4793 247.603 64.7729C247.968 64.0666 248.497 63.4456 249.192 62.9102C249.887 62.3633 250.713 61.936 251.67 61.6284C252.639 61.3208 253.721 61.167 254.917 61.167C256.353 61.167 257.629 61.4062 258.746 61.8848C259.862 62.3633 260.739 63.0811 261.377 64.0381C262.027 64.9951 262.352 66.1914 262.352 67.627V75.5396C262.352 76.5535 262.414 77.3853 262.54 78.0347C262.665 78.6727 262.847 79.231 263.086 79.7095V80H258.113C257.874 79.4987 257.692 78.8721 257.566 78.1201C257.452 77.3568 257.396 76.5934 257.396 75.8301ZM258.045 68.7378L258.079 71.5234H255.328C254.678 71.5234 254.114 71.5975 253.636 71.7456C253.157 71.8937 252.764 72.1045 252.457 72.3779C252.149 72.64 251.921 72.9476 251.773 73.3008C251.636 73.654 251.568 74.0413 251.568 74.4629C251.568 74.8844 251.665 75.2661 251.858 75.6079C252.052 75.9383 252.331 76.2004 252.696 76.394C253.06 76.5763 253.488 76.6675 253.978 76.6675C254.718 76.6675 255.362 76.5194 255.909 76.2231C256.456 75.9269 256.877 75.5623 257.173 75.1294C257.481 74.6965 257.64 74.2863 257.652 73.8989L258.951 75.9839C258.768 76.451 258.518 76.9352 258.199 77.4365C257.891 77.9378 257.498 78.4106 257.02 78.855C256.541 79.2879 255.966 79.6468 255.293 79.9316C254.621 80.2051 253.824 80.3418 252.901 80.3418C251.727 80.3418 250.662 80.1082 249.705 79.6411C248.759 79.1626 248.007 78.5075 247.449 77.6758C246.902 76.8327 246.629 75.8757 246.629 74.8047C246.629 73.8363 246.811 72.9761 247.176 72.2241C247.54 71.4722 248.076 70.8398 248.782 70.3271C249.5 69.8031 250.394 69.41 251.465 69.1479C252.536 68.8745 253.778 68.7378 255.191 68.7378H258.045Z" fill="#888888"/>
<rect x="92" y="181" width="1179" height="80" rx="13.3333" fill="#CCCCCC"/>
<rect x="107" y="196.333" width="208" height="49.3333" rx="4.66667" fill="#888888" stroke="#888888" stroke-width="4"/>
<path d="M165.375 213.167V228.333H161.719V213.167H165.375ZM169.938 213.167V215.99H157.26V213.167H169.938ZM175.844 228.542C174.927 228.542 174.108 228.399 173.385 228.115C172.663 227.823 172.052 227.424 171.552 226.917C171.059 226.41 170.681 225.826 170.417 225.167C170.16 224.507 170.031 223.809 170.031 223.073V222.677C170.031 221.851 170.146 221.087 170.375 220.385C170.604 219.677 170.944 219.059 171.396 218.531C171.847 218.003 172.413 217.594 173.094 217.302C173.774 217.003 174.566 216.854 175.469 216.854C176.267 216.854 176.983 216.983 177.615 217.24C178.247 217.497 178.781 217.865 179.219 218.344C179.663 218.823 180 219.403 180.229 220.083C180.465 220.764 180.583 221.528 180.583 222.375V223.802H171.375V221.604H177.156V221.333C177.163 220.958 177.097 220.639 176.958 220.375C176.826 220.111 176.632 219.91 176.375 219.771C176.118 219.632 175.806 219.562 175.438 219.562C175.056 219.562 174.74 219.646 174.49 219.812C174.247 219.979 174.056 220.208 173.917 220.5C173.785 220.785 173.691 221.115 173.635 221.49C173.58 221.865 173.552 222.26 173.552 222.677V223.073C173.552 223.49 173.608 223.868 173.719 224.208C173.837 224.549 174.003 224.84 174.219 225.083C174.441 225.319 174.705 225.503 175.01 225.635C175.323 225.767 175.677 225.833 176.073 225.833C176.552 225.833 177.024 225.743 177.49 225.562C177.955 225.382 178.354 225.083 178.688 224.667L180.281 226.562C180.052 226.889 179.726 227.205 179.302 227.51C178.885 227.816 178.385 228.066 177.802 228.26C177.219 228.448 176.566 228.542 175.844 228.542ZM185.458 219.469V228.333H181.948V217.062H185.24L185.458 219.469ZM185.042 222.312L184.219 222.333C184.219 221.472 184.323 220.705 184.531 220.031C184.74 219.351 185.035 218.774 185.417 218.302C185.799 217.83 186.253 217.472 186.781 217.229C187.316 216.979 187.91 216.854 188.563 216.854C189.083 216.854 189.559 216.931 189.99 217.083C190.427 217.236 190.802 217.483 191.115 217.823C191.434 218.163 191.677 218.615 191.844 219.177C192.017 219.733 192.104 220.42 192.104 221.24V228.333H188.573V221.229C188.573 220.778 188.51 220.434 188.385 220.198C188.26 219.955 188.08 219.788 187.844 219.698C187.608 219.608 187.319 219.562 186.979 219.562C186.618 219.562 186.313 219.632 186.063 219.771C185.813 219.91 185.611 220.104 185.458 220.354C185.313 220.597 185.205 220.885 185.135 221.219C185.073 221.552 185.042 221.917 185.042 222.312ZM199.958 225.167C199.958 224.972 199.892 224.806 199.76 224.667C199.635 224.521 199.413 224.389 199.094 224.271C198.774 224.146 198.326 224.021 197.75 223.896C197.201 223.778 196.684 223.622 196.198 223.427C195.719 223.233 195.299 222.997 194.938 222.719C194.576 222.441 194.292 222.111 194.083 221.729C193.882 221.347 193.781 220.91 193.781 220.417C193.781 219.937 193.882 219.486 194.083 219.062C194.292 218.632 194.594 218.253 194.99 217.927C195.392 217.594 195.882 217.333 196.458 217.146C197.035 216.951 197.691 216.854 198.427 216.854C199.441 216.854 200.316 217.01 201.052 217.323C201.788 217.628 202.354 218.059 202.75 218.615C203.153 219.163 203.354 219.799 203.354 220.521H199.844C199.844 220.236 199.795 219.993 199.698 219.792C199.608 219.59 199.458 219.437 199.25 219.333C199.042 219.222 198.764 219.167 198.417 219.167C198.174 219.167 197.951 219.212 197.75 219.302C197.556 219.392 197.399 219.517 197.281 219.677C197.163 219.837 197.104 220.024 197.104 220.24C197.104 220.392 197.139 220.531 197.208 220.656C197.285 220.774 197.399 220.885 197.552 220.99C197.705 221.087 197.899 221.177 198.135 221.26C198.372 221.337 198.656 221.406 198.99 221.469C199.747 221.608 200.455 221.806 201.115 222.062C201.774 222.319 202.309 222.684 202.719 223.156C203.135 223.628 203.344 224.264 203.344 225.062C203.344 225.562 203.229 226.024 203 226.448C202.771 226.865 202.441 227.233 202.01 227.552C201.58 227.865 201.063 228.108 200.458 228.281C199.854 228.455 199.174 228.542 198.417 228.542C197.34 228.542 196.431 228.351 195.688 227.969C194.944 227.58 194.382 227.094 194 226.51C193.625 225.92 193.438 225.323 193.438 224.719H196.708C196.722 225.066 196.806 225.351 196.958 225.573C197.118 225.795 197.33 225.958 197.594 226.062C197.858 226.167 198.163 226.219 198.51 226.219C198.83 226.219 199.094 226.174 199.302 226.083C199.517 225.993 199.681 225.872 199.792 225.719C199.903 225.559 199.958 225.375 199.958 225.167ZM204.552 222.812V222.594C204.552 221.767 204.67 221.007 204.906 220.312C205.142 219.611 205.49 219.003 205.948 218.49C206.406 217.976 206.972 217.576 207.646 217.292C208.319 217 209.097 216.854 209.979 216.854C210.868 216.854 211.649 217 212.323 217.292C213.003 217.576 213.573 217.976 214.031 218.49C214.49 219.003 214.837 219.611 215.073 220.312C215.309 221.007 215.427 221.767 215.427 222.594V222.812C215.427 223.632 215.309 224.392 215.073 225.094C214.837 225.788 214.49 226.396 214.031 226.917C213.573 227.431 213.007 227.83 212.333 228.115C211.66 228.399 210.882 228.542 210 228.542C209.118 228.542 208.337 228.399 207.656 228.115C206.976 227.83 206.406 227.431 205.948 226.917C205.49 226.396 205.142 225.788 204.906 225.094C204.67 224.392 204.552 223.632 204.552 222.812ZM208.063 222.594V222.812C208.063 223.236 208.094 223.632 208.156 224C208.219 224.368 208.323 224.691 208.469 224.969C208.615 225.24 208.813 225.451 209.063 225.604C209.313 225.757 209.625 225.833 210 225.833C210.368 225.833 210.674 225.757 210.917 225.604C211.167 225.451 211.365 225.24 211.51 224.969C211.656 224.691 211.76 224.368 211.823 224C211.885 223.632 211.917 223.236 211.917 222.812V222.594C211.917 222.184 211.885 221.799 211.823 221.437C211.76 221.069 211.656 220.747 211.51 220.469C211.365 220.184 211.167 219.962 210.917 219.802C210.667 219.642 210.354 219.562 209.979 219.562C209.611 219.562 209.302 219.642 209.052 219.802C208.809 219.962 208.615 220.184 208.469 220.469C208.323 220.747 208.219 221.069 208.156 221.437C208.094 221.799 208.063 222.184 208.063 222.594ZM220.531 219.854V228.333H217.021V217.062H220.302L220.531 219.854ZM223.865 216.979L223.802 220.24C223.663 220.226 223.476 220.208 223.24 220.187C223.003 220.167 222.806 220.156 222.646 220.156C222.236 220.156 221.882 220.205 221.583 220.302C221.292 220.392 221.049 220.531 220.854 220.719C220.667 220.899 220.528 221.128 220.438 221.406C220.354 221.684 220.316 222.007 220.323 222.375L219.688 221.958C219.688 221.201 219.76 220.514 219.906 219.896C220.059 219.271 220.274 218.733 220.552 218.281C220.83 217.823 221.167 217.472 221.563 217.229C221.958 216.979 222.403 216.854 222.896 216.854C223.069 216.854 223.24 216.865 223.406 216.885C223.58 216.906 223.733 216.937 223.865 216.979ZM229.375 228.333H225.844V216.354C225.844 215.437 226.042 214.667 226.438 214.042C226.833 213.41 227.406 212.931 228.156 212.604C228.913 212.278 229.819 212.115 230.875 212.115C231.333 212.115 231.906 212.128 232.594 212.156C233.281 212.177 233.972 212.205 234.667 212.24C235.368 212.267 235.962 212.299 236.448 212.333L235.031 215.156C234.413 215.059 233.806 214.979 233.208 214.917C232.611 214.854 232.014 214.823 231.417 214.823C230.979 214.823 230.608 214.882 230.302 215C230.003 215.118 229.774 215.292 229.615 215.521C229.455 215.743 229.375 216.021 229.375 216.354V228.333ZM232.927 228.333V212.333H236.448V228.333H232.927ZM231.563 217.062V219.5H224.219V217.062H231.563ZM238.177 222.812V222.594C238.177 221.767 238.295 221.007 238.531 220.312C238.767 219.611 239.115 219.003 239.573 218.49C240.031 217.976 240.597 217.576 241.271 217.292C241.944 217 242.722 216.854 243.604 216.854C244.493 216.854 245.274 217 245.948 217.292C246.628 217.576 247.198 217.976 247.656 218.49C248.115 219.003 248.462 219.611 248.698 220.312C248.934 221.007 249.052 221.767 249.052 222.594V222.812C249.052 223.632 248.934 224.392 248.698 225.094C248.462 225.788 248.115 226.396 247.656 226.917C247.198 227.431 246.632 227.83 245.958 228.115C245.285 228.399 244.507 228.542 243.625 228.542C242.743 228.542 241.962 228.399 241.281 228.115C240.601 227.83 240.031 227.431 239.573 226.917C239.115 226.396 238.767 225.788 238.531 225.094C238.295 224.392 238.177 223.632 238.177 222.812ZM241.688 222.594V222.812C241.688 223.236 241.719 223.632 241.781 224C241.844 224.368 241.948 224.691 242.094 224.969C242.24 225.24 242.438 225.451 242.688 225.604C242.938 225.757 243.25 225.833 243.625 225.833C243.993 225.833 244.299 225.757 244.542 225.604C244.792 225.451 244.99 225.24 245.135 224.969C245.281 224.691 245.385 224.368 245.448 224C245.51 223.632 245.542 223.236 245.542 222.812V222.594C245.542 222.184 245.51 221.799 245.448 221.437C245.385 221.069 245.281 220.747 245.135 220.469C244.99 220.184 244.792 219.962 244.542 219.802C244.292 219.642 243.979 219.562 243.604 219.562C243.236 219.562 242.927 219.642 242.677 219.802C242.434 219.962 242.24 220.184 242.094 220.469C241.948 220.747 241.844 221.069 241.781 221.437C241.719 221.799 241.688 222.184 241.688 222.594ZM254.042 224.979L256.125 217.062H258.323L257.542 221.031L255.479 228.333H253.719L254.042 224.979ZM253.219 217.062L254.51 224.917L254.656 228.333H252.521L249.854 217.062H253.219ZM260.177 224.75L261.479 217.062H264.844L262.198 228.333H260.063L260.177 224.75ZM258.573 217.062L260.677 224.958L261 228.333H259.219L257.198 221.052L256.448 217.062H258.573Z" fill="white"/>
<rect x="339" y="196.333" width="208" height="49.3333" rx="4.66667" fill="#888888" stroke="#888888" stroke-width="4"/>
<path d="M420.292 213.167V228.333H416.635V213.167H420.292ZM429.344 213.167L423.469 220.854L420.031 224.615L419.365 221.26L421.562 217.927L424.833 213.167H429.344ZM425.021 228.333L421.104 221.5L423.948 219.406L429.344 228.333H425.021ZM435.302 228.542C434.385 228.542 433.566 228.399 432.844 228.115C432.122 227.823 431.51 227.424 431.01 226.917C430.517 226.41 430.139 225.826 429.875 225.167C429.618 224.507 429.49 223.809 429.49 223.073V222.677C429.49 221.851 429.604 221.087 429.833 220.385C430.062 219.677 430.403 219.059 430.854 218.531C431.306 218.003 431.872 217.594 432.552 217.302C433.233 217.003 434.024 216.854 434.927 216.854C435.726 216.854 436.441 216.983 437.073 217.24C437.705 217.497 438.24 217.865 438.677 218.344C439.122 218.823 439.458 219.403 439.687 220.083C439.924 220.764 440.042 221.528 440.042 222.375V223.802H430.833V221.604H436.615V221.333C436.622 220.958 436.556 220.639 436.417 220.375C436.285 220.111 436.09 219.91 435.833 219.771C435.576 219.632 435.264 219.562 434.896 219.562C434.514 219.562 434.198 219.646 433.948 219.812C433.705 219.979 433.514 220.208 433.375 220.5C433.243 220.785 433.149 221.115 433.094 221.49C433.038 221.865 433.01 222.26 433.01 222.677V223.073C433.01 223.49 433.066 223.868 433.177 224.208C433.295 224.549 433.462 224.84 433.677 225.083C433.899 225.319 434.163 225.503 434.469 225.635C434.781 225.767 435.135 225.833 435.531 225.833C436.01 225.833 436.483 225.743 436.948 225.562C437.413 225.382 437.812 225.083 438.146 224.667L439.74 226.562C439.51 226.889 439.184 227.205 438.76 227.51C438.344 227.816 437.844 228.066 437.26 228.26C436.677 228.448 436.024 228.542 435.302 228.542ZM445.01 219.854V228.333H441.5V217.062H444.781L445.01 219.854ZM448.344 216.979L448.281 220.24C448.142 220.226 447.955 220.208 447.719 220.187C447.483 220.167 447.285 220.156 447.125 220.156C446.715 220.156 446.361 220.205 446.062 220.302C445.771 220.392 445.528 220.531 445.333 220.719C445.146 220.899 445.007 221.128 444.917 221.406C444.833 221.684 444.795 222.007 444.802 222.375L444.167 221.958C444.167 221.201 444.24 220.514 444.385 219.896C444.538 219.271 444.753 218.733 445.031 218.281C445.309 217.823 445.646 217.472 446.042 217.229C446.437 216.979 446.882 216.854 447.375 216.854C447.549 216.854 447.719 216.865 447.885 216.885C448.059 216.906 448.212 216.937 448.344 216.979ZM455.094 225.5V220.854C455.094 220.535 455.049 220.26 454.958 220.031C454.868 219.802 454.726 219.625 454.531 219.5C454.337 219.368 454.076 219.302 453.75 219.302C453.486 219.302 453.26 219.347 453.073 219.437C452.885 219.528 452.743 219.663 452.646 219.844C452.549 220.024 452.5 220.253 452.5 220.531H448.99C448.99 220.01 449.104 219.528 449.333 219.083C449.569 218.632 449.903 218.24 450.333 217.906C450.771 217.573 451.292 217.316 451.896 217.135C452.507 216.948 453.188 216.854 453.938 216.854C454.833 216.854 455.632 217.003 456.333 217.302C457.042 217.601 457.601 218.049 458.01 218.646C458.42 219.236 458.625 219.979 458.625 220.875V225.49C458.625 226.226 458.667 226.785 458.75 227.167C458.833 227.542 458.951 227.872 459.104 228.156V228.333H455.583C455.417 227.986 455.292 227.562 455.208 227.062C455.132 226.556 455.094 226.035 455.094 225.5ZM455.521 221.448L455.542 223.323H453.99C453.663 223.323 453.385 223.368 453.156 223.458C452.934 223.549 452.753 223.674 452.615 223.833C452.483 223.986 452.385 224.16 452.323 224.354C452.267 224.549 452.24 224.753 452.24 224.969C452.24 225.177 452.288 225.365 452.385 225.531C452.49 225.691 452.628 225.816 452.802 225.906C452.976 225.997 453.17 226.042 453.385 226.042C453.774 226.042 454.104 225.969 454.375 225.823C454.653 225.67 454.865 225.486 455.01 225.271C455.156 225.056 455.229 224.854 455.229 224.667L456 226.104C455.861 226.382 455.701 226.663 455.521 226.948C455.347 227.233 455.128 227.497 454.865 227.74C454.608 227.976 454.292 228.17 453.917 228.323C453.542 228.469 453.087 228.542 452.552 228.542C451.858 228.542 451.219 228.399 450.635 228.115C450.059 227.83 449.597 227.434 449.25 226.927C448.903 226.413 448.729 225.823 448.729 225.156C448.729 224.573 448.833 224.052 449.042 223.594C449.257 223.135 449.58 222.747 450.01 222.427C450.441 222.108 450.99 221.865 451.656 221.698C452.323 221.531 453.108 221.448 454.01 221.448H455.521ZM466.479 225.167C466.479 224.972 466.413 224.806 466.281 224.667C466.156 224.521 465.934 224.389 465.615 224.271C465.295 224.146 464.847 224.021 464.271 223.896C463.722 223.778 463.205 223.622 462.719 223.427C462.24 223.233 461.819 222.997 461.458 222.719C461.097 222.441 460.812 222.111 460.604 221.729C460.403 221.347 460.302 220.91 460.302 220.417C460.302 219.937 460.403 219.486 460.604 219.062C460.812 218.632 461.115 218.253 461.51 217.927C461.913 217.594 462.403 217.333 462.979 217.146C463.556 216.951 464.212 216.854 464.948 216.854C465.962 216.854 466.837 217.01 467.573 217.323C468.309 217.628 468.875 218.059 469.271 218.615C469.674 219.163 469.875 219.799 469.875 220.521H466.365C466.365 220.236 466.316 219.993 466.219 219.792C466.128 219.59 465.979 219.437 465.771 219.333C465.562 219.222 465.285 219.167 464.937 219.167C464.694 219.167 464.472 219.212 464.271 219.302C464.076 219.392 463.92 219.517 463.802 219.677C463.684 219.837 463.625 220.024 463.625 220.24C463.625 220.392 463.66 220.531 463.729 220.656C463.806 220.774 463.92 220.885 464.073 220.99C464.226 221.087 464.42 221.177 464.656 221.26C464.892 221.337 465.177 221.406 465.51 221.469C466.267 221.608 466.976 221.806 467.635 222.062C468.295 222.319 468.83 222.684 469.24 223.156C469.656 223.628 469.865 224.264 469.865 225.062C469.865 225.562 469.75 226.024 469.521 226.448C469.292 226.865 468.962 227.233 468.531 227.552C468.101 227.865 467.583 228.108 466.979 228.281C466.375 228.455 465.694 228.542 464.937 228.542C463.861 228.542 462.951 228.351 462.208 227.969C461.465 227.58 460.903 227.094 460.521 226.51C460.146 225.92 459.958 225.323 459.958 224.719H463.229C463.243 225.066 463.326 225.351 463.479 225.573C463.639 225.795 463.851 225.958 464.115 226.062C464.378 226.167 464.684 226.219 465.031 226.219C465.351 226.219 465.615 226.174 465.823 226.083C466.038 225.993 466.201 225.872 466.312 225.719C466.424 225.559 466.479 225.375 466.479 225.167Z" fill="white"/>
<rect x="571" y="196.333" width="208" height="49.3333" rx="4.66667" fill="#888888" stroke="#888888" stroke-width="4"/>
<path d="M647.833 213.167V228.333H644.177V213.167H647.833ZM653.729 219.479V222.292H646.792V219.479H653.729ZM654.323 213.167V215.99H646.792V213.167H654.323ZM659.385 212.333V228.333H655.865V212.333H659.385ZM668.135 225.594V217.062H671.656V228.333H668.365L668.135 225.594ZM668.469 223.302L669.385 223.281C669.385 224.038 669.295 224.74 669.115 225.385C668.934 226.024 668.667 226.58 668.313 227.052C667.965 227.524 667.535 227.892 667.021 228.156C666.514 228.413 665.927 228.542 665.26 228.542C664.705 228.542 664.194 228.465 663.729 228.312C663.271 228.153 662.875 227.906 662.542 227.573C662.208 227.233 661.948 226.799 661.76 226.271C661.58 225.736 661.49 225.097 661.49 224.354V217.062H665V224.375C665 224.625 665.031 224.84 665.094 225.021C665.156 225.201 665.247 225.354 665.365 225.479C665.483 225.597 665.628 225.687 665.802 225.75C665.983 225.806 666.188 225.833 666.417 225.833C666.944 225.833 667.358 225.722 667.656 225.5C667.955 225.278 668.163 224.976 668.281 224.594C668.406 224.212 668.469 223.781 668.469 223.302ZM679.531 217.062V219.5H672.74V217.062H679.531ZM674.167 214.26H677.677V224.656C677.677 224.955 677.712 225.187 677.781 225.354C677.851 225.514 677.969 225.628 678.135 225.698C678.309 225.76 678.538 225.792 678.823 225.792C679.024 225.792 679.191 225.788 679.323 225.781C679.455 225.767 679.58 225.75 679.698 225.729V228.24C679.399 228.337 679.087 228.41 678.76 228.458C678.434 228.514 678.087 228.542 677.719 228.542C676.969 228.542 676.326 228.424 675.792 228.187C675.264 227.951 674.861 227.58 674.583 227.073C674.306 226.566 674.167 225.906 674.167 225.094V214.26ZM686.865 217.062V219.5H680.073V217.062H686.865ZM681.5 214.26H685.01V224.656C685.01 224.955 685.045 225.187 685.115 225.354C685.184 225.514 685.302 225.628 685.469 225.698C685.642 225.76 685.872 225.792 686.156 225.792C686.358 225.792 686.524 225.788 686.656 225.781C686.788 225.767 686.913 225.75 687.031 225.729V228.24C686.733 228.337 686.42 228.41 686.094 228.458C685.767 228.514 685.42 228.542 685.052 228.542C684.302 228.542 683.66 228.424 683.125 228.187C682.597 227.951 682.194 227.58 681.917 227.073C681.639 226.566 681.5 225.906 681.5 225.094V214.26ZM693.719 228.542C692.802 228.542 691.983 228.399 691.26 228.115C690.538 227.823 689.927 227.424 689.427 226.917C688.934 226.41 688.556 225.826 688.292 225.167C688.035 224.507 687.906 223.809 687.906 223.073V222.677C687.906 221.851 688.021 221.087 688.25 220.385C688.479 219.677 688.819 219.059 689.271 218.531C689.722 218.003 690.288 217.594 690.969 217.302C691.649 217.003 692.441 216.854 693.344 216.854C694.142 216.854 694.858 216.983 695.49 217.24C696.122 217.497 696.656 217.865 697.094 218.344C697.538 218.823 697.875 219.403 698.104 220.083C698.34 220.764 698.458 221.528 698.458 222.375V223.802H689.25V221.604H695.031V221.333C695.038 220.958 694.972 220.639 694.833 220.375C694.701 220.111 694.507 219.91 694.25 219.771C693.993 219.632 693.681 219.562 693.312 219.562C692.931 219.562 692.615 219.646 692.365 219.812C692.122 219.979 691.931 220.208 691.792 220.5C691.66 220.785 691.566 221.115 691.51 221.49C691.455 221.865 691.427 222.26 691.427 222.677V223.073C691.427 223.49 691.483 223.868 691.594 224.208C691.712 224.549 691.878 224.84 692.094 225.083C692.316 225.319 692.58 225.503 692.885 225.635C693.198 225.767 693.552 225.833 693.948 225.833C694.427 225.833 694.899 225.743 695.365 225.562C695.83 225.382 696.229 225.083 696.562 224.667L698.156 226.562C697.927 226.889 697.601 227.205 697.177 227.51C696.76 227.816 696.26 228.066 695.677 228.26C695.094 228.448 694.441 228.542 693.719 228.542ZM703.427 219.854V228.333H699.917V217.062H703.198L703.427 219.854ZM706.76 216.979L706.698 220.24C706.559 220.226 706.372 220.208 706.135 220.187C705.899 220.167 705.701 220.156 705.542 220.156C705.132 220.156 704.778 220.205 704.479 220.302C704.187 220.392 703.944 220.531 703.75 220.719C703.562 220.899 703.424 221.128 703.333 221.406C703.25 221.684 703.212 222.007 703.219 222.375L702.583 221.958C702.583 221.201 702.656 220.514 702.802 219.896C702.955 219.271 703.17 218.733 703.448 218.281C703.726 217.823 704.062 217.472 704.458 217.229C704.854 216.979 705.299 216.854 705.792 216.854C705.965 216.854 706.135 216.865 706.302 216.885C706.476 216.906 706.628 216.937 706.76 216.979Z" fill="white"/>
<rect x="803" y="196.333" width="208" height="49.3333" rx="4.66667" fill="#888888" stroke="#888888" stroke-width="4"/>
<path d="M883.073 225.521V228.333H875.406V225.521H883.073ZM876.708 213.167V228.333H873.052V213.167H876.708ZM890.302 225.5V220.854C890.302 220.535 890.257 220.26 890.167 220.031C890.076 219.802 889.934 219.625 889.74 219.5C889.545 219.368 889.285 219.302 888.958 219.302C888.694 219.302 888.469 219.347 888.281 219.437C888.094 219.528 887.951 219.663 887.854 219.844C887.757 220.024 887.708 220.253 887.708 220.531H884.198C884.198 220.01 884.312 219.528 884.542 219.083C884.778 218.632 885.111 218.24 885.542 217.906C885.979 217.573 886.5 217.316 887.104 217.135C887.715 216.948 888.396 216.854 889.146 216.854C890.042 216.854 890.84 217.003 891.542 217.302C892.25 217.601 892.809 218.049 893.219 218.646C893.628 219.236 893.833 219.979 893.833 220.875V225.49C893.833 226.226 893.875 226.785 893.958 227.167C894.042 227.542 894.16 227.872 894.312 228.156V228.333H890.792C890.625 227.986 890.5 227.562 890.417 227.062C890.34 226.556 890.302 226.035 890.302 225.5ZM890.729 221.448L890.75 223.323H889.198C888.872 223.323 888.594 223.368 888.365 223.458C888.142 223.549 887.962 223.674 887.823 223.833C887.691 223.986 887.594 224.16 887.531 224.354C887.476 224.549 887.448 224.753 887.448 224.969C887.448 225.177 887.497 225.365 887.594 225.531C887.698 225.691 887.837 225.816 888.01 225.906C888.184 225.997 888.378 226.042 888.594 226.042C888.983 226.042 889.312 225.969 889.583 225.823C889.861 225.67 890.073 225.486 890.219 225.271C890.365 225.056 890.437 224.854 890.437 224.667L891.208 226.104C891.069 226.382 890.91 226.663 890.729 226.948C890.556 227.233 890.337 227.497 890.073 227.74C889.816 227.976 889.5 228.17 889.125 228.323C888.75 228.469 888.295 228.542 887.76 228.542C887.066 228.542 886.427 228.399 885.844 228.115C885.267 227.83 884.806 227.434 884.458 226.927C884.111 226.413 883.937 225.823 883.937 225.156C883.937 224.573 884.042 224.052 884.25 223.594C884.465 223.135 884.788 222.747 885.219 222.427C885.649 222.108 886.198 221.865 886.865 221.698C887.531 221.531 888.316 221.448 889.219 221.448H890.729ZM899.323 219.854V228.333H895.812V217.062H899.094L899.323 219.854ZM902.656 216.979L902.594 220.24C902.455 220.226 902.267 220.208 902.031 220.187C901.795 220.167 901.597 220.156 901.437 220.156C901.028 220.156 900.674 220.205 900.375 220.302C900.083 220.392 899.84 220.531 899.646 220.719C899.458 220.899 899.319 221.128 899.229 221.406C899.146 221.684 899.108 222.007 899.115 222.375L898.479 221.958C898.479 221.201 898.552 220.514 898.698 219.896C898.851 219.271 899.066 218.733 899.344 218.281C899.622 217.823 899.958 217.472 900.354 217.229C900.75 216.979 901.194 216.854 901.687 216.854C901.861 216.854 902.031 216.865 902.198 216.885C902.372 216.906 902.524 216.937 902.656 216.979ZM909.406 225.5V220.854C909.406 220.535 909.361 220.26 909.271 220.031C909.181 219.802 909.038 219.625 908.844 219.5C908.649 219.368 908.389 219.302 908.063 219.302C907.799 219.302 907.573 219.347 907.385 219.437C907.198 219.528 907.056 219.663 906.958 219.844C906.861 220.024 906.813 220.253 906.813 220.531H903.302C903.302 220.01 903.417 219.528 903.646 219.083C903.882 218.632 904.215 218.24 904.646 217.906C905.083 217.573 905.604 217.316 906.208 217.135C906.819 216.948 907.5 216.854 908.25 216.854C909.146 216.854 909.944 217.003 910.646 217.302C911.354 217.601 911.913 218.049 912.323 218.646C912.733 219.236 912.938 219.979 912.938 220.875V225.49C912.938 226.226 912.979 226.785 913.063 227.167C913.146 227.542 913.264 227.872 913.417 228.156V228.333H909.896C909.729 227.986 909.604 227.562 909.521 227.062C909.444 226.556 909.406 226.035 909.406 225.5ZM909.833 221.448L909.854 223.323H908.302C907.976 223.323 907.698 223.368 907.469 223.458C907.247 223.549 907.066 223.674 906.927 223.833C906.795 223.986 906.698 224.16 906.635 224.354C906.58 224.549 906.552 224.753 906.552 224.969C906.552 225.177 906.601 225.365 906.698 225.531C906.802 225.691 906.941 225.816 907.115 225.906C907.288 225.997 907.483 226.042 907.698 226.042C908.087 226.042 908.417 225.969 908.688 225.823C908.965 225.67 909.177 225.486 909.323 225.271C909.469 225.056 909.542 224.854 909.542 224.667L910.313 226.104C910.174 226.382 910.014 226.663 909.833 226.948C909.66 227.233 909.441 227.497 909.177 227.74C908.92 227.976 908.604 228.17 908.229 228.323C907.854 228.469 907.399 228.542 906.865 228.542C906.17 228.542 905.531 228.399 904.948 228.115C904.372 227.83 903.91 227.434 903.563 226.927C903.215 226.413 903.042 225.823 903.042 225.156C903.042 224.573 903.146 224.052 903.354 223.594C903.569 223.135 903.892 222.747 904.323 222.427C904.753 222.108 905.302 221.865 905.969 221.698C906.635 221.531 907.42 221.448 908.323 221.448H909.833ZM918.781 225.927L921 217.062H924.698L921.01 228.333H918.823L918.781 225.927ZM917.469 217.062L919.656 225.927L919.635 228.333H917.437L913.76 217.062H917.469ZM931.052 228.542C930.135 228.542 929.316 228.399 928.594 228.115C927.872 227.823 927.26 227.424 926.76 226.917C926.267 226.41 925.889 225.826 925.625 225.167C925.368 224.507 925.24 223.809 925.24 223.073V222.677C925.24 221.851 925.354 221.087 925.583 220.385C925.812 219.677 926.153 219.059 926.604 218.531C927.056 218.003 927.622 217.594 928.302 217.302C928.983 217.003 929.774 216.854 930.677 216.854C931.476 216.854 932.191 216.983 932.823 217.24C933.455 217.497 933.99 217.865 934.427 218.344C934.872 218.823 935.208 219.403 935.437 220.083C935.674 220.764 935.792 221.528 935.792 222.375V223.802H926.583V221.604H932.365V221.333C932.372 220.958 932.306 220.639 932.167 220.375C932.035 220.111 931.84 219.91 931.583 219.771C931.326 219.632 931.014 219.562 930.646 219.562C930.264 219.562 929.948 219.646 929.698 219.812C929.455 219.979 929.264 220.208 929.125 220.5C928.993 220.785 928.899 221.115 928.844 221.49C928.788 221.865 928.76 222.26 928.76 222.677V223.073C928.76 223.49 928.816 223.868 928.927 224.208C929.045 224.549 929.212 224.84 929.427 225.083C929.649 225.319 929.913 225.503 930.219 225.635C930.531 225.767 930.885 225.833 931.281 225.833C931.76 225.833 932.233 225.743 932.698 225.562C933.163 225.382 933.562 225.083 933.896 224.667L935.49 226.562C935.26 226.889 934.934 227.205 934.51 227.51C934.094 227.816 933.594 228.066 933.01 228.26C932.427 228.448 931.774 228.542 931.052 228.542ZM940.927 212.333V228.333H937.406V212.333H940.927Z" fill="white"/>
</svg>
